%TF.GenerationSoftware,KiCad,Pcbnew,(5.1.9)-1*%
%TF.CreationDate,2020-12-29T21:02:10-08:00*%
%TF.ProjectId,Autoblind,4175746f-626c-4696-9e64-2e6b69636164,rev?*%
%TF.SameCoordinates,Original*%
%TF.FileFunction,Legend,Top*%
%TF.FilePolarity,Positive*%
%FSLAX46Y46*%
G04 Gerber Fmt 4.6, Leading zero omitted, Abs format (unit mm)*
G04 Created by KiCad (PCBNEW (5.1.9)-1) date 2020-12-29 21:02:10*
%MOMM*%
%LPD*%
G01*
G04 APERTURE LIST*
%ADD10C,0.400000*%
%ADD11C,0.160000*%
%ADD12C,0.500000*%
G04 APERTURE END LIST*
D10*
X65310571Y-130127333D02*
X66262952Y-130127333D01*
X65120095Y-130698761D02*
X65786761Y-128698761D01*
X66453428Y-130698761D01*
X67977238Y-129365428D02*
X67977238Y-130698761D01*
X67120095Y-129365428D02*
X67120095Y-130413047D01*
X67215333Y-130603523D01*
X67405809Y-130698761D01*
X67691523Y-130698761D01*
X67882000Y-130603523D01*
X67977238Y-130508285D01*
X68643904Y-129365428D02*
X69405809Y-129365428D01*
X68929619Y-128698761D02*
X68929619Y-130413047D01*
X69024857Y-130603523D01*
X69215333Y-130698761D01*
X69405809Y-130698761D01*
X70358190Y-130698761D02*
X70167714Y-130603523D01*
X70072476Y-130508285D01*
X69977238Y-130317809D01*
X69977238Y-129746380D01*
X70072476Y-129555904D01*
X70167714Y-129460666D01*
X70358190Y-129365428D01*
X70643904Y-129365428D01*
X70834380Y-129460666D01*
X70929619Y-129555904D01*
X71024857Y-129746380D01*
X71024857Y-130317809D01*
X70929619Y-130508285D01*
X70834380Y-130603523D01*
X70643904Y-130698761D01*
X70358190Y-130698761D01*
X71882000Y-130698761D02*
X71882000Y-128698761D01*
X71882000Y-129460666D02*
X72072476Y-129365428D01*
X72453428Y-129365428D01*
X72643904Y-129460666D01*
X72739142Y-129555904D01*
X72834380Y-129746380D01*
X72834380Y-130317809D01*
X72739142Y-130508285D01*
X72643904Y-130603523D01*
X72453428Y-130698761D01*
X72072476Y-130698761D01*
X71882000Y-130603523D01*
X73977238Y-130698761D02*
X73786761Y-130603523D01*
X73691523Y-130413047D01*
X73691523Y-128698761D01*
X74739142Y-130698761D02*
X74739142Y-129365428D01*
X74739142Y-128698761D02*
X74643904Y-128794000D01*
X74739142Y-128889238D01*
X74834380Y-128794000D01*
X74739142Y-128698761D01*
X74739142Y-128889238D01*
X75691523Y-129365428D02*
X75691523Y-130698761D01*
X75691523Y-129555904D02*
X75786761Y-129460666D01*
X75977238Y-129365428D01*
X76262952Y-129365428D01*
X76453428Y-129460666D01*
X76548666Y-129651142D01*
X76548666Y-130698761D01*
X78358190Y-130698761D02*
X78358190Y-128698761D01*
X78358190Y-130603523D02*
X78167714Y-130698761D01*
X77786761Y-130698761D01*
X77596285Y-130603523D01*
X77501047Y-130508285D01*
X77405809Y-130317809D01*
X77405809Y-129746380D01*
X77501047Y-129555904D01*
X77596285Y-129460666D01*
X77786761Y-129365428D01*
X78167714Y-129365428D01*
X78358190Y-129460666D01*
D11*
X67977238Y-123744571D02*
X68310571Y-123744571D01*
X68453428Y-124268380D02*
X67977238Y-124268380D01*
X67977238Y-123268380D01*
X68453428Y-123268380D01*
X69024857Y-124268380D02*
X68929619Y-124220761D01*
X68882000Y-124125523D01*
X68882000Y-123268380D01*
X69786761Y-124220761D02*
X69691523Y-124268380D01*
X69501047Y-124268380D01*
X69405809Y-124220761D01*
X69358190Y-124125523D01*
X69358190Y-123744571D01*
X69405809Y-123649333D01*
X69501047Y-123601714D01*
X69691523Y-123601714D01*
X69786761Y-123649333D01*
X69834380Y-123744571D01*
X69834380Y-123839809D01*
X69358190Y-123935047D01*
X70691523Y-124220761D02*
X70596285Y-124268380D01*
X70405809Y-124268380D01*
X70310571Y-124220761D01*
X70262952Y-124173142D01*
X70215333Y-124077904D01*
X70215333Y-123792190D01*
X70262952Y-123696952D01*
X70310571Y-123649333D01*
X70405809Y-123601714D01*
X70596285Y-123601714D01*
X70691523Y-123649333D01*
X70977238Y-123601714D02*
X71358190Y-123601714D01*
X71120095Y-123268380D02*
X71120095Y-124125523D01*
X71167714Y-124220761D01*
X71262952Y-124268380D01*
X71358190Y-124268380D01*
X71691523Y-124268380D02*
X71691523Y-123601714D01*
X71691523Y-123792190D02*
X71739142Y-123696952D01*
X71786761Y-123649333D01*
X71882000Y-123601714D01*
X71977238Y-123601714D01*
X72453428Y-124268380D02*
X72358190Y-124220761D01*
X72310571Y-124173142D01*
X72262952Y-124077904D01*
X72262952Y-123792190D01*
X72310571Y-123696952D01*
X72358190Y-123649333D01*
X72453428Y-123601714D01*
X72596285Y-123601714D01*
X72691523Y-123649333D01*
X72739142Y-123696952D01*
X72786761Y-123792190D01*
X72786761Y-124077904D01*
X72739142Y-124173142D01*
X72691523Y-124220761D01*
X72596285Y-124268380D01*
X72453428Y-124268380D01*
X73215333Y-123601714D02*
X73215333Y-124268380D01*
X73215333Y-123696952D02*
X73262952Y-123649333D01*
X73358190Y-123601714D01*
X73501047Y-123601714D01*
X73596285Y-123649333D01*
X73643904Y-123744571D01*
X73643904Y-124268380D01*
X74120095Y-124268380D02*
X74120095Y-123601714D01*
X74120095Y-123268380D02*
X74072476Y-123316000D01*
X74120095Y-123363619D01*
X74167714Y-123316000D01*
X74120095Y-123268380D01*
X74120095Y-123363619D01*
X75024857Y-124220761D02*
X74929619Y-124268380D01*
X74739142Y-124268380D01*
X74643904Y-124220761D01*
X74596285Y-124173142D01*
X74548666Y-124077904D01*
X74548666Y-123792190D01*
X74596285Y-123696952D01*
X74643904Y-123649333D01*
X74739142Y-123601714D01*
X74929619Y-123601714D01*
X75024857Y-123649333D01*
X75405809Y-124220761D02*
X75501047Y-124268380D01*
X75691523Y-124268380D01*
X75786761Y-124220761D01*
X75834380Y-124125523D01*
X75834380Y-124077904D01*
X75786761Y-123982666D01*
X75691523Y-123935047D01*
X75548666Y-123935047D01*
X75453428Y-123887428D01*
X75405809Y-123792190D01*
X75405809Y-123744571D01*
X75453428Y-123649333D01*
X75548666Y-123601714D01*
X75691523Y-123601714D01*
X75786761Y-123649333D01*
X68382000Y-125547428D02*
X69143904Y-125547428D01*
X70810571Y-125928380D02*
X70810571Y-125404571D01*
X70762952Y-125309333D01*
X70667714Y-125261714D01*
X70477238Y-125261714D01*
X70382000Y-125309333D01*
X70810571Y-125880761D02*
X70715333Y-125928380D01*
X70477238Y-125928380D01*
X70382000Y-125880761D01*
X70334380Y-125785523D01*
X70334380Y-125690285D01*
X70382000Y-125595047D01*
X70477238Y-125547428D01*
X70715333Y-125547428D01*
X70810571Y-125499809D01*
X71286761Y-125261714D02*
X71286761Y-125928380D01*
X71286761Y-125356952D02*
X71334380Y-125309333D01*
X71429619Y-125261714D01*
X71572476Y-125261714D01*
X71667714Y-125309333D01*
X71715333Y-125404571D01*
X71715333Y-125928380D01*
X72620095Y-125928380D02*
X72620095Y-124928380D01*
X72620095Y-125880761D02*
X72524857Y-125928380D01*
X72334380Y-125928380D01*
X72239142Y-125880761D01*
X72191523Y-125833142D01*
X72143904Y-125737904D01*
X72143904Y-125452190D01*
X72191523Y-125356952D01*
X72239142Y-125309333D01*
X72334380Y-125261714D01*
X72524857Y-125261714D01*
X72620095Y-125309333D01*
X73858190Y-125547428D02*
X74620095Y-125547428D01*
X63239142Y-127064571D02*
X63572476Y-127064571D01*
X63715333Y-127588380D02*
X63239142Y-127588380D01*
X63239142Y-126588380D01*
X63715333Y-126588380D01*
X64286761Y-127588380D02*
X64191523Y-127540761D01*
X64143904Y-127445523D01*
X64143904Y-126588380D01*
X65048666Y-127540761D02*
X64953428Y-127588380D01*
X64762952Y-127588380D01*
X64667714Y-127540761D01*
X64620095Y-127445523D01*
X64620095Y-127064571D01*
X64667714Y-126969333D01*
X64762952Y-126921714D01*
X64953428Y-126921714D01*
X65048666Y-126969333D01*
X65096285Y-127064571D01*
X65096285Y-127159809D01*
X64620095Y-127255047D01*
X65953428Y-127540761D02*
X65858190Y-127588380D01*
X65667714Y-127588380D01*
X65572476Y-127540761D01*
X65524857Y-127493142D01*
X65477238Y-127397904D01*
X65477238Y-127112190D01*
X65524857Y-127016952D01*
X65572476Y-126969333D01*
X65667714Y-126921714D01*
X65858190Y-126921714D01*
X65953428Y-126969333D01*
X66239142Y-126921714D02*
X66620095Y-126921714D01*
X66382000Y-126588380D02*
X66382000Y-127445523D01*
X66429619Y-127540761D01*
X66524857Y-127588380D01*
X66620095Y-127588380D01*
X66953428Y-127588380D02*
X66953428Y-126921714D01*
X66953428Y-127112190D02*
X67001047Y-127016952D01*
X67048666Y-126969333D01*
X67143904Y-126921714D01*
X67239142Y-126921714D01*
X67715333Y-127588380D02*
X67620095Y-127540761D01*
X67572476Y-127493142D01*
X67524857Y-127397904D01*
X67524857Y-127112190D01*
X67572476Y-127016952D01*
X67620095Y-126969333D01*
X67715333Y-126921714D01*
X67858190Y-126921714D01*
X67953428Y-126969333D01*
X68001047Y-127016952D01*
X68048666Y-127112190D01*
X68048666Y-127397904D01*
X68001047Y-127493142D01*
X67953428Y-127540761D01*
X67858190Y-127588380D01*
X67715333Y-127588380D01*
X68477238Y-126921714D02*
X68477238Y-127588380D01*
X68477238Y-127016952D02*
X68524857Y-126969333D01*
X68620095Y-126921714D01*
X68762952Y-126921714D01*
X68858190Y-126969333D01*
X68905809Y-127064571D01*
X68905809Y-127588380D01*
X69382000Y-127588380D02*
X69382000Y-126921714D01*
X69382000Y-126588380D02*
X69334380Y-126636000D01*
X69382000Y-126683619D01*
X69429619Y-126636000D01*
X69382000Y-126588380D01*
X69382000Y-126683619D01*
X70286761Y-127540761D02*
X70191523Y-127588380D01*
X70001047Y-127588380D01*
X69905809Y-127540761D01*
X69858190Y-127493142D01*
X69810571Y-127397904D01*
X69810571Y-127112190D01*
X69858190Y-127016952D01*
X69905809Y-126969333D01*
X70001047Y-126921714D01*
X70191523Y-126921714D01*
X70286761Y-126969333D01*
X70667714Y-127540761D02*
X70762952Y-127588380D01*
X70953428Y-127588380D01*
X71048666Y-127540761D01*
X71096285Y-127445523D01*
X71096285Y-127397904D01*
X71048666Y-127302666D01*
X70953428Y-127255047D01*
X70810571Y-127255047D01*
X70715333Y-127207428D01*
X70667714Y-127112190D01*
X70667714Y-127064571D01*
X70715333Y-126969333D01*
X70810571Y-126921714D01*
X70953428Y-126921714D01*
X71048666Y-126969333D01*
X72239142Y-127302666D02*
X72715333Y-127302666D01*
X72143904Y-127588380D02*
X72477238Y-126588380D01*
X72810571Y-127588380D01*
X73572476Y-127540761D02*
X73477238Y-127588380D01*
X73286761Y-127588380D01*
X73191523Y-127540761D01*
X73143904Y-127493142D01*
X73096285Y-127397904D01*
X73096285Y-127112190D01*
X73143904Y-127016952D01*
X73191523Y-126969333D01*
X73286761Y-126921714D01*
X73477238Y-126921714D01*
X73572476Y-126969333D01*
X74429619Y-127540761D02*
X74334380Y-127588380D01*
X74143904Y-127588380D01*
X74048666Y-127540761D01*
X74001047Y-127493142D01*
X73953428Y-127397904D01*
X73953428Y-127112190D01*
X74001047Y-127016952D01*
X74048666Y-126969333D01*
X74143904Y-126921714D01*
X74334380Y-126921714D01*
X74429619Y-126969333D01*
X75239142Y-127540761D02*
X75143904Y-127588380D01*
X74953428Y-127588380D01*
X74858190Y-127540761D01*
X74810571Y-127445523D01*
X74810571Y-127064571D01*
X74858190Y-126969333D01*
X74953428Y-126921714D01*
X75143904Y-126921714D01*
X75239142Y-126969333D01*
X75286761Y-127064571D01*
X75286761Y-127159809D01*
X74810571Y-127255047D01*
X75667714Y-127540761D02*
X75762952Y-127588380D01*
X75953428Y-127588380D01*
X76048666Y-127540761D01*
X76096285Y-127445523D01*
X76096285Y-127397904D01*
X76048666Y-127302666D01*
X75953428Y-127255047D01*
X75810571Y-127255047D01*
X75715333Y-127207428D01*
X75667714Y-127112190D01*
X75667714Y-127064571D01*
X75715333Y-126969333D01*
X75810571Y-126921714D01*
X75953428Y-126921714D01*
X76048666Y-126969333D01*
X76477238Y-127540761D02*
X76572476Y-127588380D01*
X76762952Y-127588380D01*
X76858190Y-127540761D01*
X76905809Y-127445523D01*
X76905809Y-127397904D01*
X76858190Y-127302666D01*
X76762952Y-127255047D01*
X76620095Y-127255047D01*
X76524857Y-127207428D01*
X76477238Y-127112190D01*
X76477238Y-127064571D01*
X76524857Y-126969333D01*
X76620095Y-126921714D01*
X76762952Y-126921714D01*
X76858190Y-126969333D01*
X77477238Y-127588380D02*
X77382000Y-127540761D01*
X77334380Y-127493142D01*
X77286761Y-127397904D01*
X77286761Y-127112190D01*
X77334380Y-127016952D01*
X77382000Y-126969333D01*
X77477238Y-126921714D01*
X77620095Y-126921714D01*
X77715333Y-126969333D01*
X77762952Y-127016952D01*
X77810571Y-127112190D01*
X77810571Y-127397904D01*
X77762952Y-127493142D01*
X77715333Y-127540761D01*
X77620095Y-127588380D01*
X77477238Y-127588380D01*
X78239142Y-127588380D02*
X78239142Y-126921714D01*
X78239142Y-127112190D02*
X78286761Y-127016952D01*
X78334380Y-126969333D01*
X78429619Y-126921714D01*
X78524857Y-126921714D01*
X78858190Y-127588380D02*
X78858190Y-126921714D01*
X78858190Y-126588380D02*
X78810571Y-126636000D01*
X78858190Y-126683619D01*
X78905809Y-126636000D01*
X78858190Y-126588380D01*
X78858190Y-126683619D01*
X79715333Y-127540761D02*
X79620095Y-127588380D01*
X79429619Y-127588380D01*
X79334380Y-127540761D01*
X79286761Y-127445523D01*
X79286761Y-127064571D01*
X79334380Y-126969333D01*
X79429619Y-126921714D01*
X79620095Y-126921714D01*
X79715333Y-126969333D01*
X79762952Y-127064571D01*
X79762952Y-127159809D01*
X79286761Y-127255047D01*
X80143904Y-127540761D02*
X80239142Y-127588380D01*
X80429619Y-127588380D01*
X80524857Y-127540761D01*
X80572476Y-127445523D01*
X80572476Y-127397904D01*
X80524857Y-127302666D01*
X80429619Y-127255047D01*
X80286761Y-127255047D01*
X80191523Y-127207428D01*
X80143904Y-127112190D01*
X80143904Y-127064571D01*
X80191523Y-126969333D01*
X80286761Y-126921714D01*
X80429619Y-126921714D01*
X80524857Y-126969333D01*
X87146380Y-129924380D02*
X87146380Y-128924380D01*
X87146380Y-129400571D02*
X87717809Y-129400571D01*
X87717809Y-129924380D02*
X87717809Y-128924380D01*
X88146380Y-129638666D02*
X88622571Y-129638666D01*
X88051142Y-129924380D02*
X88384476Y-128924380D01*
X88717809Y-129924380D01*
X89527333Y-129924380D02*
X89051142Y-129924380D01*
X89051142Y-128924380D01*
X90336857Y-129924380D02*
X89860666Y-129924380D01*
X89860666Y-128924380D01*
X91432095Y-129400571D02*
X91765428Y-129400571D01*
X91908285Y-129924380D02*
X91432095Y-129924380D01*
X91432095Y-128924380D01*
X91908285Y-128924380D01*
X92670190Y-129400571D02*
X92336857Y-129400571D01*
X92336857Y-129924380D02*
X92336857Y-128924380D01*
X92813047Y-128924380D01*
X93527333Y-129400571D02*
X93194000Y-129400571D01*
X93194000Y-129924380D02*
X93194000Y-128924380D01*
X93670190Y-128924380D01*
X94051142Y-129400571D02*
X94384476Y-129400571D01*
X94527333Y-129924380D02*
X94051142Y-129924380D01*
X94051142Y-128924380D01*
X94527333Y-128924380D01*
X95527333Y-129829142D02*
X95479714Y-129876761D01*
X95336857Y-129924380D01*
X95241619Y-129924380D01*
X95098761Y-129876761D01*
X95003523Y-129781523D01*
X94955904Y-129686285D01*
X94908285Y-129495809D01*
X94908285Y-129352952D01*
X94955904Y-129162476D01*
X95003523Y-129067238D01*
X95098761Y-128972000D01*
X95241619Y-128924380D01*
X95336857Y-128924380D01*
X95479714Y-128972000D01*
X95527333Y-129019619D01*
X95813047Y-128924380D02*
X96384476Y-128924380D01*
X96098761Y-129924380D02*
X96098761Y-128924380D01*
X88932095Y-131536761D02*
X89074952Y-131584380D01*
X89313047Y-131584380D01*
X89408285Y-131536761D01*
X89455904Y-131489142D01*
X89503523Y-131393904D01*
X89503523Y-131298666D01*
X89455904Y-131203428D01*
X89408285Y-131155809D01*
X89313047Y-131108190D01*
X89122571Y-131060571D01*
X89027333Y-131012952D01*
X88979714Y-130965333D01*
X88932095Y-130870095D01*
X88932095Y-130774857D01*
X88979714Y-130679619D01*
X89027333Y-130632000D01*
X89122571Y-130584380D01*
X89360666Y-130584380D01*
X89503523Y-130632000D01*
X89932095Y-131060571D02*
X90265428Y-131060571D01*
X90408285Y-131584380D02*
X89932095Y-131584380D01*
X89932095Y-130584380D01*
X90408285Y-130584380D01*
X90836857Y-131584380D02*
X90836857Y-130584380D01*
X91408285Y-131584380D01*
X91408285Y-130584380D01*
X91836857Y-131536761D02*
X91979714Y-131584380D01*
X92217809Y-131584380D01*
X92313047Y-131536761D01*
X92360666Y-131489142D01*
X92408285Y-131393904D01*
X92408285Y-131298666D01*
X92360666Y-131203428D01*
X92313047Y-131155809D01*
X92217809Y-131108190D01*
X92027333Y-131060571D01*
X91932095Y-131012952D01*
X91884476Y-130965333D01*
X91836857Y-130870095D01*
X91836857Y-130774857D01*
X91884476Y-130679619D01*
X91932095Y-130632000D01*
X92027333Y-130584380D01*
X92265428Y-130584380D01*
X92408285Y-130632000D01*
X93027333Y-130584380D02*
X93217809Y-130584380D01*
X93313047Y-130632000D01*
X93408285Y-130727238D01*
X93455904Y-130917714D01*
X93455904Y-131251047D01*
X93408285Y-131441523D01*
X93313047Y-131536761D01*
X93217809Y-131584380D01*
X93027333Y-131584380D01*
X92932095Y-131536761D01*
X92836857Y-131441523D01*
X92789238Y-131251047D01*
X92789238Y-130917714D01*
X92836857Y-130727238D01*
X92932095Y-130632000D01*
X93027333Y-130584380D01*
X94455904Y-131584380D02*
X94122571Y-131108190D01*
X93884476Y-131584380D02*
X93884476Y-130584380D01*
X94265428Y-130584380D01*
X94360666Y-130632000D01*
X94408285Y-130679619D01*
X94455904Y-130774857D01*
X94455904Y-130917714D01*
X94408285Y-131012952D01*
X94360666Y-131060571D01*
X94265428Y-131108190D01*
X93884476Y-131108190D01*
X67310571Y-132786380D02*
X67310571Y-131786380D01*
X67643904Y-132500666D01*
X67977238Y-131786380D01*
X67977238Y-132786380D01*
X68453428Y-132786380D02*
X68453428Y-131786380D01*
X68548666Y-132405428D02*
X68834380Y-132786380D01*
X68834380Y-132119714D02*
X68453428Y-132500666D01*
X69262952Y-132691142D02*
X69310571Y-132738761D01*
X69262952Y-132786380D01*
X69215333Y-132738761D01*
X69262952Y-132691142D01*
X69262952Y-132786380D01*
X71024857Y-132786380D02*
X70453428Y-132786380D01*
X70739142Y-132786380D02*
X70739142Y-131786380D01*
X70643904Y-131929238D01*
X70548666Y-132024476D01*
X70453428Y-132072095D01*
X72786761Y-132786380D02*
X72453428Y-132310190D01*
X72215333Y-132786380D02*
X72215333Y-131786380D01*
X72596285Y-131786380D01*
X72691523Y-131834000D01*
X72739142Y-131881619D01*
X72786761Y-131976857D01*
X72786761Y-132119714D01*
X72739142Y-132214952D01*
X72691523Y-132262571D01*
X72596285Y-132310190D01*
X72215333Y-132310190D01*
X73596285Y-132738761D02*
X73501047Y-132786380D01*
X73310571Y-132786380D01*
X73215333Y-132738761D01*
X73167714Y-132643523D01*
X73167714Y-132262571D01*
X73215333Y-132167333D01*
X73310571Y-132119714D01*
X73501047Y-132119714D01*
X73596285Y-132167333D01*
X73643904Y-132262571D01*
X73643904Y-132357809D01*
X73167714Y-132453047D01*
X73977238Y-132119714D02*
X74215333Y-132786380D01*
X74453428Y-132119714D01*
X74834380Y-132691142D02*
X74882000Y-132738761D01*
X74834380Y-132786380D01*
X74786761Y-132738761D01*
X74834380Y-132691142D01*
X74834380Y-132786380D01*
X76024857Y-132500666D02*
X76501047Y-132500666D01*
X75929619Y-132786380D02*
X76262952Y-131786380D01*
X76596285Y-132786380D01*
D12*
X61167714Y-121864285D02*
X61596285Y-122007142D01*
X62310571Y-122007142D01*
X62596285Y-121864285D01*
X62739142Y-121721428D01*
X62882000Y-121435714D01*
X62882000Y-121150000D01*
X62739142Y-120864285D01*
X62596285Y-120721428D01*
X62310571Y-120578571D01*
X61739142Y-120435714D01*
X61453428Y-120292857D01*
X61310571Y-120150000D01*
X61167714Y-119864285D01*
X61167714Y-119578571D01*
X61310571Y-119292857D01*
X61453428Y-119150000D01*
X61739142Y-119007142D01*
X62453428Y-119007142D01*
X62882000Y-119150000D01*
X63739142Y-120007142D02*
X64882000Y-120007142D01*
X64167714Y-119007142D02*
X64167714Y-121578571D01*
X64310571Y-121864285D01*
X64596285Y-122007142D01*
X64882000Y-122007142D01*
X65882000Y-122007142D02*
X65882000Y-120007142D01*
X65882000Y-120578571D02*
X66024857Y-120292857D01*
X66167714Y-120150000D01*
X66453428Y-120007142D01*
X66739142Y-120007142D01*
X67739142Y-122007142D02*
X67739142Y-120007142D01*
X67739142Y-119007142D02*
X67596285Y-119150000D01*
X67739142Y-119292857D01*
X67882000Y-119150000D01*
X67739142Y-119007142D01*
X67739142Y-119292857D01*
X70453428Y-121864285D02*
X70167714Y-122007142D01*
X69596285Y-122007142D01*
X69310571Y-121864285D01*
X69167714Y-121721428D01*
X69024857Y-121435714D01*
X69024857Y-120578571D01*
X69167714Y-120292857D01*
X69310571Y-120150000D01*
X69596285Y-120007142D01*
X70167714Y-120007142D01*
X70453428Y-120150000D01*
X71739142Y-122007142D02*
X71739142Y-119007142D01*
X72024857Y-120864285D02*
X72882000Y-122007142D01*
X72882000Y-120007142D02*
X71739142Y-121150000D01*
X74596285Y-122007142D02*
X74310571Y-121864285D01*
X74167714Y-121578571D01*
X74167714Y-119007142D01*
X77024857Y-122007142D02*
X77024857Y-120435714D01*
X76882000Y-120150000D01*
X76596285Y-120007142D01*
X76024857Y-120007142D01*
X75739142Y-120150000D01*
X77024857Y-121864285D02*
X76739142Y-122007142D01*
X76024857Y-122007142D01*
X75739142Y-121864285D01*
X75596285Y-121578571D01*
X75596285Y-121292857D01*
X75739142Y-121007142D01*
X76024857Y-120864285D01*
X76739142Y-120864285D01*
X77024857Y-120721428D01*
X78453428Y-120007142D02*
X78453428Y-122007142D01*
X78453428Y-120292857D02*
X78596285Y-120150000D01*
X78882000Y-120007142D01*
X79310571Y-120007142D01*
X79596285Y-120150000D01*
X79739142Y-120435714D01*
X79739142Y-122007142D01*
X82453428Y-122007142D02*
X82453428Y-119007142D01*
X82453428Y-121864285D02*
X82167714Y-122007142D01*
X81596285Y-122007142D01*
X81310571Y-121864285D01*
X81167714Y-121721428D01*
X81024857Y-121435714D01*
X81024857Y-120578571D01*
X81167714Y-120292857D01*
X81310571Y-120150000D01*
X81596285Y-120007142D01*
X82167714Y-120007142D01*
X82453428Y-120150000D01*
D11*
X45934380Y-122673904D02*
X46743904Y-122673904D01*
X46839142Y-122626285D01*
X46886761Y-122578666D01*
X46934380Y-122483428D01*
X46934380Y-122292952D01*
X46886761Y-122197714D01*
X46839142Y-122150095D01*
X46743904Y-122102476D01*
X45934380Y-122102476D01*
X46886761Y-121673904D02*
X46934380Y-121531047D01*
X46934380Y-121292952D01*
X46886761Y-121197714D01*
X46839142Y-121150095D01*
X46743904Y-121102476D01*
X46648666Y-121102476D01*
X46553428Y-121150095D01*
X46505809Y-121197714D01*
X46458190Y-121292952D01*
X46410571Y-121483428D01*
X46362952Y-121578666D01*
X46315333Y-121626285D01*
X46220095Y-121673904D01*
X46124857Y-121673904D01*
X46029619Y-121626285D01*
X45982000Y-121578666D01*
X45934380Y-121483428D01*
X45934380Y-121245333D01*
X45982000Y-121102476D01*
X46410571Y-120340571D02*
X46458190Y-120197714D01*
X46505809Y-120150095D01*
X46601047Y-120102476D01*
X46743904Y-120102476D01*
X46839142Y-120150095D01*
X46886761Y-120197714D01*
X46934380Y-120292952D01*
X46934380Y-120673904D01*
X45934380Y-120673904D01*
X45934380Y-120340571D01*
X45982000Y-120245333D01*
X46029619Y-120197714D01*
X46124857Y-120150095D01*
X46220095Y-120150095D01*
X46315333Y-120197714D01*
X46362952Y-120245333D01*
X46410571Y-120340571D01*
X46410571Y-120673904D01*
X88633619Y-107020857D02*
X88586000Y-106973238D01*
X88538380Y-106878000D01*
X88538380Y-106639904D01*
X88586000Y-106544666D01*
X88633619Y-106497047D01*
X88728857Y-106449428D01*
X88824095Y-106449428D01*
X88966952Y-106497047D01*
X89538380Y-107068476D01*
X89538380Y-106449428D01*
X88966952Y-105878000D02*
X88919333Y-105973238D01*
X88871714Y-106020857D01*
X88776476Y-106068476D01*
X88728857Y-106068476D01*
X88633619Y-106020857D01*
X88586000Y-105973238D01*
X88538380Y-105878000D01*
X88538380Y-105687523D01*
X88586000Y-105592285D01*
X88633619Y-105544666D01*
X88728857Y-105497047D01*
X88776476Y-105497047D01*
X88871714Y-105544666D01*
X88919333Y-105592285D01*
X88966952Y-105687523D01*
X88966952Y-105878000D01*
X89014571Y-105973238D01*
X89062190Y-106020857D01*
X89157428Y-106068476D01*
X89347904Y-106068476D01*
X89443142Y-106020857D01*
X89490761Y-105973238D01*
X89538380Y-105878000D01*
X89538380Y-105687523D01*
X89490761Y-105592285D01*
X89443142Y-105544666D01*
X89347904Y-105497047D01*
X89157428Y-105497047D01*
X89062190Y-105544666D01*
X89014571Y-105592285D01*
X88966952Y-105687523D01*
X89014571Y-104735142D02*
X89062190Y-104592285D01*
X89109809Y-104544666D01*
X89205047Y-104497047D01*
X89347904Y-104497047D01*
X89443142Y-104544666D01*
X89490761Y-104592285D01*
X89538380Y-104687523D01*
X89538380Y-105068476D01*
X88538380Y-105068476D01*
X88538380Y-104735142D01*
X88586000Y-104639904D01*
X88633619Y-104592285D01*
X88728857Y-104544666D01*
X88824095Y-104544666D01*
X88919333Y-104592285D01*
X88966952Y-104639904D01*
X89014571Y-104735142D01*
X89014571Y-105068476D01*
X88538380Y-103782761D02*
X89252666Y-103782761D01*
X89395523Y-103830380D01*
X89490761Y-103925619D01*
X89538380Y-104068476D01*
X89538380Y-104163714D01*
X89062190Y-103116095D02*
X89538380Y-103116095D01*
X88538380Y-103449428D02*
X89062190Y-103116095D01*
X88538380Y-102782761D01*
X89157428Y-102449428D02*
X89157428Y-101687523D01*
X88871714Y-100782761D02*
X89538380Y-100782761D01*
X88490761Y-101020857D02*
X89205047Y-101258952D01*
X89205047Y-100639904D01*
X88966952Y-100116095D02*
X88919333Y-100211333D01*
X88871714Y-100258952D01*
X88776476Y-100306571D01*
X88728857Y-100306571D01*
X88633619Y-100258952D01*
X88586000Y-100211333D01*
X88538380Y-100116095D01*
X88538380Y-99925619D01*
X88586000Y-99830380D01*
X88633619Y-99782761D01*
X88728857Y-99735142D01*
X88776476Y-99735142D01*
X88871714Y-99782761D01*
X88919333Y-99830380D01*
X88966952Y-99925619D01*
X88966952Y-100116095D01*
X89014571Y-100211333D01*
X89062190Y-100258952D01*
X89157428Y-100306571D01*
X89347904Y-100306571D01*
X89443142Y-100258952D01*
X89490761Y-100211333D01*
X89538380Y-100116095D01*
X89538380Y-99925619D01*
X89490761Y-99830380D01*
X89443142Y-99782761D01*
X89347904Y-99735142D01*
X89157428Y-99735142D01*
X89062190Y-99782761D01*
X89014571Y-99830380D01*
X88966952Y-99925619D01*
X91150761Y-106925619D02*
X91198380Y-106782761D01*
X91198380Y-106544666D01*
X91150761Y-106449428D01*
X91103142Y-106401809D01*
X91007904Y-106354190D01*
X90912666Y-106354190D01*
X90817428Y-106401809D01*
X90769809Y-106449428D01*
X90722190Y-106544666D01*
X90674571Y-106735142D01*
X90626952Y-106830380D01*
X90579333Y-106878000D01*
X90484095Y-106925619D01*
X90388857Y-106925619D01*
X90293619Y-106878000D01*
X90246000Y-106830380D01*
X90198380Y-106735142D01*
X90198380Y-106497047D01*
X90246000Y-106354190D01*
X90198380Y-106068476D02*
X90198380Y-105497047D01*
X91198380Y-105782761D02*
X90198380Y-105782761D01*
X90674571Y-105163714D02*
X90674571Y-104830380D01*
X91198380Y-104687523D02*
X91198380Y-105163714D01*
X90198380Y-105163714D01*
X90198380Y-104687523D01*
X91198380Y-104258952D02*
X90198380Y-104258952D01*
X90198380Y-103878000D01*
X90246000Y-103782761D01*
X90293619Y-103735142D01*
X90388857Y-103687523D01*
X90531714Y-103687523D01*
X90626952Y-103735142D01*
X90674571Y-103782761D01*
X90722190Y-103878000D01*
X90722190Y-104258952D01*
X91198380Y-103258952D02*
X90198380Y-103258952D01*
X90198380Y-102878000D01*
X90246000Y-102782761D01*
X90293619Y-102735142D01*
X90388857Y-102687523D01*
X90531714Y-102687523D01*
X90626952Y-102735142D01*
X90674571Y-102782761D01*
X90722190Y-102878000D01*
X90722190Y-103258952D01*
X90674571Y-102258952D02*
X90674571Y-101925619D01*
X91198380Y-101782761D02*
X91198380Y-102258952D01*
X90198380Y-102258952D01*
X90198380Y-101782761D01*
X91198380Y-100782761D02*
X90722190Y-101116095D01*
X91198380Y-101354190D02*
X90198380Y-101354190D01*
X90198380Y-100973238D01*
X90246000Y-100878000D01*
X90293619Y-100830380D01*
X90388857Y-100782761D01*
X90531714Y-100782761D01*
X90626952Y-100830380D01*
X90674571Y-100878000D01*
X90722190Y-100973238D01*
X90722190Y-101354190D01*
X91150761Y-100401809D02*
X91198380Y-100258952D01*
X91198380Y-100020857D01*
X91150761Y-99925619D01*
X91103142Y-99878000D01*
X91007904Y-99830380D01*
X90912666Y-99830380D01*
X90817428Y-99878000D01*
X90769809Y-99925619D01*
X90722190Y-100020857D01*
X90674571Y-100211333D01*
X90626952Y-100306571D01*
X90579333Y-100354190D01*
X90484095Y-100401809D01*
X90388857Y-100401809D01*
X90293619Y-100354190D01*
X90246000Y-100306571D01*
X90198380Y-100211333D01*
X90198380Y-99973238D01*
X90246000Y-99830380D01*
X79391333Y-90368380D02*
X79391333Y-89368380D01*
X79867523Y-90368380D02*
X79867523Y-89368380D01*
X80438952Y-90368380D01*
X80438952Y-89368380D01*
X80772285Y-89368380D02*
X81343714Y-89368380D01*
X81058000Y-90368380D02*
X81058000Y-89368380D01*
X81677047Y-89844571D02*
X82010380Y-89844571D01*
X82153238Y-90368380D02*
X81677047Y-90368380D01*
X81677047Y-89368380D01*
X82153238Y-89368380D01*
X83153238Y-90368380D02*
X82819904Y-89892190D01*
X82581809Y-90368380D02*
X82581809Y-89368380D01*
X82962761Y-89368380D01*
X83058000Y-89416000D01*
X83105619Y-89463619D01*
X83153238Y-89558857D01*
X83153238Y-89701714D01*
X83105619Y-89796952D01*
X83058000Y-89844571D01*
X82962761Y-89892190D01*
X82581809Y-89892190D01*
X83915142Y-89844571D02*
X83581809Y-89844571D01*
X83581809Y-90368380D02*
X83581809Y-89368380D01*
X84058000Y-89368380D01*
X84391333Y-90082666D02*
X84867523Y-90082666D01*
X84296095Y-90368380D02*
X84629428Y-89368380D01*
X84962761Y-90368380D01*
X85867523Y-90273142D02*
X85819904Y-90320761D01*
X85677047Y-90368380D01*
X85581809Y-90368380D01*
X85438952Y-90320761D01*
X85343714Y-90225523D01*
X85296095Y-90130285D01*
X85248476Y-89939809D01*
X85248476Y-89796952D01*
X85296095Y-89606476D01*
X85343714Y-89511238D01*
X85438952Y-89416000D01*
X85581809Y-89368380D01*
X85677047Y-89368380D01*
X85819904Y-89416000D01*
X85867523Y-89463619D01*
X86296095Y-89844571D02*
X86629428Y-89844571D01*
X86772285Y-90368380D02*
X86296095Y-90368380D01*
X86296095Y-89368380D01*
X86772285Y-89368380D01*
X52824285Y-90368380D02*
X52824285Y-89368380D01*
X53205238Y-89368380D01*
X53300476Y-89416000D01*
X53348095Y-89463619D01*
X53395714Y-89558857D01*
X53395714Y-89701714D01*
X53348095Y-89796952D01*
X53300476Y-89844571D01*
X53205238Y-89892190D01*
X52824285Y-89892190D01*
X54395714Y-90368380D02*
X54062380Y-89892190D01*
X53824285Y-90368380D02*
X53824285Y-89368380D01*
X54205238Y-89368380D01*
X54300476Y-89416000D01*
X54348095Y-89463619D01*
X54395714Y-89558857D01*
X54395714Y-89701714D01*
X54348095Y-89796952D01*
X54300476Y-89844571D01*
X54205238Y-89892190D01*
X53824285Y-89892190D01*
X55014761Y-89368380D02*
X55205238Y-89368380D01*
X55300476Y-89416000D01*
X55395714Y-89511238D01*
X55443333Y-89701714D01*
X55443333Y-90035047D01*
X55395714Y-90225523D01*
X55300476Y-90320761D01*
X55205238Y-90368380D01*
X55014761Y-90368380D01*
X54919523Y-90320761D01*
X54824285Y-90225523D01*
X54776666Y-90035047D01*
X54776666Y-89701714D01*
X54824285Y-89511238D01*
X54919523Y-89416000D01*
X55014761Y-89368380D01*
X56395714Y-89416000D02*
X56300476Y-89368380D01*
X56157619Y-89368380D01*
X56014761Y-89416000D01*
X55919523Y-89511238D01*
X55871904Y-89606476D01*
X55824285Y-89796952D01*
X55824285Y-89939809D01*
X55871904Y-90130285D01*
X55919523Y-90225523D01*
X56014761Y-90320761D01*
X56157619Y-90368380D01*
X56252857Y-90368380D01*
X56395714Y-90320761D01*
X56443333Y-90273142D01*
X56443333Y-89939809D01*
X56252857Y-89939809D01*
X60666380Y-86105904D02*
X60666380Y-85534476D01*
X61666380Y-85820190D02*
X60666380Y-85820190D01*
X60666380Y-85296380D02*
X61666380Y-84629714D01*
X60666380Y-84629714D02*
X61666380Y-85296380D01*
X58872380Y-85510666D02*
X58396190Y-85844000D01*
X58872380Y-86082095D02*
X57872380Y-86082095D01*
X57872380Y-85701142D01*
X57920000Y-85605904D01*
X57967619Y-85558285D01*
X58062857Y-85510666D01*
X58205714Y-85510666D01*
X58300952Y-85558285D01*
X58348571Y-85605904D01*
X58396190Y-85701142D01*
X58396190Y-86082095D01*
X57872380Y-85177333D02*
X58872380Y-84510666D01*
X57872380Y-84510666D02*
X58872380Y-85177333D01*
X56332380Y-86058190D02*
X55332380Y-86058190D01*
X55332380Y-85391523D02*
X55332380Y-85201047D01*
X55380000Y-85105809D01*
X55475238Y-85010571D01*
X55665714Y-84962952D01*
X55999047Y-84962952D01*
X56189523Y-85010571D01*
X56284761Y-85105809D01*
X56332380Y-85201047D01*
X56332380Y-85391523D01*
X56284761Y-85486761D01*
X56189523Y-85582000D01*
X55999047Y-85629619D01*
X55665714Y-85629619D01*
X55475238Y-85582000D01*
X55380000Y-85486761D01*
X55332380Y-85391523D01*
X56332380Y-84010571D02*
X56332380Y-84582000D01*
X56332380Y-84296285D02*
X55332380Y-84296285D01*
X55475238Y-84391523D01*
X55570476Y-84486761D01*
X55618095Y-84582000D01*
X55332380Y-83105809D02*
X55332380Y-83582000D01*
X55808571Y-83629619D01*
X55760952Y-83582000D01*
X55713333Y-83486761D01*
X55713333Y-83248666D01*
X55760952Y-83153428D01*
X55808571Y-83105809D01*
X55903809Y-83058190D01*
X56141904Y-83058190D01*
X56237142Y-83105809D01*
X56284761Y-83153428D01*
X56332380Y-83248666D01*
X56332380Y-83486761D01*
X56284761Y-83582000D01*
X56237142Y-83629619D01*
X53792380Y-86090000D02*
X52792380Y-86090000D01*
X52792380Y-85423333D02*
X52792380Y-85232857D01*
X52840000Y-85137619D01*
X52935238Y-85042380D01*
X53125714Y-84994761D01*
X53459047Y-84994761D01*
X53649523Y-85042380D01*
X53744761Y-85137619D01*
X53792380Y-85232857D01*
X53792380Y-85423333D01*
X53744761Y-85518571D01*
X53649523Y-85613809D01*
X53459047Y-85661428D01*
X53125714Y-85661428D01*
X52935238Y-85613809D01*
X52840000Y-85518571D01*
X52792380Y-85423333D01*
X52792380Y-84375714D02*
X52792380Y-84280476D01*
X52840000Y-84185238D01*
X52887619Y-84137619D01*
X52982857Y-84090000D01*
X53173333Y-84042380D01*
X53411428Y-84042380D01*
X53601904Y-84090000D01*
X53697142Y-84137619D01*
X53744761Y-84185238D01*
X53792380Y-84280476D01*
X53792380Y-84375714D01*
X53744761Y-84470952D01*
X53697142Y-84518571D01*
X53601904Y-84566190D01*
X53411428Y-84613809D01*
X53173333Y-84613809D01*
X52982857Y-84566190D01*
X52887619Y-84518571D01*
X52840000Y-84470952D01*
X52792380Y-84375714D01*
X50728571Y-86082095D02*
X50728571Y-85748761D01*
X51252380Y-85605904D02*
X51252380Y-86082095D01*
X50252380Y-86082095D01*
X50252380Y-85605904D01*
X51252380Y-85177333D02*
X50252380Y-85177333D01*
X51252380Y-84605904D01*
X50252380Y-84605904D01*
X48712380Y-85637619D02*
X48236190Y-85970952D01*
X48712380Y-86209047D02*
X47712380Y-86209047D01*
X47712380Y-85828095D01*
X47760000Y-85732857D01*
X47807619Y-85685238D01*
X47902857Y-85637619D01*
X48045714Y-85637619D01*
X48140952Y-85685238D01*
X48188571Y-85732857D01*
X48236190Y-85828095D01*
X48236190Y-86209047D01*
X48664761Y-85256666D02*
X48712380Y-85113809D01*
X48712380Y-84875714D01*
X48664761Y-84780476D01*
X48617142Y-84732857D01*
X48521904Y-84685238D01*
X48426666Y-84685238D01*
X48331428Y-84732857D01*
X48283809Y-84780476D01*
X48236190Y-84875714D01*
X48188571Y-85066190D01*
X48140952Y-85161428D01*
X48093333Y-85209047D01*
X47998095Y-85256666D01*
X47902857Y-85256666D01*
X47807619Y-85209047D01*
X47760000Y-85161428D01*
X47712380Y-85066190D01*
X47712380Y-84828095D01*
X47760000Y-84685238D01*
X47712380Y-84399523D02*
X47712380Y-83828095D01*
X48712380Y-84113809D02*
X47712380Y-84113809D01*
X40703523Y-126198380D02*
X40227333Y-126198380D01*
X40179714Y-126674571D01*
X40227333Y-126626952D01*
X40322571Y-126579333D01*
X40560666Y-126579333D01*
X40655904Y-126626952D01*
X40703523Y-126674571D01*
X40751142Y-126769809D01*
X40751142Y-127007904D01*
X40703523Y-127103142D01*
X40655904Y-127150761D01*
X40560666Y-127198380D01*
X40322571Y-127198380D01*
X40227333Y-127150761D01*
X40179714Y-127103142D01*
X41036857Y-126198380D02*
X41370190Y-127198380D01*
X41703523Y-126198380D01*
X40108285Y-124404380D02*
X40108285Y-123404380D01*
X40679714Y-124404380D01*
X40679714Y-123404380D01*
X41727333Y-124309142D02*
X41679714Y-124356761D01*
X41536857Y-124404380D01*
X41441619Y-124404380D01*
X41298761Y-124356761D01*
X41203523Y-124261523D01*
X41155904Y-124166285D01*
X41108285Y-123975809D01*
X41108285Y-123832952D01*
X41155904Y-123642476D01*
X41203523Y-123547238D01*
X41298761Y-123452000D01*
X41441619Y-123404380D01*
X41536857Y-123404380D01*
X41679714Y-123452000D01*
X41727333Y-123499619D01*
X40108285Y-121864380D02*
X40108285Y-120864380D01*
X40679714Y-121864380D01*
X40679714Y-120864380D01*
X41727333Y-121769142D02*
X41679714Y-121816761D01*
X41536857Y-121864380D01*
X41441619Y-121864380D01*
X41298761Y-121816761D01*
X41203523Y-121721523D01*
X41155904Y-121626285D01*
X41108285Y-121435809D01*
X41108285Y-121292952D01*
X41155904Y-121102476D01*
X41203523Y-121007238D01*
X41298761Y-120912000D01*
X41441619Y-120864380D01*
X41536857Y-120864380D01*
X41679714Y-120912000D01*
X41727333Y-120959619D01*
X40108285Y-119324380D02*
X40108285Y-118324380D01*
X40679714Y-119324380D01*
X40679714Y-118324380D01*
X41727333Y-119229142D02*
X41679714Y-119276761D01*
X41536857Y-119324380D01*
X41441619Y-119324380D01*
X41298761Y-119276761D01*
X41203523Y-119181523D01*
X41155904Y-119086285D01*
X41108285Y-118895809D01*
X41108285Y-118752952D01*
X41155904Y-118562476D01*
X41203523Y-118467238D01*
X41298761Y-118372000D01*
X41441619Y-118324380D01*
X41536857Y-118324380D01*
X41679714Y-118372000D01*
X41727333Y-118419619D01*
X39878095Y-115832000D02*
X39782857Y-115784380D01*
X39640000Y-115784380D01*
X39497142Y-115832000D01*
X39401904Y-115927238D01*
X39354285Y-116022476D01*
X39306666Y-116212952D01*
X39306666Y-116355809D01*
X39354285Y-116546285D01*
X39401904Y-116641523D01*
X39497142Y-116736761D01*
X39640000Y-116784380D01*
X39735238Y-116784380D01*
X39878095Y-116736761D01*
X39925714Y-116689142D01*
X39925714Y-116355809D01*
X39735238Y-116355809D01*
X40354285Y-116784380D02*
X40354285Y-115784380D01*
X40925714Y-116784380D01*
X40925714Y-115784380D01*
X41401904Y-116784380D02*
X41401904Y-115784380D01*
X41640000Y-115784380D01*
X41782857Y-115832000D01*
X41878095Y-115927238D01*
X41925714Y-116022476D01*
X41973333Y-116212952D01*
X41973333Y-116355809D01*
X41925714Y-116546285D01*
X41878095Y-116641523D01*
X41782857Y-116736761D01*
X41640000Y-116784380D01*
X41401904Y-116784380D01*
X93480000Y-124713904D02*
X93432380Y-124809142D01*
X93432380Y-124952000D01*
X93480000Y-125094857D01*
X93575238Y-125190095D01*
X93670476Y-125237714D01*
X93860952Y-125285333D01*
X94003809Y-125285333D01*
X94194285Y-125237714D01*
X94289523Y-125190095D01*
X94384761Y-125094857D01*
X94432380Y-124952000D01*
X94432380Y-124856761D01*
X94384761Y-124713904D01*
X94337142Y-124666285D01*
X94003809Y-124666285D01*
X94003809Y-124856761D01*
X94432380Y-124237714D02*
X93432380Y-124237714D01*
X94432380Y-123666285D01*
X93432380Y-123666285D01*
X94432380Y-123190095D02*
X93432380Y-123190095D01*
X93432380Y-122952000D01*
X93480000Y-122809142D01*
X93575238Y-122713904D01*
X93670476Y-122666285D01*
X93860952Y-122618666D01*
X94003809Y-122618666D01*
X94194285Y-122666285D01*
X94289523Y-122713904D01*
X94384761Y-122809142D01*
X94432380Y-122952000D01*
X94432380Y-123190095D01*
X90892380Y-125205904D02*
X91892380Y-124872571D01*
X90892380Y-124539238D01*
X90892380Y-124015428D02*
X90892380Y-123824952D01*
X90940000Y-123729714D01*
X91035238Y-123634476D01*
X91225714Y-123586857D01*
X91559047Y-123586857D01*
X91749523Y-123634476D01*
X91844761Y-123729714D01*
X91892380Y-123824952D01*
X91892380Y-124015428D01*
X91844761Y-124110666D01*
X91749523Y-124205904D01*
X91559047Y-124253523D01*
X91225714Y-124253523D01*
X91035238Y-124205904D01*
X90940000Y-124110666D01*
X90892380Y-124015428D01*
X90892380Y-123158285D02*
X91701904Y-123158285D01*
X91797142Y-123110666D01*
X91844761Y-123063047D01*
X91892380Y-122967809D01*
X91892380Y-122777333D01*
X91844761Y-122682095D01*
X91797142Y-122634476D01*
X91701904Y-122586857D01*
X90892380Y-122586857D01*
X90892380Y-122253523D02*
X90892380Y-121682095D01*
X91892380Y-121967809D02*
X90892380Y-121967809D01*
X88352380Y-125190095D02*
X88352380Y-124571047D01*
X88733333Y-124904380D01*
X88733333Y-124761523D01*
X88780952Y-124666285D01*
X88828571Y-124618666D01*
X88923809Y-124571047D01*
X89161904Y-124571047D01*
X89257142Y-124618666D01*
X89304761Y-124666285D01*
X89352380Y-124761523D01*
X89352380Y-125047238D01*
X89304761Y-125142476D01*
X89257142Y-125190095D01*
X88352380Y-124285333D02*
X89352380Y-123952000D01*
X88352380Y-123618666D01*
X88352380Y-123380571D02*
X88352380Y-122761523D01*
X88733333Y-123094857D01*
X88733333Y-122952000D01*
X88780952Y-122856761D01*
X88828571Y-122809142D01*
X88923809Y-122761523D01*
X89161904Y-122761523D01*
X89257142Y-122809142D01*
X89304761Y-122856761D01*
X89352380Y-122952000D01*
X89352380Y-123237714D01*
X89304761Y-123332952D01*
X89257142Y-123380571D01*
X95258000Y-85343904D02*
X95210380Y-85439142D01*
X95210380Y-85582000D01*
X95258000Y-85724857D01*
X95353238Y-85820095D01*
X95448476Y-85867714D01*
X95638952Y-85915333D01*
X95781809Y-85915333D01*
X95972285Y-85867714D01*
X96067523Y-85820095D01*
X96162761Y-85724857D01*
X96210380Y-85582000D01*
X96210380Y-85486761D01*
X96162761Y-85343904D01*
X96115142Y-85296285D01*
X95781809Y-85296285D01*
X95781809Y-85486761D01*
X96210380Y-84867714D02*
X95210380Y-84867714D01*
X96210380Y-84296285D01*
X95210380Y-84296285D01*
X96210380Y-83820095D02*
X95210380Y-83820095D01*
X95210380Y-83582000D01*
X95258000Y-83439142D01*
X95353238Y-83343904D01*
X95448476Y-83296285D01*
X95638952Y-83248666D01*
X95781809Y-83248666D01*
X95972285Y-83296285D01*
X96067523Y-83343904D01*
X96162761Y-83439142D01*
X96210380Y-83582000D01*
X96210380Y-83820095D01*
X93670380Y-86018476D02*
X92670380Y-86018476D01*
X92670380Y-85637523D01*
X92718000Y-85542285D01*
X92765619Y-85494666D01*
X92860857Y-85447047D01*
X93003714Y-85447047D01*
X93098952Y-85494666D01*
X93146571Y-85542285D01*
X93194190Y-85637523D01*
X93194190Y-86018476D01*
X93670380Y-85018476D02*
X92670380Y-85018476D01*
X93146571Y-85018476D02*
X93146571Y-84447047D01*
X93670380Y-84447047D02*
X92670380Y-84447047D01*
X92670380Y-83780380D02*
X92670380Y-83589904D01*
X92718000Y-83494666D01*
X92813238Y-83399428D01*
X93003714Y-83351809D01*
X93337047Y-83351809D01*
X93527523Y-83399428D01*
X93622761Y-83494666D01*
X93670380Y-83589904D01*
X93670380Y-83780380D01*
X93622761Y-83875619D01*
X93527523Y-83970857D01*
X93337047Y-84018476D01*
X93003714Y-84018476D01*
X92813238Y-83970857D01*
X92718000Y-83875619D01*
X92670380Y-83780380D01*
X92670380Y-83066095D02*
X92670380Y-82494666D01*
X93670380Y-82780380D02*
X92670380Y-82780380D01*
X90606571Y-85669333D02*
X90654190Y-85526476D01*
X90701809Y-85478857D01*
X90797047Y-85431238D01*
X90939904Y-85431238D01*
X91035142Y-85478857D01*
X91082761Y-85526476D01*
X91130380Y-85621714D01*
X91130380Y-86002666D01*
X90130380Y-86002666D01*
X90130380Y-85669333D01*
X90178000Y-85574095D01*
X90225619Y-85526476D01*
X90320857Y-85478857D01*
X90416095Y-85478857D01*
X90511333Y-85526476D01*
X90558952Y-85574095D01*
X90606571Y-85669333D01*
X90606571Y-86002666D01*
X90130380Y-85145523D02*
X90130380Y-84574095D01*
X91130380Y-84859809D02*
X90130380Y-84859809D01*
X91130380Y-84240761D02*
X90130380Y-84240761D01*
X91130380Y-83669333D01*
X90130380Y-83669333D01*
X88590380Y-85399428D02*
X88114190Y-85732761D01*
X88590380Y-85970857D02*
X87590380Y-85970857D01*
X87590380Y-85589904D01*
X87638000Y-85494666D01*
X87685619Y-85447047D01*
X87780857Y-85399428D01*
X87923714Y-85399428D01*
X88018952Y-85447047D01*
X88066571Y-85494666D01*
X88114190Y-85589904D01*
X88114190Y-85970857D01*
X87590380Y-84780380D02*
X87590380Y-84589904D01*
X87638000Y-84494666D01*
X87733238Y-84399428D01*
X87923714Y-84351809D01*
X88257047Y-84351809D01*
X88447523Y-84399428D01*
X88542761Y-84494666D01*
X88590380Y-84589904D01*
X88590380Y-84780380D01*
X88542761Y-84875619D01*
X88447523Y-84970857D01*
X88257047Y-85018476D01*
X87923714Y-85018476D01*
X87733238Y-84970857D01*
X87638000Y-84875619D01*
X87590380Y-84780380D01*
X87590380Y-84066095D02*
X87590380Y-83494666D01*
X88590380Y-83780380D02*
X87590380Y-83780380D01*
X88590380Y-82637523D02*
X88590380Y-83208952D01*
X88590380Y-82923238D02*
X87590380Y-82923238D01*
X87733238Y-83018476D01*
X87828476Y-83113714D01*
X87876095Y-83208952D01*
X86050380Y-85399428D02*
X85574190Y-85732761D01*
X86050380Y-85970857D02*
X85050380Y-85970857D01*
X85050380Y-85589904D01*
X85098000Y-85494666D01*
X85145619Y-85447047D01*
X85240857Y-85399428D01*
X85383714Y-85399428D01*
X85478952Y-85447047D01*
X85526571Y-85494666D01*
X85574190Y-85589904D01*
X85574190Y-85970857D01*
X85050380Y-84780380D02*
X85050380Y-84589904D01*
X85098000Y-84494666D01*
X85193238Y-84399428D01*
X85383714Y-84351809D01*
X85717047Y-84351809D01*
X85907523Y-84399428D01*
X86002761Y-84494666D01*
X86050380Y-84589904D01*
X86050380Y-84780380D01*
X86002761Y-84875619D01*
X85907523Y-84970857D01*
X85717047Y-85018476D01*
X85383714Y-85018476D01*
X85193238Y-84970857D01*
X85098000Y-84875619D01*
X85050380Y-84780380D01*
X85050380Y-84066095D02*
X85050380Y-83494666D01*
X86050380Y-83780380D02*
X85050380Y-83780380D01*
X85145619Y-83208952D02*
X85098000Y-83161333D01*
X85050380Y-83066095D01*
X85050380Y-82828000D01*
X85098000Y-82732761D01*
X85145619Y-82685142D01*
X85240857Y-82637523D01*
X85336095Y-82637523D01*
X85478952Y-82685142D01*
X86050380Y-83256571D01*
X86050380Y-82637523D01*
X83510380Y-85399428D02*
X83034190Y-85732761D01*
X83510380Y-85970857D02*
X82510380Y-85970857D01*
X82510380Y-85589904D01*
X82558000Y-85494666D01*
X82605619Y-85447047D01*
X82700857Y-85399428D01*
X82843714Y-85399428D01*
X82938952Y-85447047D01*
X82986571Y-85494666D01*
X83034190Y-85589904D01*
X83034190Y-85970857D01*
X82510380Y-84780380D02*
X82510380Y-84589904D01*
X82558000Y-84494666D01*
X82653238Y-84399428D01*
X82843714Y-84351809D01*
X83177047Y-84351809D01*
X83367523Y-84399428D01*
X83462761Y-84494666D01*
X83510380Y-84589904D01*
X83510380Y-84780380D01*
X83462761Y-84875619D01*
X83367523Y-84970857D01*
X83177047Y-85018476D01*
X82843714Y-85018476D01*
X82653238Y-84970857D01*
X82558000Y-84875619D01*
X82510380Y-84780380D01*
X82510380Y-84066095D02*
X82510380Y-83494666D01*
X83510380Y-83780380D02*
X82510380Y-83780380D01*
X82843714Y-82732761D02*
X83510380Y-82732761D01*
X82462761Y-82970857D02*
X83177047Y-83208952D01*
X83177047Y-82589904D01*
X80970380Y-85399428D02*
X80494190Y-85732761D01*
X80970380Y-85970857D02*
X79970380Y-85970857D01*
X79970380Y-85589904D01*
X80018000Y-85494666D01*
X80065619Y-85447047D01*
X80160857Y-85399428D01*
X80303714Y-85399428D01*
X80398952Y-85447047D01*
X80446571Y-85494666D01*
X80494190Y-85589904D01*
X80494190Y-85970857D01*
X79970380Y-84780380D02*
X79970380Y-84589904D01*
X80018000Y-84494666D01*
X80113238Y-84399428D01*
X80303714Y-84351809D01*
X80637047Y-84351809D01*
X80827523Y-84399428D01*
X80922761Y-84494666D01*
X80970380Y-84589904D01*
X80970380Y-84780380D01*
X80922761Y-84875619D01*
X80827523Y-84970857D01*
X80637047Y-85018476D01*
X80303714Y-85018476D01*
X80113238Y-84970857D01*
X80018000Y-84875619D01*
X79970380Y-84780380D01*
X79970380Y-84066095D02*
X79970380Y-83494666D01*
X80970380Y-83780380D02*
X79970380Y-83780380D01*
X80398952Y-83018476D02*
X80351333Y-83113714D01*
X80303714Y-83161333D01*
X80208476Y-83208952D01*
X80160857Y-83208952D01*
X80065619Y-83161333D01*
X80018000Y-83113714D01*
X79970380Y-83018476D01*
X79970380Y-82828000D01*
X80018000Y-82732761D01*
X80065619Y-82685142D01*
X80160857Y-82637523D01*
X80208476Y-82637523D01*
X80303714Y-82685142D01*
X80351333Y-82732761D01*
X80398952Y-82828000D01*
X80398952Y-83018476D01*
X80446571Y-83113714D01*
X80494190Y-83161333D01*
X80589428Y-83208952D01*
X80779904Y-83208952D01*
X80875142Y-83161333D01*
X80922761Y-83113714D01*
X80970380Y-83018476D01*
X80970380Y-82828000D01*
X80922761Y-82732761D01*
X80875142Y-82685142D01*
X80779904Y-82637523D01*
X80589428Y-82637523D01*
X80494190Y-82685142D01*
X80446571Y-82732761D01*
X80398952Y-82828000D01*
X78382761Y-86026476D02*
X78430380Y-85883619D01*
X78430380Y-85645523D01*
X78382761Y-85550285D01*
X78335142Y-85502666D01*
X78239904Y-85455047D01*
X78144666Y-85455047D01*
X78049428Y-85502666D01*
X78001809Y-85550285D01*
X77954190Y-85645523D01*
X77906571Y-85836000D01*
X77858952Y-85931238D01*
X77811333Y-85978857D01*
X77716095Y-86026476D01*
X77620857Y-86026476D01*
X77525619Y-85978857D01*
X77478000Y-85931238D01*
X77430380Y-85836000D01*
X77430380Y-85597904D01*
X77478000Y-85455047D01*
X78335142Y-84455047D02*
X78382761Y-84502666D01*
X78430380Y-84645523D01*
X78430380Y-84740761D01*
X78382761Y-84883619D01*
X78287523Y-84978857D01*
X78192285Y-85026476D01*
X78001809Y-85074095D01*
X77858952Y-85074095D01*
X77668476Y-85026476D01*
X77573238Y-84978857D01*
X77478000Y-84883619D01*
X77430380Y-84740761D01*
X77430380Y-84645523D01*
X77478000Y-84502666D01*
X77525619Y-84455047D01*
X78430380Y-83550285D02*
X78430380Y-84026476D01*
X77430380Y-84026476D01*
X75842761Y-86050285D02*
X75890380Y-85907428D01*
X75890380Y-85669333D01*
X75842761Y-85574095D01*
X75795142Y-85526476D01*
X75699904Y-85478857D01*
X75604666Y-85478857D01*
X75509428Y-85526476D01*
X75461809Y-85574095D01*
X75414190Y-85669333D01*
X75366571Y-85859809D01*
X75318952Y-85955047D01*
X75271333Y-86002666D01*
X75176095Y-86050285D01*
X75080857Y-86050285D01*
X74985619Y-86002666D01*
X74938000Y-85955047D01*
X74890380Y-85859809D01*
X74890380Y-85621714D01*
X74938000Y-85478857D01*
X75890380Y-85050285D02*
X74890380Y-85050285D01*
X74890380Y-84812190D01*
X74938000Y-84669333D01*
X75033238Y-84574095D01*
X75128476Y-84526476D01*
X75318952Y-84478857D01*
X75461809Y-84478857D01*
X75652285Y-84526476D01*
X75747523Y-84574095D01*
X75842761Y-84669333D01*
X75890380Y-84812190D01*
X75890380Y-85050285D01*
X75604666Y-84097904D02*
X75604666Y-83621714D01*
X75890380Y-84193142D02*
X74890380Y-83859809D01*
X75890380Y-83526476D01*
X72350380Y-86074095D02*
X72350380Y-85455047D01*
X72731333Y-85788380D01*
X72731333Y-85645523D01*
X72778952Y-85550285D01*
X72826571Y-85502666D01*
X72921809Y-85455047D01*
X73159904Y-85455047D01*
X73255142Y-85502666D01*
X73302761Y-85550285D01*
X73350380Y-85645523D01*
X73350380Y-85931238D01*
X73302761Y-86026476D01*
X73255142Y-86074095D01*
X72350380Y-85169333D02*
X73350380Y-84836000D01*
X72350380Y-84502666D01*
X72350380Y-84264571D02*
X72350380Y-83645523D01*
X72731333Y-83978857D01*
X72731333Y-83836000D01*
X72778952Y-83740761D01*
X72826571Y-83693142D01*
X72921809Y-83645523D01*
X73159904Y-83645523D01*
X73255142Y-83693142D01*
X73302761Y-83740761D01*
X73350380Y-83836000D01*
X73350380Y-84121714D01*
X73302761Y-84216952D01*
X73255142Y-84264571D01*
%TO.C,U3*%
X74930000Y-93810000D02*
X71070000Y-93810000D01*
X71070000Y-93810000D02*
X71070000Y-94055000D01*
X74930000Y-93810000D02*
X78790000Y-93810000D01*
X78790000Y-93810000D02*
X78790000Y-94055000D01*
X74930000Y-111930000D02*
X71070000Y-111930000D01*
X71070000Y-111930000D02*
X71070000Y-111685000D01*
X74930000Y-111930000D02*
X78790000Y-111930000D01*
X78790000Y-111930000D02*
X78790000Y-111685000D01*
X78790000Y-111685000D02*
X80605000Y-111685000D01*
%TO.C,J6*%
X98886000Y-111018000D02*
X104856000Y-111018000D01*
X104856000Y-111018000D02*
X104856000Y-95898000D01*
X104856000Y-95898000D02*
X98886000Y-95898000D01*
X98886000Y-95898000D02*
X98886000Y-111018000D01*
X98896000Y-107708000D02*
X99646000Y-107708000D01*
X99646000Y-107708000D02*
X99646000Y-99208000D01*
X99646000Y-99208000D02*
X98896000Y-99208000D01*
X98896000Y-99208000D02*
X98896000Y-107708000D01*
X98896000Y-111008000D02*
X99646000Y-111008000D01*
X99646000Y-111008000D02*
X99646000Y-109208000D01*
X99646000Y-109208000D02*
X98896000Y-109208000D01*
X98896000Y-109208000D02*
X98896000Y-111008000D01*
X98896000Y-97708000D02*
X99646000Y-97708000D01*
X99646000Y-97708000D02*
X99646000Y-95908000D01*
X99646000Y-95908000D02*
X98896000Y-95908000D01*
X98896000Y-95908000D02*
X98896000Y-97708000D01*
X101146000Y-111008000D02*
X101146000Y-110258000D01*
X101146000Y-110258000D02*
X104096000Y-110258000D01*
X104096000Y-110258000D02*
X104096000Y-103458000D01*
X101146000Y-95908000D02*
X101146000Y-96658000D01*
X101146000Y-96658000D02*
X104096000Y-96658000D01*
X104096000Y-96658000D02*
X104096000Y-103458000D01*
X98596000Y-110058000D02*
X98596000Y-111308000D01*
X98596000Y-111308000D02*
X99846000Y-111308000D01*
%TO.C,J5*%
X92028000Y-111018000D02*
X97998000Y-111018000D01*
X97998000Y-111018000D02*
X97998000Y-95898000D01*
X97998000Y-95898000D02*
X92028000Y-95898000D01*
X92028000Y-95898000D02*
X92028000Y-111018000D01*
X92038000Y-107708000D02*
X92788000Y-107708000D01*
X92788000Y-107708000D02*
X92788000Y-99208000D01*
X92788000Y-99208000D02*
X92038000Y-99208000D01*
X92038000Y-99208000D02*
X92038000Y-107708000D01*
X92038000Y-111008000D02*
X92788000Y-111008000D01*
X92788000Y-111008000D02*
X92788000Y-109208000D01*
X92788000Y-109208000D02*
X92038000Y-109208000D01*
X92038000Y-109208000D02*
X92038000Y-111008000D01*
X92038000Y-97708000D02*
X92788000Y-97708000D01*
X92788000Y-97708000D02*
X92788000Y-95908000D01*
X92788000Y-95908000D02*
X92038000Y-95908000D01*
X92038000Y-95908000D02*
X92038000Y-97708000D01*
X94288000Y-111008000D02*
X94288000Y-110258000D01*
X94288000Y-110258000D02*
X97238000Y-110258000D01*
X97238000Y-110258000D02*
X97238000Y-103458000D01*
X94288000Y-95908000D02*
X94288000Y-96658000D01*
X94288000Y-96658000D02*
X97238000Y-96658000D01*
X97238000Y-96658000D02*
X97238000Y-103458000D01*
X91738000Y-110058000D02*
X91738000Y-111308000D01*
X91738000Y-111308000D02*
X92988000Y-111308000D01*
%TO.C,U1*%
X38680000Y-110990000D02*
X38680000Y-94750000D01*
X38680000Y-94750000D02*
X46300000Y-94750000D01*
X62300000Y-94750000D02*
X62920000Y-94750000D01*
X62920000Y-94750000D02*
X62920000Y-96870000D01*
X62920000Y-108870000D02*
X62920000Y-110990000D01*
X62920000Y-110990000D02*
X62300000Y-110990000D01*
X46300000Y-110990000D02*
X38680000Y-110990000D01*
X46300000Y-110990000D02*
X46300000Y-111600000D01*
%TO.C,R1*%
X55091064Y-116051000D02*
X54636936Y-116051000D01*
X55091064Y-114581000D02*
X54636936Y-114581000D01*
%TO.C,J1*%
X42612000Y-116840000D02*
X45272000Y-116840000D01*
X42612000Y-116840000D02*
X42612000Y-127060000D01*
X42612000Y-127060000D02*
X45272000Y-127060000D01*
X45272000Y-116840000D02*
X45272000Y-127060000D01*
X45272000Y-114240000D02*
X45272000Y-115570000D01*
X43942000Y-114240000D02*
X45272000Y-114240000D01*
%TO.C,U2*%
X52460000Y-120430000D02*
X52460000Y-121740000D01*
X52460000Y-121740000D02*
X49740000Y-121740000D01*
X48600000Y-117250000D02*
X49740000Y-117250000D01*
X52460000Y-117020000D02*
X52460000Y-118330000D01*
X49740000Y-117020000D02*
X52460000Y-117020000D01*
X49740000Y-117020000D02*
X49740000Y-117250000D01*
X49740000Y-121740000D02*
X49740000Y-121510000D01*
%TO.C,J4*%
X87570000Y-125670000D02*
X87570000Y-128330000D01*
X92710000Y-125670000D02*
X87570000Y-125670000D01*
X92710000Y-128330000D02*
X87570000Y-128330000D01*
X92710000Y-125670000D02*
X92710000Y-128330000D01*
X93980000Y-125670000D02*
X95310000Y-125670000D01*
X95310000Y-125670000D02*
X95310000Y-127000000D01*
%TO.C,J3*%
X71568000Y-86300000D02*
X71568000Y-88960000D01*
X94488000Y-86300000D02*
X71568000Y-86300000D01*
X94488000Y-88960000D02*
X71568000Y-88960000D01*
X94488000Y-86300000D02*
X94488000Y-88960000D01*
X95758000Y-86300000D02*
X97088000Y-86300000D01*
X97088000Y-86300000D02*
X97088000Y-87630000D01*
%TO.C,J2*%
X62290000Y-88960000D02*
X62290000Y-86300000D01*
X49530000Y-88960000D02*
X62290000Y-88960000D01*
X49530000Y-86300000D02*
X62290000Y-86300000D01*
X49530000Y-88960000D02*
X49530000Y-86300000D01*
X48260000Y-88960000D02*
X46930000Y-88960000D01*
X46930000Y-88960000D02*
X46930000Y-87630000D01*
%TO.C,R2*%
X65812936Y-90705000D02*
X66267064Y-90705000D01*
X65812936Y-92175000D02*
X66267064Y-92175000D01*
%TO.C,C2*%
X57885000Y-119408752D02*
X57885000Y-118886248D01*
X56415000Y-119408752D02*
X56415000Y-118886248D01*
%TO.C,C1*%
X49014748Y-126465000D02*
X49537252Y-126465000D01*
X49014748Y-124995000D02*
X49537252Y-124995000D01*
%TO.C, *%
%TO.C,U3*%
X74168095Y-112222380D02*
X74168095Y-113031904D01*
X74215714Y-113127142D01*
X74263333Y-113174761D01*
X74358571Y-113222380D01*
X74549047Y-113222380D01*
X74644285Y-113174761D01*
X74691904Y-113127142D01*
X74739523Y-113031904D01*
X74739523Y-112222380D01*
X75120476Y-112222380D02*
X75739523Y-112222380D01*
X75406190Y-112603333D01*
X75549047Y-112603333D01*
X75644285Y-112650952D01*
X75691904Y-112698571D01*
X75739523Y-112793809D01*
X75739523Y-113031904D01*
X75691904Y-113127142D01*
X75644285Y-113174761D01*
X75549047Y-113222380D01*
X75263333Y-113222380D01*
X75168095Y-113174761D01*
X75120476Y-113127142D01*
%TO.C,J6*%
X98766380Y-112855333D02*
X99480666Y-112855333D01*
X99623523Y-112902952D01*
X99718761Y-112998190D01*
X99766380Y-113141047D01*
X99766380Y-113236285D01*
X98766380Y-111950571D02*
X98766380Y-112141047D01*
X98814000Y-112236285D01*
X98861619Y-112283904D01*
X99004476Y-112379142D01*
X99194952Y-112426761D01*
X99575904Y-112426761D01*
X99671142Y-112379142D01*
X99718761Y-112331523D01*
X99766380Y-112236285D01*
X99766380Y-112045809D01*
X99718761Y-111950571D01*
X99671142Y-111902952D01*
X99575904Y-111855333D01*
X99337809Y-111855333D01*
X99242571Y-111902952D01*
X99194952Y-111950571D01*
X99147333Y-112045809D01*
X99147333Y-112236285D01*
X99194952Y-112331523D01*
X99242571Y-112379142D01*
X99337809Y-112426761D01*
%TO.C,J5*%
X91908380Y-112855333D02*
X92622666Y-112855333D01*
X92765523Y-112902952D01*
X92860761Y-112998190D01*
X92908380Y-113141047D01*
X92908380Y-113236285D01*
X91908380Y-111902952D02*
X91908380Y-112379142D01*
X92384571Y-112426761D01*
X92336952Y-112379142D01*
X92289333Y-112283904D01*
X92289333Y-112045809D01*
X92336952Y-111950571D01*
X92384571Y-111902952D01*
X92479809Y-111855333D01*
X92717904Y-111855333D01*
X92813142Y-111902952D01*
X92860761Y-111950571D01*
X92908380Y-112045809D01*
X92908380Y-112283904D01*
X92860761Y-112379142D01*
X92813142Y-112426761D01*
%TO.C,U1*%
X37298380Y-103123904D02*
X38107904Y-103123904D01*
X38203142Y-103076285D01*
X38250761Y-103028666D01*
X38298380Y-102933428D01*
X38298380Y-102742952D01*
X38250761Y-102647714D01*
X38203142Y-102600095D01*
X38107904Y-102552476D01*
X37298380Y-102552476D01*
X38298380Y-101552476D02*
X38298380Y-102123904D01*
X38298380Y-101838190D02*
X37298380Y-101838190D01*
X37441238Y-101933428D01*
X37536476Y-102028666D01*
X37584095Y-102123904D01*
%TO.C,R1*%
X54697333Y-117418380D02*
X54364000Y-116942190D01*
X54125904Y-117418380D02*
X54125904Y-116418380D01*
X54506857Y-116418380D01*
X54602095Y-116466000D01*
X54649714Y-116513619D01*
X54697333Y-116608857D01*
X54697333Y-116751714D01*
X54649714Y-116846952D01*
X54602095Y-116894571D01*
X54506857Y-116942190D01*
X54125904Y-116942190D01*
X55649714Y-117418380D02*
X55078285Y-117418380D01*
X55364000Y-117418380D02*
X55364000Y-116418380D01*
X55268761Y-116561238D01*
X55173523Y-116656476D01*
X55078285Y-116704095D01*
%TO.C,J1*%
X45934380Y-115395333D02*
X46648666Y-115395333D01*
X46791523Y-115442952D01*
X46886761Y-115538190D01*
X46934380Y-115681047D01*
X46934380Y-115776285D01*
X46934380Y-114395333D02*
X46934380Y-114966761D01*
X46934380Y-114681047D02*
X45934380Y-114681047D01*
X46077238Y-114776285D01*
X46172476Y-114871523D01*
X46220095Y-114966761D01*
%TO.C,U2*%
X50338095Y-115332380D02*
X50338095Y-116141904D01*
X50385714Y-116237142D01*
X50433333Y-116284761D01*
X50528571Y-116332380D01*
X50719047Y-116332380D01*
X50814285Y-116284761D01*
X50861904Y-116237142D01*
X50909523Y-116141904D01*
X50909523Y-115332380D01*
X51338095Y-115427619D02*
X51385714Y-115380000D01*
X51480952Y-115332380D01*
X51719047Y-115332380D01*
X51814285Y-115380000D01*
X51861904Y-115427619D01*
X51909523Y-115522857D01*
X51909523Y-115618095D01*
X51861904Y-115760952D01*
X51290476Y-116332380D01*
X51909523Y-116332380D01*
%TO.C,J4*%
X95762380Y-127333333D02*
X96476666Y-127333333D01*
X96619523Y-127380952D01*
X96714761Y-127476190D01*
X96762380Y-127619047D01*
X96762380Y-127714285D01*
X96095714Y-126428571D02*
X96762380Y-126428571D01*
X95714761Y-126666666D02*
X96429047Y-126904761D01*
X96429047Y-126285714D01*
%TO.C,J3*%
X97540380Y-87963333D02*
X98254666Y-87963333D01*
X98397523Y-88010952D01*
X98492761Y-88106190D01*
X98540380Y-88249047D01*
X98540380Y-88344285D01*
X97540380Y-87582380D02*
X97540380Y-86963333D01*
X97921333Y-87296666D01*
X97921333Y-87153809D01*
X97968952Y-87058571D01*
X98016571Y-87010952D01*
X98111809Y-86963333D01*
X98349904Y-86963333D01*
X98445142Y-87010952D01*
X98492761Y-87058571D01*
X98540380Y-87153809D01*
X98540380Y-87439523D01*
X98492761Y-87534761D01*
X98445142Y-87582380D01*
%TO.C,J2*%
X45382380Y-87963333D02*
X46096666Y-87963333D01*
X46239523Y-88010952D01*
X46334761Y-88106190D01*
X46382380Y-88249047D01*
X46382380Y-88344285D01*
X45477619Y-87534761D02*
X45430000Y-87487142D01*
X45382380Y-87391904D01*
X45382380Y-87153809D01*
X45430000Y-87058571D01*
X45477619Y-87010952D01*
X45572857Y-86963333D01*
X45668095Y-86963333D01*
X45810952Y-87010952D01*
X46382380Y-87582380D01*
X46382380Y-86963333D01*
%TO.C,R2*%
X65873333Y-90242380D02*
X65540000Y-89766190D01*
X65301904Y-90242380D02*
X65301904Y-89242380D01*
X65682857Y-89242380D01*
X65778095Y-89290000D01*
X65825714Y-89337619D01*
X65873333Y-89432857D01*
X65873333Y-89575714D01*
X65825714Y-89670952D01*
X65778095Y-89718571D01*
X65682857Y-89766190D01*
X65301904Y-89766190D01*
X66254285Y-89337619D02*
X66301904Y-89290000D01*
X66397142Y-89242380D01*
X66635238Y-89242380D01*
X66730476Y-89290000D01*
X66778095Y-89337619D01*
X66825714Y-89432857D01*
X66825714Y-89528095D01*
X66778095Y-89670952D01*
X66206666Y-90242380D01*
X66825714Y-90242380D01*
%TO.C,C2*%
X55827142Y-119314166D02*
X55874761Y-119361785D01*
X55922380Y-119504642D01*
X55922380Y-119599880D01*
X55874761Y-119742738D01*
X55779523Y-119837976D01*
X55684285Y-119885595D01*
X55493809Y-119933214D01*
X55350952Y-119933214D01*
X55160476Y-119885595D01*
X55065238Y-119837976D01*
X54970000Y-119742738D01*
X54922380Y-119599880D01*
X54922380Y-119504642D01*
X54970000Y-119361785D01*
X55017619Y-119314166D01*
X55017619Y-118933214D02*
X54970000Y-118885595D01*
X54922380Y-118790357D01*
X54922380Y-118552261D01*
X54970000Y-118457023D01*
X55017619Y-118409404D01*
X55112857Y-118361785D01*
X55208095Y-118361785D01*
X55350952Y-118409404D01*
X55922380Y-118980833D01*
X55922380Y-118361785D01*
%TO.C,C1*%
X49109333Y-124407142D02*
X49061714Y-124454761D01*
X48918857Y-124502380D01*
X48823619Y-124502380D01*
X48680761Y-124454761D01*
X48585523Y-124359523D01*
X48537904Y-124264285D01*
X48490285Y-124073809D01*
X48490285Y-123930952D01*
X48537904Y-123740476D01*
X48585523Y-123645238D01*
X48680761Y-123550000D01*
X48823619Y-123502380D01*
X48918857Y-123502380D01*
X49061714Y-123550000D01*
X49109333Y-123597619D01*
X50061714Y-124502380D02*
X49490285Y-124502380D01*
X49776000Y-124502380D02*
X49776000Y-123502380D01*
X49680761Y-123645238D01*
X49585523Y-123740476D01*
X49490285Y-123788095D01*
%TD*%
M02*
