%TF.GenerationSoftware,KiCad,Pcbnew,(5.1.9)-1*%
%TF.CreationDate,2020-12-29T21:02:10-08:00*%
%TF.ProjectId,Autoblind,4175746f-626c-4696-9e64-2e6b69636164,rev?*%
%TF.SameCoordinates,Original*%
%TF.FileFunction,Paste,Bot*%
%TF.FilePolarity,Positive*%
%FSLAX46Y46*%
G04 Gerber Fmt 4.6, Leading zero omitted, Abs format (unit mm)*
G04 Created by KiCad (PCBNEW (5.1.9)-1) date 2020-12-29 21:02:10*
%MOMM*%
%LPD*%
G01*
G04 APERTURE LIST*
G04 APERTURE END LIST*
%TO.C,U5*%
G36*
G01*
X84554999Y-117139999D02*
X84554999Y-117439999D01*
G75*
G02*
X84404999Y-117589999I-150000J0D01*
G01*
X82754999Y-117589999D01*
G75*
G02*
X82604999Y-117439999I0J150000D01*
G01*
X82604999Y-117139999D01*
G75*
G02*
X82754999Y-116989999I150000J0D01*
G01*
X84404999Y-116989999D01*
G75*
G02*
X84554999Y-117139999I0J-150000D01*
G01*
G37*
G36*
G01*
X84554999Y-118409999D02*
X84554999Y-118709999D01*
G75*
G02*
X84404999Y-118859999I-150000J0D01*
G01*
X82754999Y-118859999D01*
G75*
G02*
X82604999Y-118709999I0J150000D01*
G01*
X82604999Y-118409999D01*
G75*
G02*
X82754999Y-118259999I150000J0D01*
G01*
X84404999Y-118259999D01*
G75*
G02*
X84554999Y-118409999I0J-150000D01*
G01*
G37*
G36*
G01*
X84554999Y-119679999D02*
X84554999Y-119979999D01*
G75*
G02*
X84404999Y-120129999I-150000J0D01*
G01*
X82754999Y-120129999D01*
G75*
G02*
X82604999Y-119979999I0J150000D01*
G01*
X82604999Y-119679999D01*
G75*
G02*
X82754999Y-119529999I150000J0D01*
G01*
X84404999Y-119529999D01*
G75*
G02*
X84554999Y-119679999I0J-150000D01*
G01*
G37*
G36*
G01*
X84554999Y-120949999D02*
X84554999Y-121249999D01*
G75*
G02*
X84404999Y-121399999I-150000J0D01*
G01*
X82754999Y-121399999D01*
G75*
G02*
X82604999Y-121249999I0J150000D01*
G01*
X82604999Y-120949999D01*
G75*
G02*
X82754999Y-120799999I150000J0D01*
G01*
X84404999Y-120799999D01*
G75*
G02*
X84554999Y-120949999I0J-150000D01*
G01*
G37*
G36*
G01*
X89504999Y-120949999D02*
X89504999Y-121249999D01*
G75*
G02*
X89354999Y-121399999I-150000J0D01*
G01*
X87704999Y-121399999D01*
G75*
G02*
X87554999Y-121249999I0J150000D01*
G01*
X87554999Y-120949999D01*
G75*
G02*
X87704999Y-120799999I150000J0D01*
G01*
X89354999Y-120799999D01*
G75*
G02*
X89504999Y-120949999I0J-150000D01*
G01*
G37*
G36*
G01*
X89504999Y-119679999D02*
X89504999Y-119979999D01*
G75*
G02*
X89354999Y-120129999I-150000J0D01*
G01*
X87704999Y-120129999D01*
G75*
G02*
X87554999Y-119979999I0J150000D01*
G01*
X87554999Y-119679999D01*
G75*
G02*
X87704999Y-119529999I150000J0D01*
G01*
X89354999Y-119529999D01*
G75*
G02*
X89504999Y-119679999I0J-150000D01*
G01*
G37*
G36*
G01*
X89504999Y-118409999D02*
X89504999Y-118709999D01*
G75*
G02*
X89354999Y-118859999I-150000J0D01*
G01*
X87704999Y-118859999D01*
G75*
G02*
X87554999Y-118709999I0J150000D01*
G01*
X87554999Y-118409999D01*
G75*
G02*
X87704999Y-118259999I150000J0D01*
G01*
X89354999Y-118259999D01*
G75*
G02*
X89504999Y-118409999I0J-150000D01*
G01*
G37*
G36*
G01*
X89504999Y-117139999D02*
X89504999Y-117439999D01*
G75*
G02*
X89354999Y-117589999I-150000J0D01*
G01*
X87704999Y-117589999D01*
G75*
G02*
X87554999Y-117439999I0J150000D01*
G01*
X87554999Y-117139999D01*
G75*
G02*
X87704999Y-116989999I150000J0D01*
G01*
X89354999Y-116989999D01*
G75*
G02*
X89504999Y-117139999I0J-150000D01*
G01*
G37*
%TD*%
%TO.C,U4*%
G36*
G01*
X89130000Y-107465000D02*
X89130000Y-107165000D01*
G75*
G02*
X89280000Y-107015000I150000J0D01*
G01*
X90930000Y-107015000D01*
G75*
G02*
X91080000Y-107165000I0J-150000D01*
G01*
X91080000Y-107465000D01*
G75*
G02*
X90930000Y-107615000I-150000J0D01*
G01*
X89280000Y-107615000D01*
G75*
G02*
X89130000Y-107465000I0J150000D01*
G01*
G37*
G36*
G01*
X89130000Y-106195000D02*
X89130000Y-105895000D01*
G75*
G02*
X89280000Y-105745000I150000J0D01*
G01*
X90930000Y-105745000D01*
G75*
G02*
X91080000Y-105895000I0J-150000D01*
G01*
X91080000Y-106195000D01*
G75*
G02*
X90930000Y-106345000I-150000J0D01*
G01*
X89280000Y-106345000D01*
G75*
G02*
X89130000Y-106195000I0J150000D01*
G01*
G37*
G36*
G01*
X89130000Y-104925000D02*
X89130000Y-104625000D01*
G75*
G02*
X89280000Y-104475000I150000J0D01*
G01*
X90930000Y-104475000D01*
G75*
G02*
X91080000Y-104625000I0J-150000D01*
G01*
X91080000Y-104925000D01*
G75*
G02*
X90930000Y-105075000I-150000J0D01*
G01*
X89280000Y-105075000D01*
G75*
G02*
X89130000Y-104925000I0J150000D01*
G01*
G37*
G36*
G01*
X89130000Y-103655000D02*
X89130000Y-103355000D01*
G75*
G02*
X89280000Y-103205000I150000J0D01*
G01*
X90930000Y-103205000D01*
G75*
G02*
X91080000Y-103355000I0J-150000D01*
G01*
X91080000Y-103655000D01*
G75*
G02*
X90930000Y-103805000I-150000J0D01*
G01*
X89280000Y-103805000D01*
G75*
G02*
X89130000Y-103655000I0J150000D01*
G01*
G37*
G36*
G01*
X89130000Y-102385000D02*
X89130000Y-102085000D01*
G75*
G02*
X89280000Y-101935000I150000J0D01*
G01*
X90930000Y-101935000D01*
G75*
G02*
X91080000Y-102085000I0J-150000D01*
G01*
X91080000Y-102385000D01*
G75*
G02*
X90930000Y-102535000I-150000J0D01*
G01*
X89280000Y-102535000D01*
G75*
G02*
X89130000Y-102385000I0J150000D01*
G01*
G37*
G36*
G01*
X89130000Y-101115000D02*
X89130000Y-100815000D01*
G75*
G02*
X89280000Y-100665000I150000J0D01*
G01*
X90930000Y-100665000D01*
G75*
G02*
X91080000Y-100815000I0J-150000D01*
G01*
X91080000Y-101115000D01*
G75*
G02*
X90930000Y-101265000I-150000J0D01*
G01*
X89280000Y-101265000D01*
G75*
G02*
X89130000Y-101115000I0J150000D01*
G01*
G37*
G36*
G01*
X89130000Y-99845000D02*
X89130000Y-99545000D01*
G75*
G02*
X89280000Y-99395000I150000J0D01*
G01*
X90930000Y-99395000D01*
G75*
G02*
X91080000Y-99545000I0J-150000D01*
G01*
X91080000Y-99845000D01*
G75*
G02*
X90930000Y-99995000I-150000J0D01*
G01*
X89280000Y-99995000D01*
G75*
G02*
X89130000Y-99845000I0J150000D01*
G01*
G37*
G36*
G01*
X89130000Y-98575000D02*
X89130000Y-98275000D01*
G75*
G02*
X89280000Y-98125000I150000J0D01*
G01*
X90930000Y-98125000D01*
G75*
G02*
X91080000Y-98275000I0J-150000D01*
G01*
X91080000Y-98575000D01*
G75*
G02*
X90930000Y-98725000I-150000J0D01*
G01*
X89280000Y-98725000D01*
G75*
G02*
X89130000Y-98575000I0J150000D01*
G01*
G37*
G36*
G01*
X84180000Y-98575000D02*
X84180000Y-98275000D01*
G75*
G02*
X84330000Y-98125000I150000J0D01*
G01*
X85980000Y-98125000D01*
G75*
G02*
X86130000Y-98275000I0J-150000D01*
G01*
X86130000Y-98575000D01*
G75*
G02*
X85980000Y-98725000I-150000J0D01*
G01*
X84330000Y-98725000D01*
G75*
G02*
X84180000Y-98575000I0J150000D01*
G01*
G37*
G36*
G01*
X84180000Y-99845000D02*
X84180000Y-99545000D01*
G75*
G02*
X84330000Y-99395000I150000J0D01*
G01*
X85980000Y-99395000D01*
G75*
G02*
X86130000Y-99545000I0J-150000D01*
G01*
X86130000Y-99845000D01*
G75*
G02*
X85980000Y-99995000I-150000J0D01*
G01*
X84330000Y-99995000D01*
G75*
G02*
X84180000Y-99845000I0J150000D01*
G01*
G37*
G36*
G01*
X84180000Y-101115000D02*
X84180000Y-100815000D01*
G75*
G02*
X84330000Y-100665000I150000J0D01*
G01*
X85980000Y-100665000D01*
G75*
G02*
X86130000Y-100815000I0J-150000D01*
G01*
X86130000Y-101115000D01*
G75*
G02*
X85980000Y-101265000I-150000J0D01*
G01*
X84330000Y-101265000D01*
G75*
G02*
X84180000Y-101115000I0J150000D01*
G01*
G37*
G36*
G01*
X84180000Y-102385000D02*
X84180000Y-102085000D01*
G75*
G02*
X84330000Y-101935000I150000J0D01*
G01*
X85980000Y-101935000D01*
G75*
G02*
X86130000Y-102085000I0J-150000D01*
G01*
X86130000Y-102385000D01*
G75*
G02*
X85980000Y-102535000I-150000J0D01*
G01*
X84330000Y-102535000D01*
G75*
G02*
X84180000Y-102385000I0J150000D01*
G01*
G37*
G36*
G01*
X84180000Y-103655000D02*
X84180000Y-103355000D01*
G75*
G02*
X84330000Y-103205000I150000J0D01*
G01*
X85980000Y-103205000D01*
G75*
G02*
X86130000Y-103355000I0J-150000D01*
G01*
X86130000Y-103655000D01*
G75*
G02*
X85980000Y-103805000I-150000J0D01*
G01*
X84330000Y-103805000D01*
G75*
G02*
X84180000Y-103655000I0J150000D01*
G01*
G37*
G36*
G01*
X84180000Y-104925000D02*
X84180000Y-104625000D01*
G75*
G02*
X84330000Y-104475000I150000J0D01*
G01*
X85980000Y-104475000D01*
G75*
G02*
X86130000Y-104625000I0J-150000D01*
G01*
X86130000Y-104925000D01*
G75*
G02*
X85980000Y-105075000I-150000J0D01*
G01*
X84330000Y-105075000D01*
G75*
G02*
X84180000Y-104925000I0J150000D01*
G01*
G37*
G36*
G01*
X84180000Y-106195000D02*
X84180000Y-105895000D01*
G75*
G02*
X84330000Y-105745000I150000J0D01*
G01*
X85980000Y-105745000D01*
G75*
G02*
X86130000Y-105895000I0J-150000D01*
G01*
X86130000Y-106195000D01*
G75*
G02*
X85980000Y-106345000I-150000J0D01*
G01*
X84330000Y-106345000D01*
G75*
G02*
X84180000Y-106195000I0J150000D01*
G01*
G37*
G36*
G01*
X84180000Y-107465000D02*
X84180000Y-107165000D01*
G75*
G02*
X84330000Y-107015000I150000J0D01*
G01*
X85980000Y-107015000D01*
G75*
G02*
X86130000Y-107165000I0J-150000D01*
G01*
X86130000Y-107465000D01*
G75*
G02*
X85980000Y-107615000I-150000J0D01*
G01*
X84330000Y-107615000D01*
G75*
G02*
X84180000Y-107465000I0J150000D01*
G01*
G37*
%TD*%
M02*
