%TF.GenerationSoftware,KiCad,Pcbnew,(5.1.9)-1*%
%TF.CreationDate,2020-12-29T21:02:10-08:00*%
%TF.ProjectId,Autoblind,4175746f-626c-4696-9e64-2e6b69636164,rev?*%
%TF.SameCoordinates,Original*%
%TF.FileFunction,Paste,Top*%
%TF.FilePolarity,Positive*%
%FSLAX46Y46*%
G04 Gerber Fmt 4.6, Leading zero omitted, Abs format (unit mm)*
G04 Created by KiCad (PCBNEW (5.1.9)-1) date 2020-12-29 21:02:10*
%MOMM*%
%LPD*%
G01*
G04 APERTURE LIST*
%ADD10R,1.000000X2.500000*%
%ADD11R,1.800000X1.000000*%
%ADD12C,0.100000*%
%ADD13R,1.300000X0.900000*%
G04 APERTURE END LIST*
%TO.C,U3*%
G36*
G01*
X71305000Y-110975000D02*
X71305000Y-111275000D01*
G75*
G02*
X71155000Y-111425000I-150000J0D01*
G01*
X69405000Y-111425000D01*
G75*
G02*
X69255000Y-111275000I0J150000D01*
G01*
X69255000Y-110975000D01*
G75*
G02*
X69405000Y-110825000I150000J0D01*
G01*
X71155000Y-110825000D01*
G75*
G02*
X71305000Y-110975000I0J-150000D01*
G01*
G37*
G36*
G01*
X71305000Y-109705000D02*
X71305000Y-110005000D01*
G75*
G02*
X71155000Y-110155000I-150000J0D01*
G01*
X69405000Y-110155000D01*
G75*
G02*
X69255000Y-110005000I0J150000D01*
G01*
X69255000Y-109705000D01*
G75*
G02*
X69405000Y-109555000I150000J0D01*
G01*
X71155000Y-109555000D01*
G75*
G02*
X71305000Y-109705000I0J-150000D01*
G01*
G37*
G36*
G01*
X71305000Y-108435000D02*
X71305000Y-108735000D01*
G75*
G02*
X71155000Y-108885000I-150000J0D01*
G01*
X69405000Y-108885000D01*
G75*
G02*
X69255000Y-108735000I0J150000D01*
G01*
X69255000Y-108435000D01*
G75*
G02*
X69405000Y-108285000I150000J0D01*
G01*
X71155000Y-108285000D01*
G75*
G02*
X71305000Y-108435000I0J-150000D01*
G01*
G37*
G36*
G01*
X71305000Y-107165000D02*
X71305000Y-107465000D01*
G75*
G02*
X71155000Y-107615000I-150000J0D01*
G01*
X69405000Y-107615000D01*
G75*
G02*
X69255000Y-107465000I0J150000D01*
G01*
X69255000Y-107165000D01*
G75*
G02*
X69405000Y-107015000I150000J0D01*
G01*
X71155000Y-107015000D01*
G75*
G02*
X71305000Y-107165000I0J-150000D01*
G01*
G37*
G36*
G01*
X71305000Y-105895000D02*
X71305000Y-106195000D01*
G75*
G02*
X71155000Y-106345000I-150000J0D01*
G01*
X69405000Y-106345000D01*
G75*
G02*
X69255000Y-106195000I0J150000D01*
G01*
X69255000Y-105895000D01*
G75*
G02*
X69405000Y-105745000I150000J0D01*
G01*
X71155000Y-105745000D01*
G75*
G02*
X71305000Y-105895000I0J-150000D01*
G01*
G37*
G36*
G01*
X71305000Y-104625000D02*
X71305000Y-104925000D01*
G75*
G02*
X71155000Y-105075000I-150000J0D01*
G01*
X69405000Y-105075000D01*
G75*
G02*
X69255000Y-104925000I0J150000D01*
G01*
X69255000Y-104625000D01*
G75*
G02*
X69405000Y-104475000I150000J0D01*
G01*
X71155000Y-104475000D01*
G75*
G02*
X71305000Y-104625000I0J-150000D01*
G01*
G37*
G36*
G01*
X71305000Y-103355000D02*
X71305000Y-103655000D01*
G75*
G02*
X71155000Y-103805000I-150000J0D01*
G01*
X69405000Y-103805000D01*
G75*
G02*
X69255000Y-103655000I0J150000D01*
G01*
X69255000Y-103355000D01*
G75*
G02*
X69405000Y-103205000I150000J0D01*
G01*
X71155000Y-103205000D01*
G75*
G02*
X71305000Y-103355000I0J-150000D01*
G01*
G37*
G36*
G01*
X71305000Y-102085000D02*
X71305000Y-102385000D01*
G75*
G02*
X71155000Y-102535000I-150000J0D01*
G01*
X69405000Y-102535000D01*
G75*
G02*
X69255000Y-102385000I0J150000D01*
G01*
X69255000Y-102085000D01*
G75*
G02*
X69405000Y-101935000I150000J0D01*
G01*
X71155000Y-101935000D01*
G75*
G02*
X71305000Y-102085000I0J-150000D01*
G01*
G37*
G36*
G01*
X71305000Y-100815000D02*
X71305000Y-101115000D01*
G75*
G02*
X71155000Y-101265000I-150000J0D01*
G01*
X69405000Y-101265000D01*
G75*
G02*
X69255000Y-101115000I0J150000D01*
G01*
X69255000Y-100815000D01*
G75*
G02*
X69405000Y-100665000I150000J0D01*
G01*
X71155000Y-100665000D01*
G75*
G02*
X71305000Y-100815000I0J-150000D01*
G01*
G37*
G36*
G01*
X71305000Y-99545000D02*
X71305000Y-99845000D01*
G75*
G02*
X71155000Y-99995000I-150000J0D01*
G01*
X69405000Y-99995000D01*
G75*
G02*
X69255000Y-99845000I0J150000D01*
G01*
X69255000Y-99545000D01*
G75*
G02*
X69405000Y-99395000I150000J0D01*
G01*
X71155000Y-99395000D01*
G75*
G02*
X71305000Y-99545000I0J-150000D01*
G01*
G37*
G36*
G01*
X71305000Y-98275000D02*
X71305000Y-98575000D01*
G75*
G02*
X71155000Y-98725000I-150000J0D01*
G01*
X69405000Y-98725000D01*
G75*
G02*
X69255000Y-98575000I0J150000D01*
G01*
X69255000Y-98275000D01*
G75*
G02*
X69405000Y-98125000I150000J0D01*
G01*
X71155000Y-98125000D01*
G75*
G02*
X71305000Y-98275000I0J-150000D01*
G01*
G37*
G36*
G01*
X71305000Y-97005000D02*
X71305000Y-97305000D01*
G75*
G02*
X71155000Y-97455000I-150000J0D01*
G01*
X69405000Y-97455000D01*
G75*
G02*
X69255000Y-97305000I0J150000D01*
G01*
X69255000Y-97005000D01*
G75*
G02*
X69405000Y-96855000I150000J0D01*
G01*
X71155000Y-96855000D01*
G75*
G02*
X71305000Y-97005000I0J-150000D01*
G01*
G37*
G36*
G01*
X71305000Y-95735000D02*
X71305000Y-96035000D01*
G75*
G02*
X71155000Y-96185000I-150000J0D01*
G01*
X69405000Y-96185000D01*
G75*
G02*
X69255000Y-96035000I0J150000D01*
G01*
X69255000Y-95735000D01*
G75*
G02*
X69405000Y-95585000I150000J0D01*
G01*
X71155000Y-95585000D01*
G75*
G02*
X71305000Y-95735000I0J-150000D01*
G01*
G37*
G36*
G01*
X71305000Y-94465000D02*
X71305000Y-94765000D01*
G75*
G02*
X71155000Y-94915000I-150000J0D01*
G01*
X69405000Y-94915000D01*
G75*
G02*
X69255000Y-94765000I0J150000D01*
G01*
X69255000Y-94465000D01*
G75*
G02*
X69405000Y-94315000I150000J0D01*
G01*
X71155000Y-94315000D01*
G75*
G02*
X71305000Y-94465000I0J-150000D01*
G01*
G37*
G36*
G01*
X80605000Y-94465000D02*
X80605000Y-94765000D01*
G75*
G02*
X80455000Y-94915000I-150000J0D01*
G01*
X78705000Y-94915000D01*
G75*
G02*
X78555000Y-94765000I0J150000D01*
G01*
X78555000Y-94465000D01*
G75*
G02*
X78705000Y-94315000I150000J0D01*
G01*
X80455000Y-94315000D01*
G75*
G02*
X80605000Y-94465000I0J-150000D01*
G01*
G37*
G36*
G01*
X80605000Y-95735000D02*
X80605000Y-96035000D01*
G75*
G02*
X80455000Y-96185000I-150000J0D01*
G01*
X78705000Y-96185000D01*
G75*
G02*
X78555000Y-96035000I0J150000D01*
G01*
X78555000Y-95735000D01*
G75*
G02*
X78705000Y-95585000I150000J0D01*
G01*
X80455000Y-95585000D01*
G75*
G02*
X80605000Y-95735000I0J-150000D01*
G01*
G37*
G36*
G01*
X80605000Y-97005000D02*
X80605000Y-97305000D01*
G75*
G02*
X80455000Y-97455000I-150000J0D01*
G01*
X78705000Y-97455000D01*
G75*
G02*
X78555000Y-97305000I0J150000D01*
G01*
X78555000Y-97005000D01*
G75*
G02*
X78705000Y-96855000I150000J0D01*
G01*
X80455000Y-96855000D01*
G75*
G02*
X80605000Y-97005000I0J-150000D01*
G01*
G37*
G36*
G01*
X80605000Y-98275000D02*
X80605000Y-98575000D01*
G75*
G02*
X80455000Y-98725000I-150000J0D01*
G01*
X78705000Y-98725000D01*
G75*
G02*
X78555000Y-98575000I0J150000D01*
G01*
X78555000Y-98275000D01*
G75*
G02*
X78705000Y-98125000I150000J0D01*
G01*
X80455000Y-98125000D01*
G75*
G02*
X80605000Y-98275000I0J-150000D01*
G01*
G37*
G36*
G01*
X80605000Y-99545000D02*
X80605000Y-99845000D01*
G75*
G02*
X80455000Y-99995000I-150000J0D01*
G01*
X78705000Y-99995000D01*
G75*
G02*
X78555000Y-99845000I0J150000D01*
G01*
X78555000Y-99545000D01*
G75*
G02*
X78705000Y-99395000I150000J0D01*
G01*
X80455000Y-99395000D01*
G75*
G02*
X80605000Y-99545000I0J-150000D01*
G01*
G37*
G36*
G01*
X80605000Y-100815000D02*
X80605000Y-101115000D01*
G75*
G02*
X80455000Y-101265000I-150000J0D01*
G01*
X78705000Y-101265000D01*
G75*
G02*
X78555000Y-101115000I0J150000D01*
G01*
X78555000Y-100815000D01*
G75*
G02*
X78705000Y-100665000I150000J0D01*
G01*
X80455000Y-100665000D01*
G75*
G02*
X80605000Y-100815000I0J-150000D01*
G01*
G37*
G36*
G01*
X80605000Y-102085000D02*
X80605000Y-102385000D01*
G75*
G02*
X80455000Y-102535000I-150000J0D01*
G01*
X78705000Y-102535000D01*
G75*
G02*
X78555000Y-102385000I0J150000D01*
G01*
X78555000Y-102085000D01*
G75*
G02*
X78705000Y-101935000I150000J0D01*
G01*
X80455000Y-101935000D01*
G75*
G02*
X80605000Y-102085000I0J-150000D01*
G01*
G37*
G36*
G01*
X80605000Y-103355000D02*
X80605000Y-103655000D01*
G75*
G02*
X80455000Y-103805000I-150000J0D01*
G01*
X78705000Y-103805000D01*
G75*
G02*
X78555000Y-103655000I0J150000D01*
G01*
X78555000Y-103355000D01*
G75*
G02*
X78705000Y-103205000I150000J0D01*
G01*
X80455000Y-103205000D01*
G75*
G02*
X80605000Y-103355000I0J-150000D01*
G01*
G37*
G36*
G01*
X80605000Y-104625000D02*
X80605000Y-104925000D01*
G75*
G02*
X80455000Y-105075000I-150000J0D01*
G01*
X78705000Y-105075000D01*
G75*
G02*
X78555000Y-104925000I0J150000D01*
G01*
X78555000Y-104625000D01*
G75*
G02*
X78705000Y-104475000I150000J0D01*
G01*
X80455000Y-104475000D01*
G75*
G02*
X80605000Y-104625000I0J-150000D01*
G01*
G37*
G36*
G01*
X80605000Y-105895000D02*
X80605000Y-106195000D01*
G75*
G02*
X80455000Y-106345000I-150000J0D01*
G01*
X78705000Y-106345000D01*
G75*
G02*
X78555000Y-106195000I0J150000D01*
G01*
X78555000Y-105895000D01*
G75*
G02*
X78705000Y-105745000I150000J0D01*
G01*
X80455000Y-105745000D01*
G75*
G02*
X80605000Y-105895000I0J-150000D01*
G01*
G37*
G36*
G01*
X80605000Y-107165000D02*
X80605000Y-107465000D01*
G75*
G02*
X80455000Y-107615000I-150000J0D01*
G01*
X78705000Y-107615000D01*
G75*
G02*
X78555000Y-107465000I0J150000D01*
G01*
X78555000Y-107165000D01*
G75*
G02*
X78705000Y-107015000I150000J0D01*
G01*
X80455000Y-107015000D01*
G75*
G02*
X80605000Y-107165000I0J-150000D01*
G01*
G37*
G36*
G01*
X80605000Y-108435000D02*
X80605000Y-108735000D01*
G75*
G02*
X80455000Y-108885000I-150000J0D01*
G01*
X78705000Y-108885000D01*
G75*
G02*
X78555000Y-108735000I0J150000D01*
G01*
X78555000Y-108435000D01*
G75*
G02*
X78705000Y-108285000I150000J0D01*
G01*
X80455000Y-108285000D01*
G75*
G02*
X80605000Y-108435000I0J-150000D01*
G01*
G37*
G36*
G01*
X80605000Y-109705000D02*
X80605000Y-110005000D01*
G75*
G02*
X80455000Y-110155000I-150000J0D01*
G01*
X78705000Y-110155000D01*
G75*
G02*
X78555000Y-110005000I0J150000D01*
G01*
X78555000Y-109705000D01*
G75*
G02*
X78705000Y-109555000I150000J0D01*
G01*
X80455000Y-109555000D01*
G75*
G02*
X80605000Y-109705000I0J-150000D01*
G01*
G37*
G36*
G01*
X80605000Y-110975000D02*
X80605000Y-111275000D01*
G75*
G02*
X80455000Y-111425000I-150000J0D01*
G01*
X78705000Y-111425000D01*
G75*
G02*
X78555000Y-111275000I0J150000D01*
G01*
X78555000Y-110975000D01*
G75*
G02*
X78705000Y-110825000I150000J0D01*
G01*
X80455000Y-110825000D01*
G75*
G02*
X80605000Y-110975000I0J-150000D01*
G01*
G37*
%TD*%
D10*
%TO.C,U1*%
X47300000Y-95270000D03*
X49300000Y-95270000D03*
X51300000Y-95270000D03*
X53300000Y-95270000D03*
X55300000Y-95270000D03*
X57300000Y-95270000D03*
X59300000Y-95270000D03*
X61300000Y-95270000D03*
D11*
X62800000Y-97870000D03*
X62800000Y-99870000D03*
X62800000Y-101870000D03*
X62800000Y-103870000D03*
X62800000Y-105870000D03*
X62800000Y-107870000D03*
D10*
X61300000Y-110470000D03*
X59300000Y-110470000D03*
X57300000Y-110470000D03*
X55300000Y-110470000D03*
X53300000Y-110470000D03*
X51300000Y-110470000D03*
X49300000Y-110470000D03*
X47300000Y-110470000D03*
%TD*%
%TO.C,R1*%
G36*
G01*
X54464000Y-114865999D02*
X54464000Y-115766001D01*
G75*
G02*
X54214001Y-116016000I-249999J0D01*
G01*
X53513999Y-116016000D01*
G75*
G02*
X53264000Y-115766001I0J249999D01*
G01*
X53264000Y-114865999D01*
G75*
G02*
X53513999Y-114616000I249999J0D01*
G01*
X54214001Y-114616000D01*
G75*
G02*
X54464000Y-114865999I0J-249999D01*
G01*
G37*
G36*
G01*
X56464000Y-114865999D02*
X56464000Y-115766001D01*
G75*
G02*
X56214001Y-116016000I-249999J0D01*
G01*
X55513999Y-116016000D01*
G75*
G02*
X55264000Y-115766001I0J249999D01*
G01*
X55264000Y-114865999D01*
G75*
G02*
X55513999Y-114616000I249999J0D01*
G01*
X56214001Y-114616000D01*
G75*
G02*
X56464000Y-114865999I0J-249999D01*
G01*
G37*
%TD*%
D12*
%TO.C,U2*%
G36*
X53100000Y-120246500D02*
G01*
X49975000Y-120246500D01*
X49975000Y-119830000D01*
X48500000Y-119830000D01*
X48500000Y-118930000D01*
X49975000Y-118930000D01*
X49975000Y-118513500D01*
X53100000Y-118513500D01*
X53100000Y-120246500D01*
G37*
D13*
X49150000Y-120880000D03*
X49150000Y-117880000D03*
%TD*%
%TO.C,R2*%
G36*
G01*
X66440000Y-91890001D02*
X66440000Y-90989999D01*
G75*
G02*
X66689999Y-90740000I249999J0D01*
G01*
X67390001Y-90740000D01*
G75*
G02*
X67640000Y-90989999I0J-249999D01*
G01*
X67640000Y-91890001D01*
G75*
G02*
X67390001Y-92140000I-249999J0D01*
G01*
X66689999Y-92140000D01*
G75*
G02*
X66440000Y-91890001I0J249999D01*
G01*
G37*
G36*
G01*
X64440000Y-91890001D02*
X64440000Y-90989999D01*
G75*
G02*
X64689999Y-90740000I249999J0D01*
G01*
X65390001Y-90740000D01*
G75*
G02*
X65640000Y-90989999I0J-249999D01*
G01*
X65640000Y-91890001D01*
G75*
G02*
X65390001Y-92140000I-249999J0D01*
G01*
X64689999Y-92140000D01*
G75*
G02*
X64440000Y-91890001I0J249999D01*
G01*
G37*
%TD*%
%TO.C,C2*%
G36*
G01*
X57625000Y-120772500D02*
X56675000Y-120772500D01*
G75*
G02*
X56425000Y-120522500I0J250000D01*
G01*
X56425000Y-119847500D01*
G75*
G02*
X56675000Y-119597500I250000J0D01*
G01*
X57625000Y-119597500D01*
G75*
G02*
X57875000Y-119847500I0J-250000D01*
G01*
X57875000Y-120522500D01*
G75*
G02*
X57625000Y-120772500I-250000J0D01*
G01*
G37*
G36*
G01*
X57625000Y-118697500D02*
X56675000Y-118697500D01*
G75*
G02*
X56425000Y-118447500I0J250000D01*
G01*
X56425000Y-117772500D01*
G75*
G02*
X56675000Y-117522500I250000J0D01*
G01*
X57625000Y-117522500D01*
G75*
G02*
X57875000Y-117772500I0J-250000D01*
G01*
X57875000Y-118447500D01*
G75*
G02*
X57625000Y-118697500I-250000J0D01*
G01*
G37*
%TD*%
%TO.C,C1*%
G36*
G01*
X47651000Y-126205000D02*
X47651000Y-125255000D01*
G75*
G02*
X47901000Y-125005000I250000J0D01*
G01*
X48576000Y-125005000D01*
G75*
G02*
X48826000Y-125255000I0J-250000D01*
G01*
X48826000Y-126205000D01*
G75*
G02*
X48576000Y-126455000I-250000J0D01*
G01*
X47901000Y-126455000D01*
G75*
G02*
X47651000Y-126205000I0J250000D01*
G01*
G37*
G36*
G01*
X49726000Y-126205000D02*
X49726000Y-125255000D01*
G75*
G02*
X49976000Y-125005000I250000J0D01*
G01*
X50651000Y-125005000D01*
G75*
G02*
X50901000Y-125255000I0J-250000D01*
G01*
X50901000Y-126205000D01*
G75*
G02*
X50651000Y-126455000I-250000J0D01*
G01*
X49976000Y-126455000D01*
G75*
G02*
X49726000Y-126205000I0J250000D01*
G01*
G37*
%TD*%
M02*
