M48
; DRILL file {KiCad (5.1.9)-1} date 12/29/20 21:02:19
; FORMAT={-:-/ absolute / inch / decimal}
; #@! TF.CreationDate,2020-12-29T21:02:19-08:00
; #@! TF.GenerationSoftware,Kicad,Pcbnew,(5.1.9)-1
; #@! TF.FileFunction,Plated,1,2,PTH
FMAT,2
INCH
T1C0.0157
T2C0.0374
T3C0.0394
%
G90
G05
T1
X1.8912Y-4.2612
X2.02Y-3.66
X2.02Y-4.47
X2.0984Y-3.6616
X2.1772Y-3.6628
X2.25Y-3.66
X2.3346Y-4.4654
X2.57Y-4.195
X2.585Y-4.315
X2.59Y-3.91
X2.68Y-4.025
X3.2Y-4.6
X3.2Y-4.6
X3.205Y-3.925
X3.2498Y-4.2098
X3.25Y-4.16
X3.25Y-4.27
X3.25Y-4.33
X3.56Y-4.76
T2
X3.72Y-3.8763
X3.72Y-3.9747
X3.72Y-4.0731
X3.72Y-4.1716
X3.72Y-4.27
X3.99Y-3.8763
X3.99Y-3.9747
X3.99Y-4.0731
X3.99Y-4.1716
X3.99Y-4.27
T3
X1.73Y-4.55
X1.73Y-4.65
X1.73Y-4.75
X1.73Y-4.85
X1.73Y-4.95
X1.9Y-3.45
X2.0Y-3.45
X2.1Y-3.45
X2.2Y-3.45
X2.3Y-3.45
X2.4Y-3.45
X2.87Y-3.45
X2.97Y-3.45
X3.07Y-3.45
X3.17Y-3.45
X3.27Y-3.45
X3.37Y-3.45
X3.47Y-3.45
X3.5Y-5.0
X3.57Y-3.45
X3.6Y-5.0
X3.67Y-3.45
X3.7Y-5.0
X3.77Y-3.45
T0
M30
