%TF.GenerationSoftware,KiCad,Pcbnew,(5.1.9)-1*%
%TF.CreationDate,2020-12-29T21:02:10-08:00*%
%TF.ProjectId,Autoblind,4175746f-626c-4696-9e64-2e6b69636164,rev?*%
%TF.SameCoordinates,Original*%
%TF.FileFunction,Copper,L1,Top*%
%TF.FilePolarity,Positive*%
%FSLAX46Y46*%
G04 Gerber Fmt 4.6, Leading zero omitted, Abs format (unit mm)*
G04 Created by KiCad (PCBNEW (5.1.9)-1) date 2020-12-29 21:02:10*
%MOMM*%
%LPD*%
G01*
G04 APERTURE LIST*
%TA.AperFunction,ComponentPad*%
%ADD10O,1.950000X1.700000*%
%TD*%
%TA.AperFunction,SMDPad,CuDef*%
%ADD11R,1.000000X2.500000*%
%TD*%
%TA.AperFunction,SMDPad,CuDef*%
%ADD12R,1.800000X1.000000*%
%TD*%
%TA.AperFunction,ComponentPad*%
%ADD13O,1.700000X1.700000*%
%TD*%
%TA.AperFunction,ComponentPad*%
%ADD14R,1.700000X1.700000*%
%TD*%
%TA.AperFunction,SMDPad,CuDef*%
%ADD15C,0.100000*%
%TD*%
%TA.AperFunction,SMDPad,CuDef*%
%ADD16R,1.300000X0.900000*%
%TD*%
%TA.AperFunction,ViaPad*%
%ADD17C,0.800000*%
%TD*%
%TA.AperFunction,Conductor*%
%ADD18C,0.500000*%
%TD*%
%TA.AperFunction,Conductor*%
%ADD19C,0.250000*%
%TD*%
%TA.AperFunction,Conductor*%
%ADD20C,0.254000*%
%TD*%
%TA.AperFunction,Conductor*%
%ADD21C,0.100000*%
%TD*%
G04 APERTURE END LIST*
%TO.P,U3,28*%
%TO.N,Net-(U3-Pad28)*%
%TA.AperFunction,SMDPad,CuDef*%
G36*
G01*
X71305000Y-110975000D02*
X71305000Y-111275000D01*
G75*
G02*
X71155000Y-111425000I-150000J0D01*
G01*
X69405000Y-111425000D01*
G75*
G02*
X69255000Y-111275000I0J150000D01*
G01*
X69255000Y-110975000D01*
G75*
G02*
X69405000Y-110825000I150000J0D01*
G01*
X71155000Y-110825000D01*
G75*
G02*
X71305000Y-110975000I0J-150000D01*
G01*
G37*
%TD.AperFunction*%
%TO.P,U3,27*%
%TO.N,Net-(U3-Pad27)*%
%TA.AperFunction,SMDPad,CuDef*%
G36*
G01*
X71305000Y-109705000D02*
X71305000Y-110005000D01*
G75*
G02*
X71155000Y-110155000I-150000J0D01*
G01*
X69405000Y-110155000D01*
G75*
G02*
X69255000Y-110005000I0J150000D01*
G01*
X69255000Y-109705000D01*
G75*
G02*
X69405000Y-109555000I150000J0D01*
G01*
X71155000Y-109555000D01*
G75*
G02*
X71305000Y-109705000I0J-150000D01*
G01*
G37*
%TD.AperFunction*%
%TO.P,U3,26*%
%TO.N,Net-(U3-Pad26)*%
%TA.AperFunction,SMDPad,CuDef*%
G36*
G01*
X71305000Y-108435000D02*
X71305000Y-108735000D01*
G75*
G02*
X71155000Y-108885000I-150000J0D01*
G01*
X69405000Y-108885000D01*
G75*
G02*
X69255000Y-108735000I0J150000D01*
G01*
X69255000Y-108435000D01*
G75*
G02*
X69405000Y-108285000I150000J0D01*
G01*
X71155000Y-108285000D01*
G75*
G02*
X71305000Y-108435000I0J-150000D01*
G01*
G37*
%TD.AperFunction*%
%TO.P,U3,25*%
%TO.N,Net-(U3-Pad25)*%
%TA.AperFunction,SMDPad,CuDef*%
G36*
G01*
X71305000Y-107165000D02*
X71305000Y-107465000D01*
G75*
G02*
X71155000Y-107615000I-150000J0D01*
G01*
X69405000Y-107615000D01*
G75*
G02*
X69255000Y-107465000I0J150000D01*
G01*
X69255000Y-107165000D01*
G75*
G02*
X69405000Y-107015000I150000J0D01*
G01*
X71155000Y-107015000D01*
G75*
G02*
X71305000Y-107165000I0J-150000D01*
G01*
G37*
%TD.AperFunction*%
%TO.P,U3,24*%
%TO.N,Net-(U3-Pad24)*%
%TA.AperFunction,SMDPad,CuDef*%
G36*
G01*
X71305000Y-105895000D02*
X71305000Y-106195000D01*
G75*
G02*
X71155000Y-106345000I-150000J0D01*
G01*
X69405000Y-106345000D01*
G75*
G02*
X69255000Y-106195000I0J150000D01*
G01*
X69255000Y-105895000D01*
G75*
G02*
X69405000Y-105745000I150000J0D01*
G01*
X71155000Y-105745000D01*
G75*
G02*
X71305000Y-105895000I0J-150000D01*
G01*
G37*
%TD.AperFunction*%
%TO.P,U3,23*%
%TO.N,Net-(U3-Pad23)*%
%TA.AperFunction,SMDPad,CuDef*%
G36*
G01*
X71305000Y-104625000D02*
X71305000Y-104925000D01*
G75*
G02*
X71155000Y-105075000I-150000J0D01*
G01*
X69405000Y-105075000D01*
G75*
G02*
X69255000Y-104925000I0J150000D01*
G01*
X69255000Y-104625000D01*
G75*
G02*
X69405000Y-104475000I150000J0D01*
G01*
X71155000Y-104475000D01*
G75*
G02*
X71305000Y-104625000I0J-150000D01*
G01*
G37*
%TD.AperFunction*%
%TO.P,U3,22*%
%TO.N,Net-(U3-Pad22)*%
%TA.AperFunction,SMDPad,CuDef*%
G36*
G01*
X71305000Y-103355000D02*
X71305000Y-103655000D01*
G75*
G02*
X71155000Y-103805000I-150000J0D01*
G01*
X69405000Y-103805000D01*
G75*
G02*
X69255000Y-103655000I0J150000D01*
G01*
X69255000Y-103355000D01*
G75*
G02*
X69405000Y-103205000I150000J0D01*
G01*
X71155000Y-103205000D01*
G75*
G02*
X71305000Y-103355000I0J-150000D01*
G01*
G37*
%TD.AperFunction*%
%TO.P,U3,21*%
%TO.N,/BTN*%
%TA.AperFunction,SMDPad,CuDef*%
G36*
G01*
X71305000Y-102085000D02*
X71305000Y-102385000D01*
G75*
G02*
X71155000Y-102535000I-150000J0D01*
G01*
X69405000Y-102535000D01*
G75*
G02*
X69255000Y-102385000I0J150000D01*
G01*
X69255000Y-102085000D01*
G75*
G02*
X69405000Y-101935000I150000J0D01*
G01*
X71155000Y-101935000D01*
G75*
G02*
X71305000Y-102085000I0J-150000D01*
G01*
G37*
%TD.AperFunction*%
%TO.P,U3,20*%
%TO.N,/INT*%
%TA.AperFunction,SMDPad,CuDef*%
G36*
G01*
X71305000Y-100815000D02*
X71305000Y-101115000D01*
G75*
G02*
X71155000Y-101265000I-150000J0D01*
G01*
X69405000Y-101265000D01*
G75*
G02*
X69255000Y-101115000I0J150000D01*
G01*
X69255000Y-100815000D01*
G75*
G02*
X69405000Y-100665000I150000J0D01*
G01*
X71155000Y-100665000D01*
G75*
G02*
X71305000Y-100815000I0J-150000D01*
G01*
G37*
%TD.AperFunction*%
%TO.P,U3,19*%
%TO.N,Net-(U3-Pad19)*%
%TA.AperFunction,SMDPad,CuDef*%
G36*
G01*
X71305000Y-99545000D02*
X71305000Y-99845000D01*
G75*
G02*
X71155000Y-99995000I-150000J0D01*
G01*
X69405000Y-99995000D01*
G75*
G02*
X69255000Y-99845000I0J150000D01*
G01*
X69255000Y-99545000D01*
G75*
G02*
X69405000Y-99395000I150000J0D01*
G01*
X71155000Y-99395000D01*
G75*
G02*
X71305000Y-99545000I0J-150000D01*
G01*
G37*
%TD.AperFunction*%
%TO.P,U3,18*%
%TO.N,/RESET*%
%TA.AperFunction,SMDPad,CuDef*%
G36*
G01*
X71305000Y-98275000D02*
X71305000Y-98575000D01*
G75*
G02*
X71155000Y-98725000I-150000J0D01*
G01*
X69405000Y-98725000D01*
G75*
G02*
X69255000Y-98575000I0J150000D01*
G01*
X69255000Y-98275000D01*
G75*
G02*
X69405000Y-98125000I150000J0D01*
G01*
X71155000Y-98125000D01*
G75*
G02*
X71305000Y-98275000I0J-150000D01*
G01*
G37*
%TD.AperFunction*%
%TO.P,U3,17*%
%TO.N,GND*%
%TA.AperFunction,SMDPad,CuDef*%
G36*
G01*
X71305000Y-97005000D02*
X71305000Y-97305000D01*
G75*
G02*
X71155000Y-97455000I-150000J0D01*
G01*
X69405000Y-97455000D01*
G75*
G02*
X69255000Y-97305000I0J150000D01*
G01*
X69255000Y-97005000D01*
G75*
G02*
X69405000Y-96855000I150000J0D01*
G01*
X71155000Y-96855000D01*
G75*
G02*
X71305000Y-97005000I0J-150000D01*
G01*
G37*
%TD.AperFunction*%
%TO.P,U3,16*%
%TA.AperFunction,SMDPad,CuDef*%
G36*
G01*
X71305000Y-95735000D02*
X71305000Y-96035000D01*
G75*
G02*
X71155000Y-96185000I-150000J0D01*
G01*
X69405000Y-96185000D01*
G75*
G02*
X69255000Y-96035000I0J150000D01*
G01*
X69255000Y-95735000D01*
G75*
G02*
X69405000Y-95585000I150000J0D01*
G01*
X71155000Y-95585000D01*
G75*
G02*
X71305000Y-95735000I0J-150000D01*
G01*
G37*
%TD.AperFunction*%
%TO.P,U3,15*%
%TA.AperFunction,SMDPad,CuDef*%
G36*
G01*
X71305000Y-94465000D02*
X71305000Y-94765000D01*
G75*
G02*
X71155000Y-94915000I-150000J0D01*
G01*
X69405000Y-94915000D01*
G75*
G02*
X69255000Y-94765000I0J150000D01*
G01*
X69255000Y-94465000D01*
G75*
G02*
X69405000Y-94315000I150000J0D01*
G01*
X71155000Y-94315000D01*
G75*
G02*
X71305000Y-94465000I0J-150000D01*
G01*
G37*
%TD.AperFunction*%
%TO.P,U3,14*%
%TO.N,Net-(U3-Pad14)*%
%TA.AperFunction,SMDPad,CuDef*%
G36*
G01*
X80605000Y-94465000D02*
X80605000Y-94765000D01*
G75*
G02*
X80455000Y-94915000I-150000J0D01*
G01*
X78705000Y-94915000D01*
G75*
G02*
X78555000Y-94765000I0J150000D01*
G01*
X78555000Y-94465000D01*
G75*
G02*
X78705000Y-94315000I150000J0D01*
G01*
X80455000Y-94315000D01*
G75*
G02*
X80605000Y-94465000I0J-150000D01*
G01*
G37*
%TD.AperFunction*%
%TO.P,U3,13*%
%TO.N,/SDA*%
%TA.AperFunction,SMDPad,CuDef*%
G36*
G01*
X80605000Y-95735000D02*
X80605000Y-96035000D01*
G75*
G02*
X80455000Y-96185000I-150000J0D01*
G01*
X78705000Y-96185000D01*
G75*
G02*
X78555000Y-96035000I0J150000D01*
G01*
X78555000Y-95735000D01*
G75*
G02*
X78705000Y-95585000I150000J0D01*
G01*
X80455000Y-95585000D01*
G75*
G02*
X80605000Y-95735000I0J-150000D01*
G01*
G37*
%TD.AperFunction*%
%TO.P,U3,12*%
%TO.N,/SCL*%
%TA.AperFunction,SMDPad,CuDef*%
G36*
G01*
X80605000Y-97005000D02*
X80605000Y-97305000D01*
G75*
G02*
X80455000Y-97455000I-150000J0D01*
G01*
X78705000Y-97455000D01*
G75*
G02*
X78555000Y-97305000I0J150000D01*
G01*
X78555000Y-97005000D01*
G75*
G02*
X78705000Y-96855000I150000J0D01*
G01*
X80455000Y-96855000D01*
G75*
G02*
X80605000Y-97005000I0J-150000D01*
G01*
G37*
%TD.AperFunction*%
%TO.P,U3,11*%
%TO.N,Net-(U3-Pad11)*%
%TA.AperFunction,SMDPad,CuDef*%
G36*
G01*
X80605000Y-98275000D02*
X80605000Y-98575000D01*
G75*
G02*
X80455000Y-98725000I-150000J0D01*
G01*
X78705000Y-98725000D01*
G75*
G02*
X78555000Y-98575000I0J150000D01*
G01*
X78555000Y-98275000D01*
G75*
G02*
X78705000Y-98125000I150000J0D01*
G01*
X80455000Y-98125000D01*
G75*
G02*
X80605000Y-98275000I0J-150000D01*
G01*
G37*
%TD.AperFunction*%
%TO.P,U3,10*%
%TO.N,GND*%
%TA.AperFunction,SMDPad,CuDef*%
G36*
G01*
X80605000Y-99545000D02*
X80605000Y-99845000D01*
G75*
G02*
X80455000Y-99995000I-150000J0D01*
G01*
X78705000Y-99995000D01*
G75*
G02*
X78555000Y-99845000I0J150000D01*
G01*
X78555000Y-99545000D01*
G75*
G02*
X78705000Y-99395000I150000J0D01*
G01*
X80455000Y-99395000D01*
G75*
G02*
X80605000Y-99545000I0J-150000D01*
G01*
G37*
%TD.AperFunction*%
%TO.P,U3,9*%
%TO.N,+3V3*%
%TA.AperFunction,SMDPad,CuDef*%
G36*
G01*
X80605000Y-100815000D02*
X80605000Y-101115000D01*
G75*
G02*
X80455000Y-101265000I-150000J0D01*
G01*
X78705000Y-101265000D01*
G75*
G02*
X78555000Y-101115000I0J150000D01*
G01*
X78555000Y-100815000D01*
G75*
G02*
X78705000Y-100665000I150000J0D01*
G01*
X80455000Y-100665000D01*
G75*
G02*
X80605000Y-100815000I0J-150000D01*
G01*
G37*
%TD.AperFunction*%
%TO.P,U3,8*%
%TO.N,/EIGHT*%
%TA.AperFunction,SMDPad,CuDef*%
G36*
G01*
X80605000Y-102085000D02*
X80605000Y-102385000D01*
G75*
G02*
X80455000Y-102535000I-150000J0D01*
G01*
X78705000Y-102535000D01*
G75*
G02*
X78555000Y-102385000I0J150000D01*
G01*
X78555000Y-102085000D01*
G75*
G02*
X78705000Y-101935000I150000J0D01*
G01*
X80455000Y-101935000D01*
G75*
G02*
X80605000Y-102085000I0J-150000D01*
G01*
G37*
%TD.AperFunction*%
%TO.P,U3,7*%
%TO.N,/FOUR*%
%TA.AperFunction,SMDPad,CuDef*%
G36*
G01*
X80605000Y-103355000D02*
X80605000Y-103655000D01*
G75*
G02*
X80455000Y-103805000I-150000J0D01*
G01*
X78705000Y-103805000D01*
G75*
G02*
X78555000Y-103655000I0J150000D01*
G01*
X78555000Y-103355000D01*
G75*
G02*
X78705000Y-103205000I150000J0D01*
G01*
X80455000Y-103205000D01*
G75*
G02*
X80605000Y-103355000I0J-150000D01*
G01*
G37*
%TD.AperFunction*%
%TO.P,U3,6*%
%TO.N,/TWO*%
%TA.AperFunction,SMDPad,CuDef*%
G36*
G01*
X80605000Y-104625000D02*
X80605000Y-104925000D01*
G75*
G02*
X80455000Y-105075000I-150000J0D01*
G01*
X78705000Y-105075000D01*
G75*
G02*
X78555000Y-104925000I0J150000D01*
G01*
X78555000Y-104625000D01*
G75*
G02*
X78705000Y-104475000I150000J0D01*
G01*
X80455000Y-104475000D01*
G75*
G02*
X80605000Y-104625000I0J-150000D01*
G01*
G37*
%TD.AperFunction*%
%TO.P,U3,5*%
%TO.N,/ONE*%
%TA.AperFunction,SMDPad,CuDef*%
G36*
G01*
X80605000Y-105895000D02*
X80605000Y-106195000D01*
G75*
G02*
X80455000Y-106345000I-150000J0D01*
G01*
X78705000Y-106345000D01*
G75*
G02*
X78555000Y-106195000I0J150000D01*
G01*
X78555000Y-105895000D01*
G75*
G02*
X78705000Y-105745000I150000J0D01*
G01*
X80455000Y-105745000D01*
G75*
G02*
X80605000Y-105895000I0J-150000D01*
G01*
G37*
%TD.AperFunction*%
%TO.P,U3,4*%
%TO.N,/COIL4*%
%TA.AperFunction,SMDPad,CuDef*%
G36*
G01*
X80605000Y-107165000D02*
X80605000Y-107465000D01*
G75*
G02*
X80455000Y-107615000I-150000J0D01*
G01*
X78705000Y-107615000D01*
G75*
G02*
X78555000Y-107465000I0J150000D01*
G01*
X78555000Y-107165000D01*
G75*
G02*
X78705000Y-107015000I150000J0D01*
G01*
X80455000Y-107015000D01*
G75*
G02*
X80605000Y-107165000I0J-150000D01*
G01*
G37*
%TD.AperFunction*%
%TO.P,U3,3*%
%TO.N,/COIL3*%
%TA.AperFunction,SMDPad,CuDef*%
G36*
G01*
X80605000Y-108435000D02*
X80605000Y-108735000D01*
G75*
G02*
X80455000Y-108885000I-150000J0D01*
G01*
X78705000Y-108885000D01*
G75*
G02*
X78555000Y-108735000I0J150000D01*
G01*
X78555000Y-108435000D01*
G75*
G02*
X78705000Y-108285000I150000J0D01*
G01*
X80455000Y-108285000D01*
G75*
G02*
X80605000Y-108435000I0J-150000D01*
G01*
G37*
%TD.AperFunction*%
%TO.P,U3,2*%
%TO.N,/COIL2*%
%TA.AperFunction,SMDPad,CuDef*%
G36*
G01*
X80605000Y-109705000D02*
X80605000Y-110005000D01*
G75*
G02*
X80455000Y-110155000I-150000J0D01*
G01*
X78705000Y-110155000D01*
G75*
G02*
X78555000Y-110005000I0J150000D01*
G01*
X78555000Y-109705000D01*
G75*
G02*
X78705000Y-109555000I150000J0D01*
G01*
X80455000Y-109555000D01*
G75*
G02*
X80605000Y-109705000I0J-150000D01*
G01*
G37*
%TD.AperFunction*%
%TO.P,U3,1*%
%TO.N,/COIL1*%
%TA.AperFunction,SMDPad,CuDef*%
G36*
G01*
X80605000Y-110975000D02*
X80605000Y-111275000D01*
G75*
G02*
X80455000Y-111425000I-150000J0D01*
G01*
X78705000Y-111425000D01*
G75*
G02*
X78555000Y-111275000I0J150000D01*
G01*
X78555000Y-110975000D01*
G75*
G02*
X78705000Y-110825000I150000J0D01*
G01*
X80455000Y-110825000D01*
G75*
G02*
X80605000Y-110975000I0J-150000D01*
G01*
G37*
%TD.AperFunction*%
%TD*%
D10*
%TO.P,J6,5*%
%TO.N,+5V*%
X101346000Y-98458000D03*
%TO.P,J6,4*%
%TO.N,/ORANGE*%
X101346000Y-100958000D03*
%TO.P,J6,3*%
%TO.N,/YELLOW*%
X101346000Y-103458000D03*
%TO.P,J6,2*%
%TO.N,/PINK*%
X101346000Y-105958000D03*
%TO.P,J6,1*%
%TO.N,/BLUE*%
%TA.AperFunction,ComponentPad*%
G36*
G01*
X102071000Y-109308000D02*
X100621000Y-109308000D01*
G75*
G02*
X100371000Y-109058000I0J250000D01*
G01*
X100371000Y-107858000D01*
G75*
G02*
X100621000Y-107608000I250000J0D01*
G01*
X102071000Y-107608000D01*
G75*
G02*
X102321000Y-107858000I0J-250000D01*
G01*
X102321000Y-109058000D01*
G75*
G02*
X102071000Y-109308000I-250000J0D01*
G01*
G37*
%TD.AperFunction*%
%TD*%
%TO.P,J5,5*%
%TO.N,+5V*%
X94488000Y-98458000D03*
%TO.P,J5,4*%
%TO.N,/ORANGE*%
X94488000Y-100958000D03*
%TO.P,J5,3*%
%TO.N,/YELLOW*%
X94488000Y-103458000D03*
%TO.P,J5,2*%
%TO.N,/PINK*%
X94488000Y-105958000D03*
%TO.P,J5,1*%
%TO.N,/BLUE*%
%TA.AperFunction,ComponentPad*%
G36*
G01*
X95213000Y-109308000D02*
X93763000Y-109308000D01*
G75*
G02*
X93513000Y-109058000I0J250000D01*
G01*
X93513000Y-107858000D01*
G75*
G02*
X93763000Y-107608000I250000J0D01*
G01*
X95213000Y-107608000D01*
G75*
G02*
X95463000Y-107858000I0J-250000D01*
G01*
X95463000Y-109058000D01*
G75*
G02*
X95213000Y-109308000I-250000J0D01*
G01*
G37*
%TD.AperFunction*%
%TD*%
D11*
%TO.P,U1,22*%
%TO.N,/TXD*%
X47300000Y-95270000D03*
%TO.P,U1,21*%
%TO.N,/RXD*%
X49300000Y-95270000D03*
%TO.P,U1,20*%
%TO.N,/SCL*%
X51300000Y-95270000D03*
%TO.P,U1,19*%
%TO.N,/SDA*%
X53300000Y-95270000D03*
%TO.P,U1,18*%
%TO.N,/CS*%
X55300000Y-95270000D03*
%TO.P,U1,17*%
%TO.N,/INT*%
X57300000Y-95270000D03*
%TO.P,U1,16*%
%TO.N,/BOOT*%
X59300000Y-95270000D03*
%TO.P,U1,15*%
%TO.N,GND*%
X61300000Y-95270000D03*
D12*
%TO.P,U1,14*%
%TO.N,Net-(U1-Pad14)*%
X62800000Y-97870000D03*
%TO.P,U1,13*%
%TO.N,Net-(U1-Pad13)*%
X62800000Y-99870000D03*
%TO.P,U1,12*%
%TO.N,Net-(U1-Pad12)*%
X62800000Y-101870000D03*
%TO.P,U1,11*%
%TO.N,Net-(U1-Pad11)*%
X62800000Y-103870000D03*
%TO.P,U1,10*%
%TO.N,Net-(U1-Pad10)*%
X62800000Y-105870000D03*
%TO.P,U1,9*%
%TO.N,Net-(U1-Pad9)*%
X62800000Y-107870000D03*
D11*
%TO.P,U1,8*%
%TO.N,+3V3*%
X61300000Y-110470000D03*
%TO.P,U1,7*%
%TO.N,/MOSI*%
X59300000Y-110470000D03*
%TO.P,U1,6*%
%TO.N,/MISO*%
X57300000Y-110470000D03*
%TO.P,U1,5*%
%TO.N,/SPICLK*%
X55300000Y-110470000D03*
%TO.P,U1,4*%
%TO.N,Net-(U1-Pad4)*%
X53300000Y-110470000D03*
%TO.P,U1,3*%
%TO.N,/ENABLE*%
X51300000Y-110470000D03*
%TO.P,U1,2*%
%TO.N,Net-(U1-Pad2)*%
X49300000Y-110470000D03*
%TO.P,U1,1*%
%TO.N,/RESET*%
X47300000Y-110470000D03*
%TD*%
%TO.P,R1,2*%
%TO.N,/ENABLE*%
%TA.AperFunction,SMDPad,CuDef*%
G36*
G01*
X54464000Y-114865999D02*
X54464000Y-115766001D01*
G75*
G02*
X54214001Y-116016000I-249999J0D01*
G01*
X53513999Y-116016000D01*
G75*
G02*
X53264000Y-115766001I0J249999D01*
G01*
X53264000Y-114865999D01*
G75*
G02*
X53513999Y-114616000I249999J0D01*
G01*
X54214001Y-114616000D01*
G75*
G02*
X54464000Y-114865999I0J-249999D01*
G01*
G37*
%TD.AperFunction*%
%TO.P,R1,1*%
%TO.N,+3V3*%
%TA.AperFunction,SMDPad,CuDef*%
G36*
G01*
X56464000Y-114865999D02*
X56464000Y-115766001D01*
G75*
G02*
X56214001Y-116016000I-249999J0D01*
G01*
X55513999Y-116016000D01*
G75*
G02*
X55264000Y-115766001I0J249999D01*
G01*
X55264000Y-114865999D01*
G75*
G02*
X55513999Y-114616000I249999J0D01*
G01*
X56214001Y-114616000D01*
G75*
G02*
X56464000Y-114865999I0J-249999D01*
G01*
G37*
%TD.AperFunction*%
%TD*%
D13*
%TO.P,J1,5*%
%TO.N,+5V*%
X43942000Y-125730000D03*
%TO.P,J1,4*%
%TO.N,/ID*%
X43942000Y-123190000D03*
%TO.P,J1,3*%
%TO.N,/D+*%
X43942000Y-120650000D03*
%TO.P,J1,2*%
%TO.N,/D-*%
X43942000Y-118110000D03*
D14*
%TO.P,J1,1*%
%TO.N,GND*%
X43942000Y-115570000D03*
%TD*%
%TA.AperFunction,SMDPad,CuDef*%
D15*
%TO.P,U2,2*%
%TO.N,+5V*%
G36*
X53100000Y-120246500D02*
G01*
X49975000Y-120246500D01*
X49975000Y-119830000D01*
X48500000Y-119830000D01*
X48500000Y-118930000D01*
X49975000Y-118930000D01*
X49975000Y-118513500D01*
X53100000Y-118513500D01*
X53100000Y-120246500D01*
G37*
%TD.AperFunction*%
D16*
%TO.P,U2,3*%
%TO.N,+3V3*%
X49150000Y-120880000D03*
%TO.P,U2,1*%
%TO.N,GND*%
X49150000Y-117880000D03*
%TD*%
D13*
%TO.P,J4,3*%
%TO.N,+3V3*%
X88900000Y-127000000D03*
%TO.P,J4,2*%
%TO.N,/HALL*%
X91440000Y-127000000D03*
D14*
%TO.P,J4,1*%
%TO.N,GND*%
X93980000Y-127000000D03*
%TD*%
D13*
%TO.P,J3,10*%
%TO.N,+3V3*%
X72898000Y-87630000D03*
%TO.P,J3,9*%
%TO.N,/SDA*%
X75438000Y-87630000D03*
%TO.P,J3,8*%
%TO.N,/SCL*%
X77978000Y-87630000D03*
%TO.P,J3,7*%
%TO.N,/EIGHT*%
X80518000Y-87630000D03*
%TO.P,J3,6*%
%TO.N,/FOUR*%
X83058000Y-87630000D03*
%TO.P,J3,5*%
%TO.N,/TWO*%
X85598000Y-87630000D03*
%TO.P,J3,4*%
%TO.N,/ONE*%
X88138000Y-87630000D03*
%TO.P,J3,3*%
%TO.N,/BTN*%
X90678000Y-87630000D03*
%TO.P,J3,2*%
%TO.N,/PHOT*%
X93218000Y-87630000D03*
D14*
%TO.P,J3,1*%
%TO.N,GND*%
X95758000Y-87630000D03*
%TD*%
D13*
%TO.P,J2,6*%
%TO.N,/TXD*%
X60960000Y-87630000D03*
%TO.P,J2,5*%
%TO.N,/RXD*%
X58420000Y-87630000D03*
%TO.P,J2,4*%
%TO.N,/BOOT*%
X55880000Y-87630000D03*
%TO.P,J2,3*%
%TO.N,/CS*%
X53340000Y-87630000D03*
%TO.P,J2,2*%
%TO.N,/ENABLE*%
X50800000Y-87630000D03*
D14*
%TO.P,J2,1*%
%TO.N,/RESET*%
X48260000Y-87630000D03*
%TD*%
%TO.P,R2,2*%
%TO.N,GND*%
%TA.AperFunction,SMDPad,CuDef*%
G36*
G01*
X66440000Y-91890001D02*
X66440000Y-90989999D01*
G75*
G02*
X66689999Y-90740000I249999J0D01*
G01*
X67390001Y-90740000D01*
G75*
G02*
X67640000Y-90989999I0J-249999D01*
G01*
X67640000Y-91890001D01*
G75*
G02*
X67390001Y-92140000I-249999J0D01*
G01*
X66689999Y-92140000D01*
G75*
G02*
X66440000Y-91890001I0J249999D01*
G01*
G37*
%TD.AperFunction*%
%TO.P,R2,1*%
%TO.N,/BOOT*%
%TA.AperFunction,SMDPad,CuDef*%
G36*
G01*
X64440000Y-91890001D02*
X64440000Y-90989999D01*
G75*
G02*
X64689999Y-90740000I249999J0D01*
G01*
X65390001Y-90740000D01*
G75*
G02*
X65640000Y-90989999I0J-249999D01*
G01*
X65640000Y-91890001D01*
G75*
G02*
X65390001Y-92140000I-249999J0D01*
G01*
X64689999Y-92140000D01*
G75*
G02*
X64440000Y-91890001I0J249999D01*
G01*
G37*
%TD.AperFunction*%
%TD*%
%TO.P,C2,1*%
%TO.N,+3V3*%
%TA.AperFunction,SMDPad,CuDef*%
G36*
G01*
X57625000Y-120772500D02*
X56675000Y-120772500D01*
G75*
G02*
X56425000Y-120522500I0J250000D01*
G01*
X56425000Y-119847500D01*
G75*
G02*
X56675000Y-119597500I250000J0D01*
G01*
X57625000Y-119597500D01*
G75*
G02*
X57875000Y-119847500I0J-250000D01*
G01*
X57875000Y-120522500D01*
G75*
G02*
X57625000Y-120772500I-250000J0D01*
G01*
G37*
%TD.AperFunction*%
%TO.P,C2,2*%
%TO.N,GND*%
%TA.AperFunction,SMDPad,CuDef*%
G36*
G01*
X57625000Y-118697500D02*
X56675000Y-118697500D01*
G75*
G02*
X56425000Y-118447500I0J250000D01*
G01*
X56425000Y-117772500D01*
G75*
G02*
X56675000Y-117522500I250000J0D01*
G01*
X57625000Y-117522500D01*
G75*
G02*
X57875000Y-117772500I0J-250000D01*
G01*
X57875000Y-118447500D01*
G75*
G02*
X57625000Y-118697500I-250000J0D01*
G01*
G37*
%TD.AperFunction*%
%TD*%
%TO.P,C1,1*%
%TO.N,+5V*%
%TA.AperFunction,SMDPad,CuDef*%
G36*
G01*
X47651000Y-126205000D02*
X47651000Y-125255000D01*
G75*
G02*
X47901000Y-125005000I250000J0D01*
G01*
X48576000Y-125005000D01*
G75*
G02*
X48826000Y-125255000I0J-250000D01*
G01*
X48826000Y-126205000D01*
G75*
G02*
X48576000Y-126455000I-250000J0D01*
G01*
X47901000Y-126455000D01*
G75*
G02*
X47651000Y-126205000I0J250000D01*
G01*
G37*
%TD.AperFunction*%
%TO.P,C1,2*%
%TO.N,GND*%
%TA.AperFunction,SMDPad,CuDef*%
G36*
G01*
X49726000Y-126205000D02*
X49726000Y-125255000D01*
G75*
G02*
X49976000Y-125005000I250000J0D01*
G01*
X50651000Y-125005000D01*
G75*
G02*
X50901000Y-125255000I0J-250000D01*
G01*
X50901000Y-126205000D01*
G75*
G02*
X50651000Y-126455000I-250000J0D01*
G01*
X49976000Y-126455000D01*
G75*
G02*
X49726000Y-126205000I0J250000D01*
G01*
G37*
%TD.AperFunction*%
%TD*%
D17*
%TO.N,GND*%
X81407000Y-99695000D03*
%TO.N,+3V3*%
X81280000Y-116840000D03*
X81280000Y-116840000D03*
%TO.N,/ENABLE*%
X51308000Y-113538000D03*
%TO.N,/SCL*%
X51308000Y-92964000D03*
%TO.N,/SDA*%
X53300000Y-93004000D03*
%TO.N,/CS*%
X55300000Y-93036000D03*
%TO.N,/INT*%
X57150000Y-92964000D03*
X65786000Y-99314000D03*
%TO.N,/MOSI*%
X59300000Y-113420000D03*
%TO.N,/MISO*%
X65659000Y-109601000D03*
%TO.N,/SPICLK*%
X65278000Y-106553000D03*
%TO.N,/RESET*%
X48036000Y-108234000D03*
%TO.N,/PHOT*%
X90424000Y-120904000D03*
%TO.N,/BTN*%
X68072000Y-102235000D03*
%TO.N,/COIL4*%
X82550000Y-105664000D03*
%TO.N,/COIL3*%
X82545340Y-106929340D03*
%TO.N,/COIL2*%
X82550000Y-108458000D03*
%TO.N,/COIL1*%
X82550000Y-109982000D03*
%TD*%
D18*
%TO.N,GND*%
X79580000Y-99695000D02*
X81407000Y-99695000D01*
%TO.N,+5V*%
X43942000Y-125730000D02*
X48238500Y-125730000D01*
X48238500Y-125730000D02*
X48238500Y-123930500D01*
X48133000Y-123825000D02*
X46736000Y-122428000D01*
X48260000Y-119380000D02*
X49237500Y-119380000D01*
X47752000Y-119380000D02*
X48260000Y-119380000D01*
X46736000Y-120396000D02*
X47752000Y-119380000D01*
X46736000Y-122428000D02*
X46736000Y-120396000D01*
%TO.N,+3V3*%
X56455000Y-120880000D02*
X57150000Y-120185000D01*
X49150000Y-120880000D02*
X56455000Y-120880000D01*
X61300000Y-112100000D02*
X61300000Y-110470000D01*
X81280000Y-116840000D02*
X81280000Y-116840000D01*
X81280000Y-116840000D02*
X81280000Y-116840000D01*
X57912000Y-115316000D02*
X59965500Y-117369500D01*
X55864000Y-115316000D02*
X57912000Y-115316000D01*
X59965500Y-117369500D02*
X61300000Y-116035000D01*
X61300000Y-116035000D02*
X61300000Y-110470000D01*
X60495000Y-116840000D02*
X59330500Y-118004500D01*
X81280000Y-116840000D02*
X60495000Y-116840000D01*
X59330500Y-118004500D02*
X59965500Y-117369500D01*
X57150000Y-120185000D02*
X59330500Y-118004500D01*
X72898000Y-95308000D02*
X72898000Y-87630000D01*
X78555000Y-100965000D02*
X72898000Y-95308000D01*
X79580000Y-100965000D02*
X78555000Y-100965000D01*
X88900000Y-127000000D02*
X88900000Y-124460000D01*
X88900000Y-124460000D02*
X81280000Y-116840000D01*
X97028000Y-85344000D02*
X73914000Y-85344000D01*
X98044000Y-86360000D02*
X97028000Y-85344000D01*
X73914000Y-85344000D02*
X72898000Y-86360000D01*
X96520000Y-128778000D02*
X98044000Y-127254000D01*
X89408000Y-128778000D02*
X96520000Y-128778000D01*
X98044000Y-127254000D02*
X98044000Y-86360000D01*
X88900000Y-128270000D02*
X89408000Y-128778000D01*
X72898000Y-86360000D02*
X72898000Y-87630000D01*
X88900000Y-127000000D02*
X88900000Y-128270000D01*
D19*
%TO.N,/ENABLE*%
X51300000Y-112260000D02*
X51300000Y-110470000D01*
X51300000Y-113530000D02*
X51300000Y-112260000D01*
X53086000Y-115316000D02*
X51300000Y-113530000D01*
X53864000Y-115316000D02*
X53086000Y-115316000D01*
%TO.N,/BOOT*%
X55880000Y-87630000D02*
X55880000Y-90170000D01*
X59300000Y-93590000D02*
X59300000Y-95270000D01*
X55880000Y-90170000D02*
X59300000Y-93590000D01*
X59300000Y-93770000D02*
X59300000Y-95270000D01*
X61630000Y-91440000D02*
X59300000Y-93770000D01*
X65040000Y-91440000D02*
X61630000Y-91440000D01*
%TO.N,/SCL*%
X51300000Y-92972000D02*
X51300000Y-92972000D01*
X51300000Y-92972000D02*
X51308000Y-92964000D01*
X51300000Y-95270000D02*
X51300000Y-92972000D01*
X81407000Y-91059000D02*
X77978000Y-87630000D01*
X81407000Y-96647000D02*
X81407000Y-91059000D01*
X80899000Y-97155000D02*
X81407000Y-96647000D01*
X79580000Y-97155000D02*
X80899000Y-97155000D01*
%TO.N,/SDA*%
X53300000Y-95270000D02*
X53300000Y-93004000D01*
X53300000Y-93004000D02*
X53300000Y-93004000D01*
X75438000Y-93218000D02*
X75438000Y-87630000D01*
X78105000Y-95885000D02*
X75438000Y-93218000D01*
X79580000Y-95885000D02*
X78105000Y-95885000D01*
%TO.N,/CS*%
X53340000Y-87630000D02*
X53340000Y-90170000D01*
X55300000Y-92130000D02*
X55300000Y-92782000D01*
X53340000Y-90170000D02*
X55300000Y-92130000D01*
X55300000Y-92782000D02*
X55300000Y-93036000D01*
X55300000Y-93036000D02*
X55300000Y-95270000D01*
%TO.N,/INT*%
X67691000Y-100965000D02*
X67691000Y-100965000D01*
X57300000Y-93114000D02*
X57150000Y-92964000D01*
X57300000Y-95270000D02*
X57300000Y-93114000D01*
X67437000Y-100965000D02*
X70280000Y-100965000D01*
X67437000Y-100965000D02*
X65786000Y-99314000D01*
%TO.N,/MOSI*%
X59300000Y-110470000D02*
X59300000Y-113420000D01*
X59300000Y-113420000D02*
X59300000Y-113420000D01*
%TO.N,/MISO*%
X65659000Y-108331000D02*
X65659000Y-109601000D01*
X59336000Y-106934000D02*
X64262000Y-106934000D01*
X57300000Y-110470000D02*
X57300000Y-108970000D01*
X57300000Y-108970000D02*
X59336000Y-106934000D01*
X64262000Y-106934000D02*
X65659000Y-108331000D01*
%TO.N,/SPICLK*%
X55300000Y-108970000D02*
X59368000Y-104902000D01*
X55300000Y-110470000D02*
X55300000Y-108970000D01*
X59368000Y-104902000D02*
X64192685Y-104902000D01*
X64192685Y-104902000D02*
X65278000Y-105987315D01*
X65278000Y-105987315D02*
X65278000Y-106553000D01*
%TO.N,/RESET*%
X47300000Y-110134998D02*
X47300000Y-110470000D01*
X47300000Y-108970000D02*
X48036000Y-108234000D01*
X47300000Y-110470000D02*
X47300000Y-108970000D01*
X59369000Y-96901000D02*
X63816002Y-96901000D01*
X65340002Y-98425000D02*
X70280000Y-98425000D01*
X63816002Y-96901000D02*
X65340002Y-98425000D01*
X48036000Y-108234000D02*
X59369000Y-96901000D01*
%TO.N,/PHOT*%
X91948000Y-119380000D02*
X90424000Y-120904000D01*
X92202000Y-119126000D02*
X91948000Y-119380000D01*
X92710000Y-118618000D02*
X91948000Y-119380000D01*
X92710000Y-88138000D02*
X92710000Y-118618000D01*
X93218000Y-87630000D02*
X92710000Y-88138000D01*
%TO.N,Net-(U3-Pad22)*%
X70153000Y-103378000D02*
X70280000Y-103505000D01*
%TO.N,/TXD*%
X58928000Y-85598000D02*
X60960000Y-87630000D01*
X46482000Y-85598000D02*
X58928000Y-85598000D01*
X45466000Y-88900000D02*
X45466000Y-86614000D01*
X47300000Y-90734000D02*
X45466000Y-88900000D01*
X45466000Y-86614000D02*
X46482000Y-85598000D01*
X47300000Y-95270000D02*
X47300000Y-90734000D01*
%TO.N,/RXD*%
X56896000Y-86106000D02*
X58420000Y-87630000D01*
X46736000Y-86106000D02*
X56896000Y-86106000D01*
X45974000Y-86868000D02*
X46736000Y-86106000D01*
X45974000Y-88646000D02*
X45974000Y-86868000D01*
X49300000Y-91972000D02*
X45974000Y-88646000D01*
X49300000Y-95270000D02*
X49300000Y-91972000D01*
%TO.N,/BTN*%
X68072000Y-102235000D02*
X68072000Y-102235000D01*
X68072000Y-102235000D02*
X70280000Y-102235000D01*
%TO.N,/ONE*%
X88138000Y-98512000D02*
X88138000Y-87630000D01*
X80605000Y-106045000D02*
X88138000Y-98512000D01*
X79580000Y-106045000D02*
X80605000Y-106045000D01*
%TO.N,/TWO*%
X85598000Y-99782000D02*
X85598000Y-87630000D01*
X80605000Y-104775000D02*
X85598000Y-99782000D01*
X79580000Y-104775000D02*
X80605000Y-104775000D01*
%TO.N,/FOUR*%
X83185000Y-87757000D02*
X83058000Y-87630000D01*
X83185000Y-100925000D02*
X83185000Y-87757000D01*
X80605000Y-103505000D02*
X83185000Y-100925000D01*
X79580000Y-103505000D02*
X80605000Y-103505000D01*
%TO.N,/EIGHT*%
X82296000Y-100544000D02*
X82296000Y-89408000D01*
X82296000Y-89408000D02*
X80518000Y-87630000D01*
X80605000Y-102235000D02*
X82296000Y-100544000D01*
X79580000Y-102235000D02*
X80605000Y-102235000D01*
%TO.N,/COIL4*%
X80899000Y-107315000D02*
X79580000Y-107315000D01*
X82550000Y-105664000D02*
X80899000Y-107315000D01*
%TO.N,/COIL3*%
X79580000Y-108585000D02*
X80889680Y-108585000D01*
X80889680Y-108585000D02*
X82545340Y-106929340D01*
%TO.N,/COIL2*%
X81153000Y-109855000D02*
X82550000Y-108458000D01*
X79580000Y-109855000D02*
X81153000Y-109855000D01*
%TO.N,/COIL1*%
X79580000Y-111125000D02*
X81407000Y-111125000D01*
X81407000Y-111125000D02*
X82550000Y-109982000D01*
%TD*%
D20*
%TO.N,GND*%
X106981001Y-134413000D02*
X37291000Y-134413000D01*
X37291000Y-130639117D01*
X39921000Y-130639117D01*
X39921000Y-130980883D01*
X39987675Y-131316081D01*
X40118463Y-131631831D01*
X40308337Y-131915998D01*
X40550002Y-132157663D01*
X40834169Y-132347537D01*
X41149919Y-132478325D01*
X41485117Y-132545000D01*
X41826883Y-132545000D01*
X42162081Y-132478325D01*
X42477831Y-132347537D01*
X42761998Y-132157663D01*
X43003663Y-131915998D01*
X43193537Y-131631831D01*
X43324325Y-131316081D01*
X43391000Y-130980883D01*
X43391000Y-130639117D01*
X101389000Y-130639117D01*
X101389000Y-130980883D01*
X101455675Y-131316081D01*
X101586463Y-131631831D01*
X101776337Y-131915998D01*
X102018002Y-132157663D01*
X102302169Y-132347537D01*
X102617919Y-132478325D01*
X102953117Y-132545000D01*
X103294883Y-132545000D01*
X103630081Y-132478325D01*
X103945831Y-132347537D01*
X104229998Y-132157663D01*
X104471663Y-131915998D01*
X104661537Y-131631831D01*
X104792325Y-131316081D01*
X104859000Y-130980883D01*
X104859000Y-130639117D01*
X104792325Y-130303919D01*
X104661537Y-129988169D01*
X104471663Y-129704002D01*
X104229998Y-129462337D01*
X103945831Y-129272463D01*
X103630081Y-129141675D01*
X103294883Y-129075000D01*
X102953117Y-129075000D01*
X102617919Y-129141675D01*
X102302169Y-129272463D01*
X102018002Y-129462337D01*
X101776337Y-129704002D01*
X101586463Y-129988169D01*
X101455675Y-130303919D01*
X101389000Y-130639117D01*
X43391000Y-130639117D01*
X43324325Y-130303919D01*
X43193537Y-129988169D01*
X43003663Y-129704002D01*
X42761998Y-129462337D01*
X42477831Y-129272463D01*
X42162081Y-129141675D01*
X41826883Y-129075000D01*
X41485117Y-129075000D01*
X41149919Y-129141675D01*
X40834169Y-129272463D01*
X40550002Y-129462337D01*
X40308337Y-129704002D01*
X40118463Y-129988169D01*
X39987675Y-130303919D01*
X39921000Y-130639117D01*
X37291000Y-130639117D01*
X37291000Y-114720000D01*
X42453928Y-114720000D01*
X42457000Y-115284250D01*
X42615750Y-115443000D01*
X43815000Y-115443000D01*
X43815000Y-114243750D01*
X44069000Y-114243750D01*
X44069000Y-115443000D01*
X45268250Y-115443000D01*
X45427000Y-115284250D01*
X45430072Y-114720000D01*
X45417812Y-114595518D01*
X45381502Y-114475820D01*
X45322537Y-114365506D01*
X45243185Y-114268815D01*
X45146494Y-114189463D01*
X45036180Y-114130498D01*
X44916482Y-114094188D01*
X44792000Y-114081928D01*
X44227750Y-114085000D01*
X44069000Y-114243750D01*
X43815000Y-114243750D01*
X43656250Y-114085000D01*
X43092000Y-114081928D01*
X42967518Y-114094188D01*
X42847820Y-114130498D01*
X42737506Y-114189463D01*
X42640815Y-114268815D01*
X42561463Y-114365506D01*
X42502498Y-114475820D01*
X42466188Y-114595518D01*
X42453928Y-114720000D01*
X37291000Y-114720000D01*
X37291000Y-93472000D01*
X38227000Y-93472000D01*
X38227000Y-112268000D01*
X38229440Y-112292776D01*
X38236667Y-112316601D01*
X38248403Y-112338557D01*
X38264197Y-112357803D01*
X38283443Y-112373597D01*
X38305399Y-112385333D01*
X38329224Y-112392560D01*
X38354000Y-112395000D01*
X46482000Y-112395000D01*
X46506776Y-112392560D01*
X46530601Y-112385333D01*
X46552557Y-112373597D01*
X46571803Y-112357803D01*
X46587597Y-112338557D01*
X46596527Y-112321850D01*
X46675518Y-112345812D01*
X46800000Y-112358072D01*
X47800000Y-112358072D01*
X47924482Y-112345812D01*
X48044180Y-112309502D01*
X48154494Y-112250537D01*
X48251185Y-112171185D01*
X48300000Y-112111704D01*
X48348815Y-112171185D01*
X48445506Y-112250537D01*
X48555820Y-112309502D01*
X48675518Y-112345812D01*
X48800000Y-112358072D01*
X49800000Y-112358072D01*
X49924482Y-112345812D01*
X50044180Y-112309502D01*
X50154494Y-112250537D01*
X50251185Y-112171185D01*
X50300000Y-112111704D01*
X50348815Y-112171185D01*
X50445506Y-112250537D01*
X50540001Y-112301046D01*
X50540001Y-112842288D01*
X50504063Y-112878226D01*
X50390795Y-113047744D01*
X50312774Y-113236102D01*
X50273000Y-113436061D01*
X50273000Y-113639939D01*
X50312774Y-113839898D01*
X50390795Y-114028256D01*
X50504063Y-114197774D01*
X50648226Y-114341937D01*
X50817744Y-114455205D01*
X51006102Y-114533226D01*
X51206061Y-114573000D01*
X51268198Y-114573000D01*
X52522205Y-115827008D01*
X52545999Y-115856001D01*
X52574992Y-115879795D01*
X52574996Y-115879799D01*
X52627388Y-115922795D01*
X52642600Y-115935280D01*
X52642992Y-115939255D01*
X52693528Y-116105851D01*
X52775595Y-116259387D01*
X52886038Y-116393962D01*
X53020613Y-116504405D01*
X53174149Y-116586472D01*
X53340745Y-116637008D01*
X53513999Y-116654072D01*
X54214001Y-116654072D01*
X54387255Y-116637008D01*
X54553851Y-116586472D01*
X54707387Y-116504405D01*
X54841962Y-116393962D01*
X54864000Y-116367109D01*
X54886038Y-116393962D01*
X55020613Y-116504405D01*
X55174149Y-116586472D01*
X55340745Y-116637008D01*
X55513999Y-116654072D01*
X56214001Y-116654072D01*
X56387255Y-116637008D01*
X56553851Y-116586472D01*
X56707387Y-116504405D01*
X56841962Y-116393962D01*
X56952405Y-116259387D01*
X56983614Y-116201000D01*
X57545422Y-116201000D01*
X58713921Y-117369500D01*
X58512580Y-117570841D01*
X58513072Y-117522500D01*
X58500812Y-117398018D01*
X58464502Y-117278320D01*
X58405537Y-117168006D01*
X58326185Y-117071315D01*
X58229494Y-116991963D01*
X58119180Y-116932998D01*
X57999482Y-116896688D01*
X57875000Y-116884428D01*
X57435750Y-116887500D01*
X57277000Y-117046250D01*
X57277000Y-117983000D01*
X57297000Y-117983000D01*
X57297000Y-118237000D01*
X57277000Y-118237000D01*
X57277000Y-118257000D01*
X57023000Y-118257000D01*
X57023000Y-118237000D01*
X55948750Y-118237000D01*
X55790000Y-118395750D01*
X55786928Y-118697500D01*
X55799188Y-118821982D01*
X55835498Y-118941680D01*
X55894463Y-119051994D01*
X55973815Y-119148685D01*
X56053594Y-119214158D01*
X56047038Y-119219538D01*
X55936595Y-119354114D01*
X55854528Y-119507650D01*
X55803992Y-119674246D01*
X55786928Y-119847500D01*
X55786928Y-119995000D01*
X53738072Y-119995000D01*
X53738072Y-118513500D01*
X53725812Y-118389018D01*
X53689502Y-118269320D01*
X53630537Y-118159006D01*
X53551185Y-118062315D01*
X53454494Y-117982963D01*
X53344180Y-117923998D01*
X53224482Y-117887688D01*
X53100000Y-117875428D01*
X50435000Y-117875428D01*
X50435000Y-117752998D01*
X50276252Y-117752998D01*
X50435000Y-117594250D01*
X50436341Y-117522500D01*
X55786928Y-117522500D01*
X55790000Y-117824250D01*
X55948750Y-117983000D01*
X57023000Y-117983000D01*
X57023000Y-117046250D01*
X56864250Y-116887500D01*
X56425000Y-116884428D01*
X56300518Y-116896688D01*
X56180820Y-116932998D01*
X56070506Y-116991963D01*
X55973815Y-117071315D01*
X55894463Y-117168006D01*
X55835498Y-117278320D01*
X55799188Y-117398018D01*
X55786928Y-117522500D01*
X50436341Y-117522500D01*
X50438072Y-117430000D01*
X50425812Y-117305518D01*
X50389502Y-117185820D01*
X50330537Y-117075506D01*
X50251185Y-116978815D01*
X50154494Y-116899463D01*
X50044180Y-116840498D01*
X49924482Y-116804188D01*
X49800000Y-116791928D01*
X49435750Y-116795000D01*
X49277000Y-116953750D01*
X49277000Y-117753000D01*
X49297000Y-117753000D01*
X49297000Y-118007000D01*
X49277000Y-118007000D01*
X49277000Y-118027000D01*
X49023000Y-118027000D01*
X49023000Y-118007000D01*
X48023750Y-118007000D01*
X47865000Y-118165750D01*
X47861928Y-118330000D01*
X47874188Y-118454482D01*
X47886479Y-118495000D01*
X47795469Y-118495000D01*
X47752000Y-118490719D01*
X47708531Y-118495000D01*
X47708523Y-118495000D01*
X47593306Y-118506348D01*
X47578509Y-118507805D01*
X47559736Y-118513500D01*
X47411687Y-118558411D01*
X47257941Y-118640589D01*
X47257939Y-118640590D01*
X47257940Y-118640590D01*
X47156953Y-118723468D01*
X47156951Y-118723470D01*
X47123183Y-118751183D01*
X47095470Y-118784951D01*
X46140951Y-119739471D01*
X46107184Y-119767183D01*
X46079471Y-119800951D01*
X46079468Y-119800954D01*
X45996590Y-119901941D01*
X45914412Y-120055687D01*
X45863805Y-120222510D01*
X45846719Y-120396000D01*
X45851001Y-120439479D01*
X45851000Y-122384531D01*
X45846719Y-122428000D01*
X45851000Y-122471469D01*
X45851000Y-122471476D01*
X45863805Y-122601489D01*
X45914411Y-122768312D01*
X45996589Y-122922058D01*
X46107183Y-123056817D01*
X46140956Y-123084534D01*
X47353501Y-124297080D01*
X47353501Y-124561004D01*
X47273038Y-124627038D01*
X47162595Y-124761614D01*
X47118024Y-124845000D01*
X45136656Y-124845000D01*
X45095475Y-124783368D01*
X44888632Y-124576525D01*
X44714240Y-124460000D01*
X44888632Y-124343475D01*
X45095475Y-124136632D01*
X45257990Y-123893411D01*
X45369932Y-123623158D01*
X45427000Y-123336260D01*
X45427000Y-123043740D01*
X45369932Y-122756842D01*
X45257990Y-122486589D01*
X45095475Y-122243368D01*
X44888632Y-122036525D01*
X44714240Y-121920000D01*
X44888632Y-121803475D01*
X45095475Y-121596632D01*
X45257990Y-121353411D01*
X45369932Y-121083158D01*
X45427000Y-120796260D01*
X45427000Y-120503740D01*
X45369932Y-120216842D01*
X45257990Y-119946589D01*
X45095475Y-119703368D01*
X44888632Y-119496525D01*
X44714240Y-119380000D01*
X44888632Y-119263475D01*
X45095475Y-119056632D01*
X45257990Y-118813411D01*
X45369932Y-118543158D01*
X45427000Y-118256260D01*
X45427000Y-117963740D01*
X45369932Y-117676842D01*
X45267688Y-117430000D01*
X47861928Y-117430000D01*
X47865000Y-117594250D01*
X48023750Y-117753000D01*
X49023000Y-117753000D01*
X49023000Y-116953750D01*
X48864250Y-116795000D01*
X48500000Y-116791928D01*
X48375518Y-116804188D01*
X48255820Y-116840498D01*
X48145506Y-116899463D01*
X48048815Y-116978815D01*
X47969463Y-117075506D01*
X47910498Y-117185820D01*
X47874188Y-117305518D01*
X47861928Y-117430000D01*
X45267688Y-117430000D01*
X45257990Y-117406589D01*
X45095475Y-117163368D01*
X44963620Y-117031513D01*
X45036180Y-117009502D01*
X45146494Y-116950537D01*
X45243185Y-116871185D01*
X45322537Y-116774494D01*
X45381502Y-116664180D01*
X45417812Y-116544482D01*
X45430072Y-116420000D01*
X45427000Y-115855750D01*
X45268250Y-115697000D01*
X44069000Y-115697000D01*
X44069000Y-115717000D01*
X43815000Y-115717000D01*
X43815000Y-115697000D01*
X42615750Y-115697000D01*
X42457000Y-115855750D01*
X42453928Y-116420000D01*
X42466188Y-116544482D01*
X42502498Y-116664180D01*
X42561463Y-116774494D01*
X42640815Y-116871185D01*
X42737506Y-116950537D01*
X42847820Y-117009502D01*
X42920380Y-117031513D01*
X42788525Y-117163368D01*
X42626010Y-117406589D01*
X42514068Y-117676842D01*
X42457000Y-117963740D01*
X42457000Y-118256260D01*
X42514068Y-118543158D01*
X42626010Y-118813411D01*
X42788525Y-119056632D01*
X42995368Y-119263475D01*
X43169760Y-119380000D01*
X42995368Y-119496525D01*
X42788525Y-119703368D01*
X42626010Y-119946589D01*
X42514068Y-120216842D01*
X42457000Y-120503740D01*
X42457000Y-120796260D01*
X42514068Y-121083158D01*
X42626010Y-121353411D01*
X42788525Y-121596632D01*
X42995368Y-121803475D01*
X43169760Y-121920000D01*
X42995368Y-122036525D01*
X42788525Y-122243368D01*
X42626010Y-122486589D01*
X42514068Y-122756842D01*
X42457000Y-123043740D01*
X42457000Y-123336260D01*
X42514068Y-123623158D01*
X42626010Y-123893411D01*
X42788525Y-124136632D01*
X42995368Y-124343475D01*
X43169760Y-124460000D01*
X42995368Y-124576525D01*
X42788525Y-124783368D01*
X42626010Y-125026589D01*
X42514068Y-125296842D01*
X42457000Y-125583740D01*
X42457000Y-125876260D01*
X42514068Y-126163158D01*
X42626010Y-126433411D01*
X42788525Y-126676632D01*
X42995368Y-126883475D01*
X43238589Y-127045990D01*
X43508842Y-127157932D01*
X43795740Y-127215000D01*
X44088260Y-127215000D01*
X44375158Y-127157932D01*
X44645411Y-127045990D01*
X44888632Y-126883475D01*
X45095475Y-126676632D01*
X45136656Y-126615000D01*
X47118024Y-126615000D01*
X47162595Y-126698386D01*
X47273038Y-126832962D01*
X47407614Y-126943405D01*
X47561150Y-127025472D01*
X47727746Y-127076008D01*
X47901000Y-127093072D01*
X48576000Y-127093072D01*
X48749254Y-127076008D01*
X48915850Y-127025472D01*
X49069386Y-126943405D01*
X49203962Y-126832962D01*
X49209342Y-126826406D01*
X49274815Y-126906185D01*
X49371506Y-126985537D01*
X49481820Y-127044502D01*
X49601518Y-127080812D01*
X49726000Y-127093072D01*
X50027750Y-127090000D01*
X50186500Y-126931250D01*
X50186500Y-125857000D01*
X50440500Y-125857000D01*
X50440500Y-126931250D01*
X50599250Y-127090000D01*
X50901000Y-127093072D01*
X51025482Y-127080812D01*
X51145180Y-127044502D01*
X51255494Y-126985537D01*
X51352185Y-126906185D01*
X51431537Y-126809494D01*
X51490502Y-126699180D01*
X51526812Y-126579482D01*
X51539072Y-126455000D01*
X51536000Y-126015750D01*
X51377250Y-125857000D01*
X50440500Y-125857000D01*
X50186500Y-125857000D01*
X50166500Y-125857000D01*
X50166500Y-125603000D01*
X50186500Y-125603000D01*
X50186500Y-124528750D01*
X50440500Y-124528750D01*
X50440500Y-125603000D01*
X51377250Y-125603000D01*
X51536000Y-125444250D01*
X51539072Y-125005000D01*
X51526812Y-124880518D01*
X51490502Y-124760820D01*
X51431537Y-124650506D01*
X51352185Y-124553815D01*
X51255494Y-124474463D01*
X51145180Y-124415498D01*
X51025482Y-124379188D01*
X50901000Y-124366928D01*
X50599250Y-124370000D01*
X50440500Y-124528750D01*
X50186500Y-124528750D01*
X50027750Y-124370000D01*
X49726000Y-124366928D01*
X49601518Y-124379188D01*
X49481820Y-124415498D01*
X49371506Y-124474463D01*
X49274815Y-124553815D01*
X49209342Y-124633594D01*
X49203962Y-124627038D01*
X49123500Y-124561005D01*
X49123500Y-123887023D01*
X49110695Y-123757010D01*
X49060089Y-123590187D01*
X48977911Y-123436441D01*
X48867317Y-123301683D01*
X48809373Y-123254129D01*
X48789532Y-123229953D01*
X47621000Y-122061422D01*
X47621000Y-120762578D01*
X47861928Y-120521650D01*
X47861928Y-121330000D01*
X47874188Y-121454482D01*
X47910498Y-121574180D01*
X47969463Y-121684494D01*
X48048815Y-121781185D01*
X48145506Y-121860537D01*
X48255820Y-121919502D01*
X48375518Y-121955812D01*
X48500000Y-121968072D01*
X49800000Y-121968072D01*
X49924482Y-121955812D01*
X50044180Y-121919502D01*
X50154494Y-121860537D01*
X50251185Y-121781185D01*
X50264468Y-121765000D01*
X56411531Y-121765000D01*
X56455000Y-121769281D01*
X56498469Y-121765000D01*
X56498477Y-121765000D01*
X56628490Y-121752195D01*
X56795313Y-121701589D01*
X56949059Y-121619411D01*
X57083817Y-121508817D01*
X57111534Y-121475044D01*
X57176006Y-121410572D01*
X57625000Y-121410572D01*
X57798254Y-121393508D01*
X57964850Y-121342972D01*
X58118386Y-121260905D01*
X58252962Y-121150462D01*
X58363405Y-121015886D01*
X58445472Y-120862350D01*
X58496008Y-120695754D01*
X58513072Y-120522500D01*
X58513072Y-120073506D01*
X59987032Y-118599547D01*
X59987036Y-118599542D01*
X60260824Y-118325754D01*
X60560549Y-118026030D01*
X60594317Y-117998317D01*
X60622032Y-117964547D01*
X60861579Y-117725000D01*
X80741546Y-117725000D01*
X80789744Y-117757205D01*
X80978102Y-117835226D01*
X81034957Y-117846535D01*
X88015001Y-124826580D01*
X88015000Y-125805344D01*
X87953368Y-125846525D01*
X87746525Y-126053368D01*
X87584010Y-126296589D01*
X87472068Y-126566842D01*
X87415000Y-126853740D01*
X87415000Y-127146260D01*
X87472068Y-127433158D01*
X87584010Y-127703411D01*
X87746525Y-127946632D01*
X87953368Y-128153475D01*
X88015001Y-128194657D01*
X88015001Y-128226522D01*
X88010719Y-128270000D01*
X88027805Y-128443490D01*
X88078412Y-128610313D01*
X88160590Y-128764059D01*
X88243468Y-128865046D01*
X88243471Y-128865049D01*
X88271184Y-128898817D01*
X88304952Y-128926530D01*
X88751466Y-129373044D01*
X88779183Y-129406817D01*
X88913941Y-129517411D01*
X89067687Y-129599589D01*
X89234510Y-129650195D01*
X89364523Y-129663000D01*
X89364533Y-129663000D01*
X89407999Y-129667281D01*
X89451465Y-129663000D01*
X96476531Y-129663000D01*
X96520000Y-129667281D01*
X96563469Y-129663000D01*
X96563477Y-129663000D01*
X96693490Y-129650195D01*
X96860313Y-129599589D01*
X97014059Y-129517411D01*
X97148817Y-129406817D01*
X97176534Y-129373044D01*
X98639050Y-127910529D01*
X98672817Y-127882817D01*
X98783411Y-127748059D01*
X98865589Y-127594313D01*
X98916195Y-127427490D01*
X98929000Y-127297477D01*
X98929000Y-127297467D01*
X98933281Y-127254001D01*
X98929000Y-127210535D01*
X98929000Y-98458000D01*
X99728815Y-98458000D01*
X99757487Y-98749111D01*
X99842401Y-99029034D01*
X99980294Y-99287014D01*
X100165866Y-99513134D01*
X100391986Y-99698706D01*
X100409374Y-99708000D01*
X100391986Y-99717294D01*
X100165866Y-99902866D01*
X99980294Y-100128986D01*
X99842401Y-100386966D01*
X99757487Y-100666889D01*
X99728815Y-100958000D01*
X99757487Y-101249111D01*
X99842401Y-101529034D01*
X99980294Y-101787014D01*
X100165866Y-102013134D01*
X100391986Y-102198706D01*
X100409374Y-102208000D01*
X100391986Y-102217294D01*
X100165866Y-102402866D01*
X99980294Y-102628986D01*
X99842401Y-102886966D01*
X99757487Y-103166889D01*
X99728815Y-103458000D01*
X99757487Y-103749111D01*
X99842401Y-104029034D01*
X99980294Y-104287014D01*
X100165866Y-104513134D01*
X100391986Y-104698706D01*
X100409374Y-104708000D01*
X100391986Y-104717294D01*
X100165866Y-104902866D01*
X99980294Y-105128986D01*
X99842401Y-105386966D01*
X99757487Y-105666889D01*
X99728815Y-105958000D01*
X99757487Y-106249111D01*
X99842401Y-106529034D01*
X99980294Y-106787014D01*
X100165866Y-107013134D01*
X100229337Y-107065223D01*
X100127614Y-107119595D01*
X99993038Y-107230038D01*
X99882595Y-107364614D01*
X99800528Y-107518150D01*
X99749992Y-107684746D01*
X99732928Y-107858000D01*
X99732928Y-109058000D01*
X99749992Y-109231254D01*
X99800528Y-109397850D01*
X99882595Y-109551386D01*
X99993038Y-109685962D01*
X100127614Y-109796405D01*
X100281150Y-109878472D01*
X100447746Y-109929008D01*
X100621000Y-109946072D01*
X102071000Y-109946072D01*
X102244254Y-109929008D01*
X102410850Y-109878472D01*
X102564386Y-109796405D01*
X102698962Y-109685962D01*
X102809405Y-109551386D01*
X102891472Y-109397850D01*
X102942008Y-109231254D01*
X102959072Y-109058000D01*
X102959072Y-107858000D01*
X102942008Y-107684746D01*
X102891472Y-107518150D01*
X102809405Y-107364614D01*
X102698962Y-107230038D01*
X102564386Y-107119595D01*
X102462663Y-107065223D01*
X102526134Y-107013134D01*
X102711706Y-106787014D01*
X102849599Y-106529034D01*
X102934513Y-106249111D01*
X102963185Y-105958000D01*
X102934513Y-105666889D01*
X102849599Y-105386966D01*
X102711706Y-105128986D01*
X102526134Y-104902866D01*
X102300014Y-104717294D01*
X102282626Y-104708000D01*
X102300014Y-104698706D01*
X102526134Y-104513134D01*
X102711706Y-104287014D01*
X102849599Y-104029034D01*
X102934513Y-103749111D01*
X102963185Y-103458000D01*
X102934513Y-103166889D01*
X102849599Y-102886966D01*
X102711706Y-102628986D01*
X102526134Y-102402866D01*
X102300014Y-102217294D01*
X102282626Y-102208000D01*
X102300014Y-102198706D01*
X102526134Y-102013134D01*
X102711706Y-101787014D01*
X102849599Y-101529034D01*
X102934513Y-101249111D01*
X102963185Y-100958000D01*
X102934513Y-100666889D01*
X102849599Y-100386966D01*
X102711706Y-100128986D01*
X102526134Y-99902866D01*
X102300014Y-99717294D01*
X102282626Y-99708000D01*
X102300014Y-99698706D01*
X102526134Y-99513134D01*
X102711706Y-99287014D01*
X102849599Y-99029034D01*
X102934513Y-98749111D01*
X102963185Y-98458000D01*
X102934513Y-98166889D01*
X102849599Y-97886966D01*
X102711706Y-97628986D01*
X102526134Y-97402866D01*
X102300014Y-97217294D01*
X102042034Y-97079401D01*
X101762111Y-96994487D01*
X101543950Y-96973000D01*
X101148050Y-96973000D01*
X100929889Y-96994487D01*
X100649966Y-97079401D01*
X100391986Y-97217294D01*
X100165866Y-97402866D01*
X99980294Y-97628986D01*
X99842401Y-97886966D01*
X99757487Y-98166889D01*
X99728815Y-98458000D01*
X98929000Y-98458000D01*
X98929000Y-86403469D01*
X98933281Y-86360000D01*
X98929000Y-86316531D01*
X98929000Y-86316523D01*
X98916195Y-86186510D01*
X98865589Y-86019687D01*
X98783411Y-85865941D01*
X98740581Y-85813753D01*
X98700532Y-85764953D01*
X98700530Y-85764951D01*
X98672817Y-85731183D01*
X98639049Y-85703470D01*
X97684534Y-84748956D01*
X97656817Y-84715183D01*
X97522059Y-84604589D01*
X97368313Y-84522411D01*
X97201490Y-84471805D01*
X97071477Y-84459000D01*
X97071469Y-84459000D01*
X97028000Y-84454719D01*
X96984531Y-84459000D01*
X73957469Y-84459000D01*
X73914000Y-84454719D01*
X73870531Y-84459000D01*
X73870523Y-84459000D01*
X73755306Y-84470348D01*
X73740509Y-84471805D01*
X73689903Y-84487157D01*
X73573687Y-84522411D01*
X73419941Y-84604589D01*
X73419939Y-84604590D01*
X73419940Y-84604590D01*
X73318953Y-84687468D01*
X73318951Y-84687470D01*
X73285183Y-84715183D01*
X73257470Y-84748951D01*
X72302956Y-85703466D01*
X72269183Y-85731183D01*
X72158589Y-85865942D01*
X72076411Y-86019688D01*
X72041157Y-86135904D01*
X72025805Y-86186510D01*
X72025412Y-86190498D01*
X72013000Y-86316524D01*
X72013000Y-86316531D01*
X72008719Y-86360000D01*
X72013000Y-86403470D01*
X72013000Y-86435344D01*
X71951368Y-86476525D01*
X71744525Y-86683368D01*
X71582010Y-86926589D01*
X71470068Y-87196842D01*
X71413000Y-87483740D01*
X71413000Y-87776260D01*
X71470068Y-88063158D01*
X71582010Y-88333411D01*
X71744525Y-88576632D01*
X71951368Y-88783475D01*
X72013001Y-88824657D01*
X72013000Y-95264531D01*
X72008719Y-95308000D01*
X72013000Y-95351469D01*
X72013000Y-95351476D01*
X72025805Y-95481489D01*
X72076411Y-95648312D01*
X72158589Y-95802058D01*
X72269183Y-95936817D01*
X72302956Y-95964534D01*
X77898470Y-101560049D01*
X77926183Y-101593817D01*
X77959951Y-101621530D01*
X77959953Y-101621532D01*
X77970937Y-101630546D01*
X78031890Y-101680569D01*
X77976916Y-101783418D01*
X77932071Y-101931255D01*
X77916928Y-102085000D01*
X77916928Y-102385000D01*
X77932071Y-102538745D01*
X77976916Y-102686582D01*
X78049742Y-102822829D01*
X78088454Y-102870000D01*
X78049742Y-102917171D01*
X77976916Y-103053418D01*
X77932071Y-103201255D01*
X77916928Y-103355000D01*
X77916928Y-103655000D01*
X77932071Y-103808745D01*
X77976916Y-103956582D01*
X78049742Y-104092829D01*
X78088454Y-104140000D01*
X78049742Y-104187171D01*
X77976916Y-104323418D01*
X77932071Y-104471255D01*
X77916928Y-104625000D01*
X77916928Y-104925000D01*
X77932071Y-105078745D01*
X77976916Y-105226582D01*
X78049742Y-105362829D01*
X78088454Y-105410000D01*
X78049742Y-105457171D01*
X77976916Y-105593418D01*
X77932071Y-105741255D01*
X77916928Y-105895000D01*
X77916928Y-106195000D01*
X77932071Y-106348745D01*
X77976916Y-106496582D01*
X78049742Y-106632829D01*
X78088454Y-106680000D01*
X78049742Y-106727171D01*
X77976916Y-106863418D01*
X77932071Y-107011255D01*
X77916928Y-107165000D01*
X77916928Y-107465000D01*
X77932071Y-107618745D01*
X77976916Y-107766582D01*
X78049742Y-107902829D01*
X78088454Y-107950000D01*
X78049742Y-107997171D01*
X77976916Y-108133418D01*
X77932071Y-108281255D01*
X77916928Y-108435000D01*
X77916928Y-108735000D01*
X77932071Y-108888745D01*
X77976916Y-109036582D01*
X78049742Y-109172829D01*
X78088454Y-109220000D01*
X78049742Y-109267171D01*
X77976916Y-109403418D01*
X77932071Y-109551255D01*
X77916928Y-109705000D01*
X77916928Y-110005000D01*
X77932071Y-110158745D01*
X77976916Y-110306582D01*
X78049742Y-110442829D01*
X78088454Y-110490000D01*
X78049742Y-110537171D01*
X77976916Y-110673418D01*
X77932071Y-110821255D01*
X77916928Y-110975000D01*
X77916928Y-111275000D01*
X77932071Y-111428745D01*
X77976916Y-111576582D01*
X78049742Y-111712829D01*
X78147749Y-111832251D01*
X78267171Y-111930258D01*
X78403418Y-112003084D01*
X78551255Y-112047929D01*
X78705000Y-112063072D01*
X80455000Y-112063072D01*
X80608745Y-112047929D01*
X80756582Y-112003084D01*
X80892829Y-111930258D01*
X80947976Y-111885000D01*
X81369678Y-111885000D01*
X81407000Y-111888676D01*
X81444322Y-111885000D01*
X81444333Y-111885000D01*
X81555986Y-111874003D01*
X81699247Y-111830546D01*
X81831276Y-111759974D01*
X81947001Y-111665001D01*
X81970804Y-111635998D01*
X82589802Y-111017000D01*
X82651939Y-111017000D01*
X82851898Y-110977226D01*
X83040256Y-110899205D01*
X83209774Y-110785937D01*
X83353937Y-110641774D01*
X83467205Y-110472256D01*
X83545226Y-110283898D01*
X83585000Y-110083939D01*
X83585000Y-109880061D01*
X83545226Y-109680102D01*
X83467205Y-109491744D01*
X83353937Y-109322226D01*
X83251711Y-109220000D01*
X83353937Y-109117774D01*
X83467205Y-108948256D01*
X83545226Y-108759898D01*
X83585000Y-108559939D01*
X83585000Y-108356061D01*
X83545226Y-108156102D01*
X83467205Y-107967744D01*
X83353937Y-107798226D01*
X83247051Y-107691340D01*
X83349277Y-107589114D01*
X83462545Y-107419596D01*
X83540566Y-107231238D01*
X83580340Y-107031279D01*
X83580340Y-106827401D01*
X83540566Y-106627442D01*
X83462545Y-106439084D01*
X83369717Y-106300157D01*
X83467205Y-106154256D01*
X83545226Y-105965898D01*
X83585000Y-105765939D01*
X83585000Y-105562061D01*
X83545226Y-105362102D01*
X83467205Y-105173744D01*
X83353937Y-105004226D01*
X83209774Y-104860063D01*
X83040256Y-104746795D01*
X82996239Y-104728562D01*
X88649004Y-99075798D01*
X88678001Y-99052001D01*
X88772974Y-98936276D01*
X88843546Y-98804247D01*
X88887003Y-98660986D01*
X88898000Y-98549333D01*
X88898000Y-98549325D01*
X88901676Y-98512000D01*
X88898000Y-98474675D01*
X88898000Y-88908178D01*
X89084632Y-88783475D01*
X89291475Y-88576632D01*
X89408000Y-88402240D01*
X89524525Y-88576632D01*
X89731368Y-88783475D01*
X89974589Y-88945990D01*
X90244842Y-89057932D01*
X90531740Y-89115000D01*
X90824260Y-89115000D01*
X91111158Y-89057932D01*
X91381411Y-88945990D01*
X91624632Y-88783475D01*
X91831475Y-88576632D01*
X91948000Y-88402240D01*
X91950000Y-88405233D01*
X91950001Y-118303197D01*
X91690998Y-118562201D01*
X91437007Y-118816192D01*
X91436996Y-118816201D01*
X90384198Y-119869000D01*
X90322061Y-119869000D01*
X90122102Y-119908774D01*
X89933744Y-119986795D01*
X89764226Y-120100063D01*
X89620063Y-120244226D01*
X89506795Y-120413744D01*
X89428774Y-120602102D01*
X89389000Y-120802061D01*
X89389000Y-121005939D01*
X89428774Y-121205898D01*
X89506795Y-121394256D01*
X89620063Y-121563774D01*
X89764226Y-121707937D01*
X89933744Y-121821205D01*
X90122102Y-121899226D01*
X90322061Y-121939000D01*
X90525939Y-121939000D01*
X90725898Y-121899226D01*
X90914256Y-121821205D01*
X91083774Y-121707937D01*
X91227937Y-121563774D01*
X91341205Y-121394256D01*
X91419226Y-121205898D01*
X91459000Y-121005939D01*
X91459000Y-120943802D01*
X92511799Y-119891004D01*
X92511808Y-119890993D01*
X93221002Y-119181799D01*
X93250001Y-119158001D01*
X93344974Y-119042276D01*
X93415546Y-118910247D01*
X93459003Y-118766986D01*
X93470000Y-118655333D01*
X93470000Y-118655325D01*
X93473676Y-118618000D01*
X93470000Y-118580675D01*
X93470000Y-109892684D01*
X93589746Y-109929008D01*
X93763000Y-109946072D01*
X95213000Y-109946072D01*
X95386254Y-109929008D01*
X95552850Y-109878472D01*
X95706386Y-109796405D01*
X95840962Y-109685962D01*
X95951405Y-109551386D01*
X96033472Y-109397850D01*
X96084008Y-109231254D01*
X96101072Y-109058000D01*
X96101072Y-107858000D01*
X96084008Y-107684746D01*
X96033472Y-107518150D01*
X95951405Y-107364614D01*
X95840962Y-107230038D01*
X95706386Y-107119595D01*
X95604663Y-107065223D01*
X95668134Y-107013134D01*
X95853706Y-106787014D01*
X95991599Y-106529034D01*
X96076513Y-106249111D01*
X96105185Y-105958000D01*
X96076513Y-105666889D01*
X95991599Y-105386966D01*
X95853706Y-105128986D01*
X95668134Y-104902866D01*
X95442014Y-104717294D01*
X95424626Y-104708000D01*
X95442014Y-104698706D01*
X95668134Y-104513134D01*
X95853706Y-104287014D01*
X95991599Y-104029034D01*
X96076513Y-103749111D01*
X96105185Y-103458000D01*
X96076513Y-103166889D01*
X95991599Y-102886966D01*
X95853706Y-102628986D01*
X95668134Y-102402866D01*
X95442014Y-102217294D01*
X95424626Y-102208000D01*
X95442014Y-102198706D01*
X95668134Y-102013134D01*
X95853706Y-101787014D01*
X95991599Y-101529034D01*
X96076513Y-101249111D01*
X96105185Y-100958000D01*
X96076513Y-100666889D01*
X95991599Y-100386966D01*
X95853706Y-100128986D01*
X95668134Y-99902866D01*
X95442014Y-99717294D01*
X95424626Y-99708000D01*
X95442014Y-99698706D01*
X95668134Y-99513134D01*
X95853706Y-99287014D01*
X95991599Y-99029034D01*
X96076513Y-98749111D01*
X96105185Y-98458000D01*
X96076513Y-98166889D01*
X95991599Y-97886966D01*
X95853706Y-97628986D01*
X95668134Y-97402866D01*
X95442014Y-97217294D01*
X95184034Y-97079401D01*
X94904111Y-96994487D01*
X94685950Y-96973000D01*
X94290050Y-96973000D01*
X94071889Y-96994487D01*
X93791966Y-97079401D01*
X93533986Y-97217294D01*
X93470000Y-97269806D01*
X93470000Y-89093967D01*
X93651158Y-89057932D01*
X93921411Y-88945990D01*
X94164632Y-88783475D01*
X94296487Y-88651620D01*
X94318498Y-88724180D01*
X94377463Y-88834494D01*
X94456815Y-88931185D01*
X94553506Y-89010537D01*
X94663820Y-89069502D01*
X94783518Y-89105812D01*
X94908000Y-89118072D01*
X95472250Y-89115000D01*
X95631000Y-88956250D01*
X95631000Y-87757000D01*
X95611000Y-87757000D01*
X95611000Y-87503000D01*
X95631000Y-87503000D01*
X95631000Y-87483000D01*
X95885000Y-87483000D01*
X95885000Y-87503000D01*
X95905000Y-87503000D01*
X95905000Y-87757000D01*
X95885000Y-87757000D01*
X95885000Y-88956250D01*
X96043750Y-89115000D01*
X96608000Y-89118072D01*
X96732482Y-89105812D01*
X96852180Y-89069502D01*
X96962494Y-89010537D01*
X97059185Y-88931185D01*
X97138537Y-88834494D01*
X97159001Y-88796209D01*
X97159000Y-126887421D01*
X96153422Y-127893000D01*
X95463837Y-127893000D01*
X95468072Y-127850000D01*
X95465000Y-127285750D01*
X95306250Y-127127000D01*
X94107000Y-127127000D01*
X94107000Y-127147000D01*
X93853000Y-127147000D01*
X93853000Y-127127000D01*
X93833000Y-127127000D01*
X93833000Y-126873000D01*
X93853000Y-126873000D01*
X93853000Y-125673750D01*
X94107000Y-125673750D01*
X94107000Y-126873000D01*
X95306250Y-126873000D01*
X95465000Y-126714250D01*
X95468072Y-126150000D01*
X95455812Y-126025518D01*
X95419502Y-125905820D01*
X95360537Y-125795506D01*
X95281185Y-125698815D01*
X95184494Y-125619463D01*
X95074180Y-125560498D01*
X94954482Y-125524188D01*
X94830000Y-125511928D01*
X94265750Y-125515000D01*
X94107000Y-125673750D01*
X93853000Y-125673750D01*
X93694250Y-125515000D01*
X93130000Y-125511928D01*
X93005518Y-125524188D01*
X92885820Y-125560498D01*
X92775506Y-125619463D01*
X92678815Y-125698815D01*
X92599463Y-125795506D01*
X92540498Y-125905820D01*
X92518487Y-125978380D01*
X92386632Y-125846525D01*
X92143411Y-125684010D01*
X91873158Y-125572068D01*
X91586260Y-125515000D01*
X91293740Y-125515000D01*
X91006842Y-125572068D01*
X90736589Y-125684010D01*
X90493368Y-125846525D01*
X90286525Y-126053368D01*
X90170000Y-126227760D01*
X90053475Y-126053368D01*
X89846632Y-125846525D01*
X89785000Y-125805344D01*
X89785000Y-124503465D01*
X89789281Y-124459999D01*
X89785000Y-124416533D01*
X89785000Y-124416523D01*
X89772195Y-124286510D01*
X89721589Y-124119687D01*
X89639411Y-123965941D01*
X89528817Y-123831183D01*
X89495049Y-123803470D01*
X82286535Y-116594957D01*
X82275226Y-116538102D01*
X82197205Y-116349744D01*
X82083937Y-116180226D01*
X81939774Y-116036063D01*
X81770256Y-115922795D01*
X81581898Y-115844774D01*
X81381939Y-115805000D01*
X81178061Y-115805000D01*
X80978102Y-115844774D01*
X80789744Y-115922795D01*
X80741546Y-115955000D01*
X62185000Y-115955000D01*
X62185000Y-112225501D01*
X62251185Y-112171185D01*
X62330537Y-112074494D01*
X62389502Y-111964180D01*
X62425812Y-111844482D01*
X62438072Y-111720000D01*
X62438072Y-109220000D01*
X62425812Y-109095518D01*
X62399286Y-109008072D01*
X63700000Y-109008072D01*
X63824482Y-108995812D01*
X63944180Y-108959502D01*
X64054494Y-108900537D01*
X64151185Y-108821185D01*
X64230537Y-108724494D01*
X64289502Y-108614180D01*
X64325812Y-108494482D01*
X64338072Y-108370000D01*
X64338072Y-108084873D01*
X64899000Y-108645802D01*
X64899000Y-108897289D01*
X64855063Y-108941226D01*
X64741795Y-109110744D01*
X64663774Y-109299102D01*
X64624000Y-109499061D01*
X64624000Y-109702939D01*
X64663774Y-109902898D01*
X64741795Y-110091256D01*
X64855063Y-110260774D01*
X64999226Y-110404937D01*
X65168744Y-110518205D01*
X65357102Y-110596226D01*
X65557061Y-110636000D01*
X65760939Y-110636000D01*
X65960898Y-110596226D01*
X66149256Y-110518205D01*
X66318774Y-110404937D01*
X66462937Y-110260774D01*
X66576205Y-110091256D01*
X66654226Y-109902898D01*
X66694000Y-109702939D01*
X66694000Y-109499061D01*
X66654226Y-109299102D01*
X66576205Y-109110744D01*
X66462937Y-108941226D01*
X66419000Y-108897289D01*
X66419000Y-108368322D01*
X66422676Y-108330999D01*
X66419000Y-108293676D01*
X66419000Y-108293667D01*
X66408003Y-108182014D01*
X66364546Y-108038753D01*
X66293974Y-107906724D01*
X66199001Y-107790999D01*
X66170004Y-107767202D01*
X65831050Y-107428248D01*
X65937774Y-107356937D01*
X66081937Y-107212774D01*
X66195205Y-107043256D01*
X66273226Y-106854898D01*
X66313000Y-106654939D01*
X66313000Y-106451061D01*
X66273226Y-106251102D01*
X66195205Y-106062744D01*
X66081937Y-105893226D01*
X66026987Y-105838276D01*
X65983546Y-105695068D01*
X65912974Y-105563039D01*
X65818001Y-105447314D01*
X65789004Y-105423517D01*
X64756489Y-104391002D01*
X64732686Y-104361999D01*
X64616961Y-104267026D01*
X64484932Y-104196454D01*
X64341671Y-104152997D01*
X64338072Y-104152643D01*
X64338072Y-103370000D01*
X64325812Y-103245518D01*
X64289502Y-103125820D01*
X64230537Y-103015506D01*
X64151185Y-102918815D01*
X64091704Y-102870000D01*
X64151185Y-102821185D01*
X64230537Y-102724494D01*
X64289502Y-102614180D01*
X64325812Y-102494482D01*
X64338072Y-102370000D01*
X64338072Y-101370000D01*
X64325812Y-101245518D01*
X64289502Y-101125820D01*
X64230537Y-101015506D01*
X64151185Y-100918815D01*
X64091704Y-100870000D01*
X64151185Y-100821185D01*
X64230537Y-100724494D01*
X64289502Y-100614180D01*
X64325812Y-100494482D01*
X64338072Y-100370000D01*
X64338072Y-99370000D01*
X64325812Y-99245518D01*
X64289502Y-99125820D01*
X64230537Y-99015506D01*
X64151185Y-98918815D01*
X64091704Y-98870000D01*
X64151185Y-98821185D01*
X64230537Y-98724494D01*
X64289502Y-98614180D01*
X64325812Y-98494482D01*
X64326607Y-98486408D01*
X64776207Y-98936008D01*
X64800001Y-98965001D01*
X64807675Y-98971299D01*
X64790774Y-99012102D01*
X64751000Y-99212061D01*
X64751000Y-99415939D01*
X64790774Y-99615898D01*
X64868795Y-99804256D01*
X64982063Y-99973774D01*
X65126226Y-100117937D01*
X65295744Y-100231205D01*
X65484102Y-100309226D01*
X65684061Y-100349000D01*
X65746199Y-100349000D01*
X66873201Y-101476003D01*
X66896999Y-101505001D01*
X66925997Y-101528799D01*
X67012724Y-101599974D01*
X67144753Y-101670546D01*
X67194325Y-101685583D01*
X67154795Y-101744744D01*
X67076774Y-101933102D01*
X67037000Y-102133061D01*
X67037000Y-102336939D01*
X67076774Y-102536898D01*
X67154795Y-102725256D01*
X67268063Y-102894774D01*
X67412226Y-103038937D01*
X67581744Y-103152205D01*
X67770102Y-103230226D01*
X67970061Y-103270000D01*
X68173939Y-103270000D01*
X68373898Y-103230226D01*
X68562256Y-103152205D01*
X68668480Y-103081229D01*
X68632071Y-103201255D01*
X68616928Y-103355000D01*
X68616928Y-103655000D01*
X68632071Y-103808745D01*
X68676916Y-103956582D01*
X68749742Y-104092829D01*
X68788454Y-104140000D01*
X68749742Y-104187171D01*
X68676916Y-104323418D01*
X68632071Y-104471255D01*
X68616928Y-104625000D01*
X68616928Y-104925000D01*
X68632071Y-105078745D01*
X68676916Y-105226582D01*
X68749742Y-105362829D01*
X68788454Y-105410000D01*
X68749742Y-105457171D01*
X68676916Y-105593418D01*
X68632071Y-105741255D01*
X68616928Y-105895000D01*
X68616928Y-106195000D01*
X68632071Y-106348745D01*
X68676916Y-106496582D01*
X68749742Y-106632829D01*
X68788454Y-106680000D01*
X68749742Y-106727171D01*
X68676916Y-106863418D01*
X68632071Y-107011255D01*
X68616928Y-107165000D01*
X68616928Y-107465000D01*
X68632071Y-107618745D01*
X68676916Y-107766582D01*
X68749742Y-107902829D01*
X68788454Y-107950000D01*
X68749742Y-107997171D01*
X68676916Y-108133418D01*
X68632071Y-108281255D01*
X68616928Y-108435000D01*
X68616928Y-108735000D01*
X68632071Y-108888745D01*
X68676916Y-109036582D01*
X68749742Y-109172829D01*
X68788454Y-109220000D01*
X68749742Y-109267171D01*
X68676916Y-109403418D01*
X68632071Y-109551255D01*
X68616928Y-109705000D01*
X68616928Y-110005000D01*
X68632071Y-110158745D01*
X68676916Y-110306582D01*
X68749742Y-110442829D01*
X68788454Y-110490000D01*
X68749742Y-110537171D01*
X68676916Y-110673418D01*
X68632071Y-110821255D01*
X68616928Y-110975000D01*
X68616928Y-111275000D01*
X68632071Y-111428745D01*
X68676916Y-111576582D01*
X68749742Y-111712829D01*
X68847749Y-111832251D01*
X68967171Y-111930258D01*
X69103418Y-112003084D01*
X69251255Y-112047929D01*
X69405000Y-112063072D01*
X71155000Y-112063072D01*
X71308745Y-112047929D01*
X71456582Y-112003084D01*
X71592829Y-111930258D01*
X71712251Y-111832251D01*
X71810258Y-111712829D01*
X71883084Y-111576582D01*
X71927929Y-111428745D01*
X71943072Y-111275000D01*
X71943072Y-110975000D01*
X71927929Y-110821255D01*
X71883084Y-110673418D01*
X71810258Y-110537171D01*
X71771546Y-110490000D01*
X71810258Y-110442829D01*
X71883084Y-110306582D01*
X71927929Y-110158745D01*
X71943072Y-110005000D01*
X71943072Y-109705000D01*
X71927929Y-109551255D01*
X71883084Y-109403418D01*
X71810258Y-109267171D01*
X71771546Y-109220000D01*
X71810258Y-109172829D01*
X71883084Y-109036582D01*
X71927929Y-108888745D01*
X71943072Y-108735000D01*
X71943072Y-108435000D01*
X71927929Y-108281255D01*
X71883084Y-108133418D01*
X71810258Y-107997171D01*
X71771546Y-107950000D01*
X71810258Y-107902829D01*
X71883084Y-107766582D01*
X71927929Y-107618745D01*
X71943072Y-107465000D01*
X71943072Y-107165000D01*
X71927929Y-107011255D01*
X71883084Y-106863418D01*
X71810258Y-106727171D01*
X71771546Y-106680000D01*
X71810258Y-106632829D01*
X71883084Y-106496582D01*
X71927929Y-106348745D01*
X71943072Y-106195000D01*
X71943072Y-105895000D01*
X71927929Y-105741255D01*
X71883084Y-105593418D01*
X71810258Y-105457171D01*
X71771546Y-105410000D01*
X71810258Y-105362829D01*
X71883084Y-105226582D01*
X71927929Y-105078745D01*
X71943072Y-104925000D01*
X71943072Y-104625000D01*
X71927929Y-104471255D01*
X71883084Y-104323418D01*
X71810258Y-104187171D01*
X71771546Y-104140000D01*
X71810258Y-104092829D01*
X71883084Y-103956582D01*
X71927929Y-103808745D01*
X71943072Y-103655000D01*
X71943072Y-103355000D01*
X71927929Y-103201255D01*
X71883084Y-103053418D01*
X71810258Y-102917171D01*
X71771546Y-102870000D01*
X71810258Y-102822829D01*
X71883084Y-102686582D01*
X71927929Y-102538745D01*
X71943072Y-102385000D01*
X71943072Y-102085000D01*
X71927929Y-101931255D01*
X71883084Y-101783418D01*
X71810258Y-101647171D01*
X71771546Y-101600000D01*
X71810258Y-101552829D01*
X71883084Y-101416582D01*
X71927929Y-101268745D01*
X71943072Y-101115000D01*
X71943072Y-100815000D01*
X71927929Y-100661255D01*
X71883084Y-100513418D01*
X71810258Y-100377171D01*
X71771546Y-100330000D01*
X71810258Y-100282829D01*
X71883084Y-100146582D01*
X71927929Y-99998745D01*
X71943072Y-99845000D01*
X71943072Y-99545000D01*
X71927929Y-99391255D01*
X71883084Y-99243418D01*
X71810258Y-99107171D01*
X71771546Y-99060000D01*
X71810258Y-99012829D01*
X71883084Y-98876582D01*
X71927929Y-98728745D01*
X71943072Y-98575000D01*
X71943072Y-98275000D01*
X71927929Y-98121255D01*
X71883084Y-97973418D01*
X71811270Y-97839064D01*
X71835537Y-97809494D01*
X71894502Y-97699180D01*
X71930812Y-97579482D01*
X71943072Y-97455000D01*
X71940000Y-97440750D01*
X71781250Y-97282000D01*
X70407000Y-97282000D01*
X70407000Y-97302000D01*
X70153000Y-97302000D01*
X70153000Y-97282000D01*
X68778750Y-97282000D01*
X68620000Y-97440750D01*
X68616928Y-97455000D01*
X68629188Y-97579482D01*
X68655130Y-97665000D01*
X65654805Y-97665000D01*
X64379805Y-96390002D01*
X64356003Y-96360999D01*
X64240278Y-96266026D01*
X64108249Y-96195454D01*
X64073787Y-96185000D01*
X68616928Y-96185000D01*
X68629188Y-96309482D01*
X68665498Y-96429180D01*
X68714043Y-96520000D01*
X68665498Y-96610820D01*
X68629188Y-96730518D01*
X68616928Y-96855000D01*
X68620000Y-96869250D01*
X68778750Y-97028000D01*
X70153000Y-97028000D01*
X70153000Y-96012000D01*
X70407000Y-96012000D01*
X70407000Y-97028000D01*
X71781250Y-97028000D01*
X71940000Y-96869250D01*
X71943072Y-96855000D01*
X71930812Y-96730518D01*
X71894502Y-96610820D01*
X71845957Y-96520000D01*
X71894502Y-96429180D01*
X71930812Y-96309482D01*
X71943072Y-96185000D01*
X71940000Y-96170750D01*
X71781250Y-96012000D01*
X70407000Y-96012000D01*
X70153000Y-96012000D01*
X68778750Y-96012000D01*
X68620000Y-96170750D01*
X68616928Y-96185000D01*
X64073787Y-96185000D01*
X63964988Y-96151997D01*
X63853335Y-96141000D01*
X63853324Y-96141000D01*
X63816002Y-96137324D01*
X63778680Y-96141000D01*
X62436865Y-96141000D01*
X62435000Y-95555750D01*
X62276250Y-95397000D01*
X61427000Y-95397000D01*
X61427000Y-95417000D01*
X61173000Y-95417000D01*
X61173000Y-95397000D01*
X61153000Y-95397000D01*
X61153000Y-95143000D01*
X61173000Y-95143000D01*
X61173000Y-93543750D01*
X61427000Y-93543750D01*
X61427000Y-95143000D01*
X62276250Y-95143000D01*
X62435000Y-94984250D01*
X62435220Y-94915000D01*
X68616928Y-94915000D01*
X68629188Y-95039482D01*
X68665498Y-95159180D01*
X68714043Y-95250000D01*
X68665498Y-95340820D01*
X68629188Y-95460518D01*
X68616928Y-95585000D01*
X68620000Y-95599250D01*
X68778750Y-95758000D01*
X70153000Y-95758000D01*
X70153000Y-94742000D01*
X70407000Y-94742000D01*
X70407000Y-95758000D01*
X71781250Y-95758000D01*
X71940000Y-95599250D01*
X71943072Y-95585000D01*
X71930812Y-95460518D01*
X71894502Y-95340820D01*
X71845957Y-95250000D01*
X71894502Y-95159180D01*
X71930812Y-95039482D01*
X71943072Y-94915000D01*
X71940000Y-94900750D01*
X71781250Y-94742000D01*
X70407000Y-94742000D01*
X70153000Y-94742000D01*
X68778750Y-94742000D01*
X68620000Y-94900750D01*
X68616928Y-94915000D01*
X62435220Y-94915000D01*
X62437131Y-94315000D01*
X68616928Y-94315000D01*
X68620000Y-94329250D01*
X68778750Y-94488000D01*
X70153000Y-94488000D01*
X70153000Y-93838750D01*
X70407000Y-93838750D01*
X70407000Y-94488000D01*
X71781250Y-94488000D01*
X71940000Y-94329250D01*
X71943072Y-94315000D01*
X71930812Y-94190518D01*
X71894502Y-94070820D01*
X71835537Y-93960506D01*
X71756185Y-93863815D01*
X71659494Y-93784463D01*
X71549180Y-93725498D01*
X71429482Y-93689188D01*
X71305000Y-93676928D01*
X70565750Y-93680000D01*
X70407000Y-93838750D01*
X70153000Y-93838750D01*
X69994250Y-93680000D01*
X69255000Y-93676928D01*
X69130518Y-93689188D01*
X69010820Y-93725498D01*
X68900506Y-93784463D01*
X68803815Y-93863815D01*
X68724463Y-93960506D01*
X68665498Y-94070820D01*
X68629188Y-94190518D01*
X68616928Y-94315000D01*
X62437131Y-94315000D01*
X62438072Y-94020000D01*
X62425812Y-93895518D01*
X62389502Y-93775820D01*
X62330537Y-93665506D01*
X62251185Y-93568815D01*
X62154494Y-93489463D01*
X62044180Y-93430498D01*
X61924482Y-93394188D01*
X61800000Y-93381928D01*
X61585750Y-93385000D01*
X61427000Y-93543750D01*
X61173000Y-93543750D01*
X61014250Y-93385000D01*
X60800000Y-93381928D01*
X60758817Y-93385984D01*
X61944802Y-92200000D01*
X63860473Y-92200000D01*
X63869528Y-92229851D01*
X63951595Y-92383387D01*
X64062038Y-92517962D01*
X64196613Y-92628405D01*
X64350149Y-92710472D01*
X64516745Y-92761008D01*
X64689999Y-92778072D01*
X65390001Y-92778072D01*
X65563255Y-92761008D01*
X65729851Y-92710472D01*
X65883387Y-92628405D01*
X65964637Y-92561724D01*
X65988815Y-92591185D01*
X66085506Y-92670537D01*
X66195820Y-92729502D01*
X66315518Y-92765812D01*
X66440000Y-92778072D01*
X66754250Y-92775000D01*
X66913000Y-92616250D01*
X66913000Y-91567000D01*
X67167000Y-91567000D01*
X67167000Y-92616250D01*
X67325750Y-92775000D01*
X67640000Y-92778072D01*
X67764482Y-92765812D01*
X67884180Y-92729502D01*
X67994494Y-92670537D01*
X68091185Y-92591185D01*
X68170537Y-92494494D01*
X68229502Y-92384180D01*
X68265812Y-92264482D01*
X68278072Y-92140000D01*
X68275000Y-91725750D01*
X68116250Y-91567000D01*
X67167000Y-91567000D01*
X66913000Y-91567000D01*
X66893000Y-91567000D01*
X66893000Y-91313000D01*
X66913000Y-91313000D01*
X66913000Y-90263750D01*
X67167000Y-90263750D01*
X67167000Y-91313000D01*
X68116250Y-91313000D01*
X68275000Y-91154250D01*
X68278072Y-90740000D01*
X68265812Y-90615518D01*
X68229502Y-90495820D01*
X68170537Y-90385506D01*
X68091185Y-90288815D01*
X67994494Y-90209463D01*
X67884180Y-90150498D01*
X67764482Y-90114188D01*
X67640000Y-90101928D01*
X67325750Y-90105000D01*
X67167000Y-90263750D01*
X66913000Y-90263750D01*
X66754250Y-90105000D01*
X66440000Y-90101928D01*
X66315518Y-90114188D01*
X66195820Y-90150498D01*
X66085506Y-90209463D01*
X65988815Y-90288815D01*
X65964637Y-90318276D01*
X65883387Y-90251595D01*
X65729851Y-90169528D01*
X65563255Y-90118992D01*
X65390001Y-90101928D01*
X64689999Y-90101928D01*
X64516745Y-90118992D01*
X64350149Y-90169528D01*
X64196613Y-90251595D01*
X64062038Y-90362038D01*
X63951595Y-90496613D01*
X63869528Y-90650149D01*
X63860473Y-90680000D01*
X61667333Y-90680000D01*
X61630000Y-90676323D01*
X61592667Y-90680000D01*
X61481014Y-90690997D01*
X61337753Y-90734454D01*
X61205724Y-90805026D01*
X61089999Y-90899999D01*
X61066201Y-90928997D01*
X59390001Y-92605198D01*
X56640000Y-89855199D01*
X56640000Y-88908178D01*
X56826632Y-88783475D01*
X57033475Y-88576632D01*
X57150000Y-88402240D01*
X57266525Y-88576632D01*
X57473368Y-88783475D01*
X57716589Y-88945990D01*
X57986842Y-89057932D01*
X58273740Y-89115000D01*
X58566260Y-89115000D01*
X58853158Y-89057932D01*
X59123411Y-88945990D01*
X59366632Y-88783475D01*
X59573475Y-88576632D01*
X59690000Y-88402240D01*
X59806525Y-88576632D01*
X60013368Y-88783475D01*
X60256589Y-88945990D01*
X60526842Y-89057932D01*
X60813740Y-89115000D01*
X61106260Y-89115000D01*
X61393158Y-89057932D01*
X61663411Y-88945990D01*
X61906632Y-88783475D01*
X62113475Y-88576632D01*
X62275990Y-88333411D01*
X62387932Y-88063158D01*
X62445000Y-87776260D01*
X62445000Y-87483740D01*
X62387932Y-87196842D01*
X62275990Y-86926589D01*
X62113475Y-86683368D01*
X61906632Y-86476525D01*
X61663411Y-86314010D01*
X61393158Y-86202068D01*
X61106260Y-86145000D01*
X60813740Y-86145000D01*
X60593592Y-86188790D01*
X59491804Y-85087003D01*
X59468001Y-85057999D01*
X59352276Y-84963026D01*
X59220247Y-84892454D01*
X59076986Y-84848997D01*
X58965333Y-84838000D01*
X58965322Y-84838000D01*
X58928000Y-84834324D01*
X58890678Y-84838000D01*
X46519322Y-84838000D01*
X46482000Y-84834324D01*
X46444677Y-84838000D01*
X46444667Y-84838000D01*
X46333014Y-84848997D01*
X46189753Y-84892454D01*
X46057723Y-84963026D01*
X46008178Y-85003687D01*
X45941999Y-85057999D01*
X45918201Y-85086997D01*
X44954998Y-86050201D01*
X44926000Y-86073999D01*
X44902202Y-86102997D01*
X44902201Y-86102998D01*
X44831026Y-86189724D01*
X44760454Y-86321754D01*
X44716998Y-86465015D01*
X44702324Y-86614000D01*
X44706001Y-86651332D01*
X44706000Y-88862677D01*
X44702324Y-88900000D01*
X44706000Y-88937322D01*
X44706000Y-88937332D01*
X44716997Y-89048985D01*
X44737251Y-89115753D01*
X44760454Y-89192246D01*
X44831026Y-89324276D01*
X44869099Y-89370667D01*
X44925999Y-89440001D01*
X44955003Y-89463804D01*
X46540001Y-91048803D01*
X46540000Y-93359691D01*
X46530601Y-93354667D01*
X46506776Y-93347440D01*
X46482000Y-93345000D01*
X38354000Y-93345000D01*
X38329224Y-93347440D01*
X38305399Y-93354667D01*
X38283443Y-93366403D01*
X38264197Y-93382197D01*
X38248403Y-93401443D01*
X38236667Y-93423399D01*
X38229440Y-93447224D01*
X38227000Y-93472000D01*
X37291000Y-93472000D01*
X37291000Y-84157117D01*
X39921000Y-84157117D01*
X39921000Y-84498883D01*
X39987675Y-84834081D01*
X40118463Y-85149831D01*
X40308337Y-85433998D01*
X40550002Y-85675663D01*
X40834169Y-85865537D01*
X41149919Y-85996325D01*
X41485117Y-86063000D01*
X41826883Y-86063000D01*
X42162081Y-85996325D01*
X42477831Y-85865537D01*
X42761998Y-85675663D01*
X43003663Y-85433998D01*
X43193537Y-85149831D01*
X43324325Y-84834081D01*
X43391000Y-84498883D01*
X43391000Y-84157117D01*
X101389000Y-84157117D01*
X101389000Y-84498883D01*
X101455675Y-84834081D01*
X101586463Y-85149831D01*
X101776337Y-85433998D01*
X102018002Y-85675663D01*
X102302169Y-85865537D01*
X102617919Y-85996325D01*
X102953117Y-86063000D01*
X103294883Y-86063000D01*
X103630081Y-85996325D01*
X103945831Y-85865537D01*
X104229998Y-85675663D01*
X104471663Y-85433998D01*
X104661537Y-85149831D01*
X104792325Y-84834081D01*
X104859000Y-84498883D01*
X104859000Y-84157117D01*
X104792325Y-83821919D01*
X104661537Y-83506169D01*
X104471663Y-83222002D01*
X104229998Y-82980337D01*
X103945831Y-82790463D01*
X103630081Y-82659675D01*
X103294883Y-82593000D01*
X102953117Y-82593000D01*
X102617919Y-82659675D01*
X102302169Y-82790463D01*
X102018002Y-82980337D01*
X101776337Y-83222002D01*
X101586463Y-83506169D01*
X101455675Y-83821919D01*
X101389000Y-84157117D01*
X43391000Y-84157117D01*
X43324325Y-83821919D01*
X43193537Y-83506169D01*
X43003663Y-83222002D01*
X42761998Y-82980337D01*
X42477831Y-82790463D01*
X42162081Y-82659675D01*
X41826883Y-82593000D01*
X41485117Y-82593000D01*
X41149919Y-82659675D01*
X40834169Y-82790463D01*
X40550002Y-82980337D01*
X40308337Y-83222002D01*
X40118463Y-83506169D01*
X39987675Y-83821919D01*
X39921000Y-84157117D01*
X37291000Y-84157117D01*
X37291000Y-79963000D01*
X106981000Y-79963000D01*
X106981001Y-134413000D01*
%TA.AperFunction,Conductor*%
D21*
G36*
X106981001Y-134413000D02*
G01*
X37291000Y-134413000D01*
X37291000Y-130639117D01*
X39921000Y-130639117D01*
X39921000Y-130980883D01*
X39987675Y-131316081D01*
X40118463Y-131631831D01*
X40308337Y-131915998D01*
X40550002Y-132157663D01*
X40834169Y-132347537D01*
X41149919Y-132478325D01*
X41485117Y-132545000D01*
X41826883Y-132545000D01*
X42162081Y-132478325D01*
X42477831Y-132347537D01*
X42761998Y-132157663D01*
X43003663Y-131915998D01*
X43193537Y-131631831D01*
X43324325Y-131316081D01*
X43391000Y-130980883D01*
X43391000Y-130639117D01*
X101389000Y-130639117D01*
X101389000Y-130980883D01*
X101455675Y-131316081D01*
X101586463Y-131631831D01*
X101776337Y-131915998D01*
X102018002Y-132157663D01*
X102302169Y-132347537D01*
X102617919Y-132478325D01*
X102953117Y-132545000D01*
X103294883Y-132545000D01*
X103630081Y-132478325D01*
X103945831Y-132347537D01*
X104229998Y-132157663D01*
X104471663Y-131915998D01*
X104661537Y-131631831D01*
X104792325Y-131316081D01*
X104859000Y-130980883D01*
X104859000Y-130639117D01*
X104792325Y-130303919D01*
X104661537Y-129988169D01*
X104471663Y-129704002D01*
X104229998Y-129462337D01*
X103945831Y-129272463D01*
X103630081Y-129141675D01*
X103294883Y-129075000D01*
X102953117Y-129075000D01*
X102617919Y-129141675D01*
X102302169Y-129272463D01*
X102018002Y-129462337D01*
X101776337Y-129704002D01*
X101586463Y-129988169D01*
X101455675Y-130303919D01*
X101389000Y-130639117D01*
X43391000Y-130639117D01*
X43324325Y-130303919D01*
X43193537Y-129988169D01*
X43003663Y-129704002D01*
X42761998Y-129462337D01*
X42477831Y-129272463D01*
X42162081Y-129141675D01*
X41826883Y-129075000D01*
X41485117Y-129075000D01*
X41149919Y-129141675D01*
X40834169Y-129272463D01*
X40550002Y-129462337D01*
X40308337Y-129704002D01*
X40118463Y-129988169D01*
X39987675Y-130303919D01*
X39921000Y-130639117D01*
X37291000Y-130639117D01*
X37291000Y-114720000D01*
X42453928Y-114720000D01*
X42457000Y-115284250D01*
X42615750Y-115443000D01*
X43815000Y-115443000D01*
X43815000Y-114243750D01*
X44069000Y-114243750D01*
X44069000Y-115443000D01*
X45268250Y-115443000D01*
X45427000Y-115284250D01*
X45430072Y-114720000D01*
X45417812Y-114595518D01*
X45381502Y-114475820D01*
X45322537Y-114365506D01*
X45243185Y-114268815D01*
X45146494Y-114189463D01*
X45036180Y-114130498D01*
X44916482Y-114094188D01*
X44792000Y-114081928D01*
X44227750Y-114085000D01*
X44069000Y-114243750D01*
X43815000Y-114243750D01*
X43656250Y-114085000D01*
X43092000Y-114081928D01*
X42967518Y-114094188D01*
X42847820Y-114130498D01*
X42737506Y-114189463D01*
X42640815Y-114268815D01*
X42561463Y-114365506D01*
X42502498Y-114475820D01*
X42466188Y-114595518D01*
X42453928Y-114720000D01*
X37291000Y-114720000D01*
X37291000Y-93472000D01*
X38227000Y-93472000D01*
X38227000Y-112268000D01*
X38229440Y-112292776D01*
X38236667Y-112316601D01*
X38248403Y-112338557D01*
X38264197Y-112357803D01*
X38283443Y-112373597D01*
X38305399Y-112385333D01*
X38329224Y-112392560D01*
X38354000Y-112395000D01*
X46482000Y-112395000D01*
X46506776Y-112392560D01*
X46530601Y-112385333D01*
X46552557Y-112373597D01*
X46571803Y-112357803D01*
X46587597Y-112338557D01*
X46596527Y-112321850D01*
X46675518Y-112345812D01*
X46800000Y-112358072D01*
X47800000Y-112358072D01*
X47924482Y-112345812D01*
X48044180Y-112309502D01*
X48154494Y-112250537D01*
X48251185Y-112171185D01*
X48300000Y-112111704D01*
X48348815Y-112171185D01*
X48445506Y-112250537D01*
X48555820Y-112309502D01*
X48675518Y-112345812D01*
X48800000Y-112358072D01*
X49800000Y-112358072D01*
X49924482Y-112345812D01*
X50044180Y-112309502D01*
X50154494Y-112250537D01*
X50251185Y-112171185D01*
X50300000Y-112111704D01*
X50348815Y-112171185D01*
X50445506Y-112250537D01*
X50540001Y-112301046D01*
X50540001Y-112842288D01*
X50504063Y-112878226D01*
X50390795Y-113047744D01*
X50312774Y-113236102D01*
X50273000Y-113436061D01*
X50273000Y-113639939D01*
X50312774Y-113839898D01*
X50390795Y-114028256D01*
X50504063Y-114197774D01*
X50648226Y-114341937D01*
X50817744Y-114455205D01*
X51006102Y-114533226D01*
X51206061Y-114573000D01*
X51268198Y-114573000D01*
X52522205Y-115827008D01*
X52545999Y-115856001D01*
X52574992Y-115879795D01*
X52574996Y-115879799D01*
X52627388Y-115922795D01*
X52642600Y-115935280D01*
X52642992Y-115939255D01*
X52693528Y-116105851D01*
X52775595Y-116259387D01*
X52886038Y-116393962D01*
X53020613Y-116504405D01*
X53174149Y-116586472D01*
X53340745Y-116637008D01*
X53513999Y-116654072D01*
X54214001Y-116654072D01*
X54387255Y-116637008D01*
X54553851Y-116586472D01*
X54707387Y-116504405D01*
X54841962Y-116393962D01*
X54864000Y-116367109D01*
X54886038Y-116393962D01*
X55020613Y-116504405D01*
X55174149Y-116586472D01*
X55340745Y-116637008D01*
X55513999Y-116654072D01*
X56214001Y-116654072D01*
X56387255Y-116637008D01*
X56553851Y-116586472D01*
X56707387Y-116504405D01*
X56841962Y-116393962D01*
X56952405Y-116259387D01*
X56983614Y-116201000D01*
X57545422Y-116201000D01*
X58713921Y-117369500D01*
X58512580Y-117570841D01*
X58513072Y-117522500D01*
X58500812Y-117398018D01*
X58464502Y-117278320D01*
X58405537Y-117168006D01*
X58326185Y-117071315D01*
X58229494Y-116991963D01*
X58119180Y-116932998D01*
X57999482Y-116896688D01*
X57875000Y-116884428D01*
X57435750Y-116887500D01*
X57277000Y-117046250D01*
X57277000Y-117983000D01*
X57297000Y-117983000D01*
X57297000Y-118237000D01*
X57277000Y-118237000D01*
X57277000Y-118257000D01*
X57023000Y-118257000D01*
X57023000Y-118237000D01*
X55948750Y-118237000D01*
X55790000Y-118395750D01*
X55786928Y-118697500D01*
X55799188Y-118821982D01*
X55835498Y-118941680D01*
X55894463Y-119051994D01*
X55973815Y-119148685D01*
X56053594Y-119214158D01*
X56047038Y-119219538D01*
X55936595Y-119354114D01*
X55854528Y-119507650D01*
X55803992Y-119674246D01*
X55786928Y-119847500D01*
X55786928Y-119995000D01*
X53738072Y-119995000D01*
X53738072Y-118513500D01*
X53725812Y-118389018D01*
X53689502Y-118269320D01*
X53630537Y-118159006D01*
X53551185Y-118062315D01*
X53454494Y-117982963D01*
X53344180Y-117923998D01*
X53224482Y-117887688D01*
X53100000Y-117875428D01*
X50435000Y-117875428D01*
X50435000Y-117752998D01*
X50276252Y-117752998D01*
X50435000Y-117594250D01*
X50436341Y-117522500D01*
X55786928Y-117522500D01*
X55790000Y-117824250D01*
X55948750Y-117983000D01*
X57023000Y-117983000D01*
X57023000Y-117046250D01*
X56864250Y-116887500D01*
X56425000Y-116884428D01*
X56300518Y-116896688D01*
X56180820Y-116932998D01*
X56070506Y-116991963D01*
X55973815Y-117071315D01*
X55894463Y-117168006D01*
X55835498Y-117278320D01*
X55799188Y-117398018D01*
X55786928Y-117522500D01*
X50436341Y-117522500D01*
X50438072Y-117430000D01*
X50425812Y-117305518D01*
X50389502Y-117185820D01*
X50330537Y-117075506D01*
X50251185Y-116978815D01*
X50154494Y-116899463D01*
X50044180Y-116840498D01*
X49924482Y-116804188D01*
X49800000Y-116791928D01*
X49435750Y-116795000D01*
X49277000Y-116953750D01*
X49277000Y-117753000D01*
X49297000Y-117753000D01*
X49297000Y-118007000D01*
X49277000Y-118007000D01*
X49277000Y-118027000D01*
X49023000Y-118027000D01*
X49023000Y-118007000D01*
X48023750Y-118007000D01*
X47865000Y-118165750D01*
X47861928Y-118330000D01*
X47874188Y-118454482D01*
X47886479Y-118495000D01*
X47795469Y-118495000D01*
X47752000Y-118490719D01*
X47708531Y-118495000D01*
X47708523Y-118495000D01*
X47593306Y-118506348D01*
X47578509Y-118507805D01*
X47559736Y-118513500D01*
X47411687Y-118558411D01*
X47257941Y-118640589D01*
X47257939Y-118640590D01*
X47257940Y-118640590D01*
X47156953Y-118723468D01*
X47156951Y-118723470D01*
X47123183Y-118751183D01*
X47095470Y-118784951D01*
X46140951Y-119739471D01*
X46107184Y-119767183D01*
X46079471Y-119800951D01*
X46079468Y-119800954D01*
X45996590Y-119901941D01*
X45914412Y-120055687D01*
X45863805Y-120222510D01*
X45846719Y-120396000D01*
X45851001Y-120439479D01*
X45851000Y-122384531D01*
X45846719Y-122428000D01*
X45851000Y-122471469D01*
X45851000Y-122471476D01*
X45863805Y-122601489D01*
X45914411Y-122768312D01*
X45996589Y-122922058D01*
X46107183Y-123056817D01*
X46140956Y-123084534D01*
X47353501Y-124297080D01*
X47353501Y-124561004D01*
X47273038Y-124627038D01*
X47162595Y-124761614D01*
X47118024Y-124845000D01*
X45136656Y-124845000D01*
X45095475Y-124783368D01*
X44888632Y-124576525D01*
X44714240Y-124460000D01*
X44888632Y-124343475D01*
X45095475Y-124136632D01*
X45257990Y-123893411D01*
X45369932Y-123623158D01*
X45427000Y-123336260D01*
X45427000Y-123043740D01*
X45369932Y-122756842D01*
X45257990Y-122486589D01*
X45095475Y-122243368D01*
X44888632Y-122036525D01*
X44714240Y-121920000D01*
X44888632Y-121803475D01*
X45095475Y-121596632D01*
X45257990Y-121353411D01*
X45369932Y-121083158D01*
X45427000Y-120796260D01*
X45427000Y-120503740D01*
X45369932Y-120216842D01*
X45257990Y-119946589D01*
X45095475Y-119703368D01*
X44888632Y-119496525D01*
X44714240Y-119380000D01*
X44888632Y-119263475D01*
X45095475Y-119056632D01*
X45257990Y-118813411D01*
X45369932Y-118543158D01*
X45427000Y-118256260D01*
X45427000Y-117963740D01*
X45369932Y-117676842D01*
X45267688Y-117430000D01*
X47861928Y-117430000D01*
X47865000Y-117594250D01*
X48023750Y-117753000D01*
X49023000Y-117753000D01*
X49023000Y-116953750D01*
X48864250Y-116795000D01*
X48500000Y-116791928D01*
X48375518Y-116804188D01*
X48255820Y-116840498D01*
X48145506Y-116899463D01*
X48048815Y-116978815D01*
X47969463Y-117075506D01*
X47910498Y-117185820D01*
X47874188Y-117305518D01*
X47861928Y-117430000D01*
X45267688Y-117430000D01*
X45257990Y-117406589D01*
X45095475Y-117163368D01*
X44963620Y-117031513D01*
X45036180Y-117009502D01*
X45146494Y-116950537D01*
X45243185Y-116871185D01*
X45322537Y-116774494D01*
X45381502Y-116664180D01*
X45417812Y-116544482D01*
X45430072Y-116420000D01*
X45427000Y-115855750D01*
X45268250Y-115697000D01*
X44069000Y-115697000D01*
X44069000Y-115717000D01*
X43815000Y-115717000D01*
X43815000Y-115697000D01*
X42615750Y-115697000D01*
X42457000Y-115855750D01*
X42453928Y-116420000D01*
X42466188Y-116544482D01*
X42502498Y-116664180D01*
X42561463Y-116774494D01*
X42640815Y-116871185D01*
X42737506Y-116950537D01*
X42847820Y-117009502D01*
X42920380Y-117031513D01*
X42788525Y-117163368D01*
X42626010Y-117406589D01*
X42514068Y-117676842D01*
X42457000Y-117963740D01*
X42457000Y-118256260D01*
X42514068Y-118543158D01*
X42626010Y-118813411D01*
X42788525Y-119056632D01*
X42995368Y-119263475D01*
X43169760Y-119380000D01*
X42995368Y-119496525D01*
X42788525Y-119703368D01*
X42626010Y-119946589D01*
X42514068Y-120216842D01*
X42457000Y-120503740D01*
X42457000Y-120796260D01*
X42514068Y-121083158D01*
X42626010Y-121353411D01*
X42788525Y-121596632D01*
X42995368Y-121803475D01*
X43169760Y-121920000D01*
X42995368Y-122036525D01*
X42788525Y-122243368D01*
X42626010Y-122486589D01*
X42514068Y-122756842D01*
X42457000Y-123043740D01*
X42457000Y-123336260D01*
X42514068Y-123623158D01*
X42626010Y-123893411D01*
X42788525Y-124136632D01*
X42995368Y-124343475D01*
X43169760Y-124460000D01*
X42995368Y-124576525D01*
X42788525Y-124783368D01*
X42626010Y-125026589D01*
X42514068Y-125296842D01*
X42457000Y-125583740D01*
X42457000Y-125876260D01*
X42514068Y-126163158D01*
X42626010Y-126433411D01*
X42788525Y-126676632D01*
X42995368Y-126883475D01*
X43238589Y-127045990D01*
X43508842Y-127157932D01*
X43795740Y-127215000D01*
X44088260Y-127215000D01*
X44375158Y-127157932D01*
X44645411Y-127045990D01*
X44888632Y-126883475D01*
X45095475Y-126676632D01*
X45136656Y-126615000D01*
X47118024Y-126615000D01*
X47162595Y-126698386D01*
X47273038Y-126832962D01*
X47407614Y-126943405D01*
X47561150Y-127025472D01*
X47727746Y-127076008D01*
X47901000Y-127093072D01*
X48576000Y-127093072D01*
X48749254Y-127076008D01*
X48915850Y-127025472D01*
X49069386Y-126943405D01*
X49203962Y-126832962D01*
X49209342Y-126826406D01*
X49274815Y-126906185D01*
X49371506Y-126985537D01*
X49481820Y-127044502D01*
X49601518Y-127080812D01*
X49726000Y-127093072D01*
X50027750Y-127090000D01*
X50186500Y-126931250D01*
X50186500Y-125857000D01*
X50440500Y-125857000D01*
X50440500Y-126931250D01*
X50599250Y-127090000D01*
X50901000Y-127093072D01*
X51025482Y-127080812D01*
X51145180Y-127044502D01*
X51255494Y-126985537D01*
X51352185Y-126906185D01*
X51431537Y-126809494D01*
X51490502Y-126699180D01*
X51526812Y-126579482D01*
X51539072Y-126455000D01*
X51536000Y-126015750D01*
X51377250Y-125857000D01*
X50440500Y-125857000D01*
X50186500Y-125857000D01*
X50166500Y-125857000D01*
X50166500Y-125603000D01*
X50186500Y-125603000D01*
X50186500Y-124528750D01*
X50440500Y-124528750D01*
X50440500Y-125603000D01*
X51377250Y-125603000D01*
X51536000Y-125444250D01*
X51539072Y-125005000D01*
X51526812Y-124880518D01*
X51490502Y-124760820D01*
X51431537Y-124650506D01*
X51352185Y-124553815D01*
X51255494Y-124474463D01*
X51145180Y-124415498D01*
X51025482Y-124379188D01*
X50901000Y-124366928D01*
X50599250Y-124370000D01*
X50440500Y-124528750D01*
X50186500Y-124528750D01*
X50027750Y-124370000D01*
X49726000Y-124366928D01*
X49601518Y-124379188D01*
X49481820Y-124415498D01*
X49371506Y-124474463D01*
X49274815Y-124553815D01*
X49209342Y-124633594D01*
X49203962Y-124627038D01*
X49123500Y-124561005D01*
X49123500Y-123887023D01*
X49110695Y-123757010D01*
X49060089Y-123590187D01*
X48977911Y-123436441D01*
X48867317Y-123301683D01*
X48809373Y-123254129D01*
X48789532Y-123229953D01*
X47621000Y-122061422D01*
X47621000Y-120762578D01*
X47861928Y-120521650D01*
X47861928Y-121330000D01*
X47874188Y-121454482D01*
X47910498Y-121574180D01*
X47969463Y-121684494D01*
X48048815Y-121781185D01*
X48145506Y-121860537D01*
X48255820Y-121919502D01*
X48375518Y-121955812D01*
X48500000Y-121968072D01*
X49800000Y-121968072D01*
X49924482Y-121955812D01*
X50044180Y-121919502D01*
X50154494Y-121860537D01*
X50251185Y-121781185D01*
X50264468Y-121765000D01*
X56411531Y-121765000D01*
X56455000Y-121769281D01*
X56498469Y-121765000D01*
X56498477Y-121765000D01*
X56628490Y-121752195D01*
X56795313Y-121701589D01*
X56949059Y-121619411D01*
X57083817Y-121508817D01*
X57111534Y-121475044D01*
X57176006Y-121410572D01*
X57625000Y-121410572D01*
X57798254Y-121393508D01*
X57964850Y-121342972D01*
X58118386Y-121260905D01*
X58252962Y-121150462D01*
X58363405Y-121015886D01*
X58445472Y-120862350D01*
X58496008Y-120695754D01*
X58513072Y-120522500D01*
X58513072Y-120073506D01*
X59987032Y-118599547D01*
X59987036Y-118599542D01*
X60260824Y-118325754D01*
X60560549Y-118026030D01*
X60594317Y-117998317D01*
X60622032Y-117964547D01*
X60861579Y-117725000D01*
X80741546Y-117725000D01*
X80789744Y-117757205D01*
X80978102Y-117835226D01*
X81034957Y-117846535D01*
X88015001Y-124826580D01*
X88015000Y-125805344D01*
X87953368Y-125846525D01*
X87746525Y-126053368D01*
X87584010Y-126296589D01*
X87472068Y-126566842D01*
X87415000Y-126853740D01*
X87415000Y-127146260D01*
X87472068Y-127433158D01*
X87584010Y-127703411D01*
X87746525Y-127946632D01*
X87953368Y-128153475D01*
X88015001Y-128194657D01*
X88015001Y-128226522D01*
X88010719Y-128270000D01*
X88027805Y-128443490D01*
X88078412Y-128610313D01*
X88160590Y-128764059D01*
X88243468Y-128865046D01*
X88243471Y-128865049D01*
X88271184Y-128898817D01*
X88304952Y-128926530D01*
X88751466Y-129373044D01*
X88779183Y-129406817D01*
X88913941Y-129517411D01*
X89067687Y-129599589D01*
X89234510Y-129650195D01*
X89364523Y-129663000D01*
X89364533Y-129663000D01*
X89407999Y-129667281D01*
X89451465Y-129663000D01*
X96476531Y-129663000D01*
X96520000Y-129667281D01*
X96563469Y-129663000D01*
X96563477Y-129663000D01*
X96693490Y-129650195D01*
X96860313Y-129599589D01*
X97014059Y-129517411D01*
X97148817Y-129406817D01*
X97176534Y-129373044D01*
X98639050Y-127910529D01*
X98672817Y-127882817D01*
X98783411Y-127748059D01*
X98865589Y-127594313D01*
X98916195Y-127427490D01*
X98929000Y-127297477D01*
X98929000Y-127297467D01*
X98933281Y-127254001D01*
X98929000Y-127210535D01*
X98929000Y-98458000D01*
X99728815Y-98458000D01*
X99757487Y-98749111D01*
X99842401Y-99029034D01*
X99980294Y-99287014D01*
X100165866Y-99513134D01*
X100391986Y-99698706D01*
X100409374Y-99708000D01*
X100391986Y-99717294D01*
X100165866Y-99902866D01*
X99980294Y-100128986D01*
X99842401Y-100386966D01*
X99757487Y-100666889D01*
X99728815Y-100958000D01*
X99757487Y-101249111D01*
X99842401Y-101529034D01*
X99980294Y-101787014D01*
X100165866Y-102013134D01*
X100391986Y-102198706D01*
X100409374Y-102208000D01*
X100391986Y-102217294D01*
X100165866Y-102402866D01*
X99980294Y-102628986D01*
X99842401Y-102886966D01*
X99757487Y-103166889D01*
X99728815Y-103458000D01*
X99757487Y-103749111D01*
X99842401Y-104029034D01*
X99980294Y-104287014D01*
X100165866Y-104513134D01*
X100391986Y-104698706D01*
X100409374Y-104708000D01*
X100391986Y-104717294D01*
X100165866Y-104902866D01*
X99980294Y-105128986D01*
X99842401Y-105386966D01*
X99757487Y-105666889D01*
X99728815Y-105958000D01*
X99757487Y-106249111D01*
X99842401Y-106529034D01*
X99980294Y-106787014D01*
X100165866Y-107013134D01*
X100229337Y-107065223D01*
X100127614Y-107119595D01*
X99993038Y-107230038D01*
X99882595Y-107364614D01*
X99800528Y-107518150D01*
X99749992Y-107684746D01*
X99732928Y-107858000D01*
X99732928Y-109058000D01*
X99749992Y-109231254D01*
X99800528Y-109397850D01*
X99882595Y-109551386D01*
X99993038Y-109685962D01*
X100127614Y-109796405D01*
X100281150Y-109878472D01*
X100447746Y-109929008D01*
X100621000Y-109946072D01*
X102071000Y-109946072D01*
X102244254Y-109929008D01*
X102410850Y-109878472D01*
X102564386Y-109796405D01*
X102698962Y-109685962D01*
X102809405Y-109551386D01*
X102891472Y-109397850D01*
X102942008Y-109231254D01*
X102959072Y-109058000D01*
X102959072Y-107858000D01*
X102942008Y-107684746D01*
X102891472Y-107518150D01*
X102809405Y-107364614D01*
X102698962Y-107230038D01*
X102564386Y-107119595D01*
X102462663Y-107065223D01*
X102526134Y-107013134D01*
X102711706Y-106787014D01*
X102849599Y-106529034D01*
X102934513Y-106249111D01*
X102963185Y-105958000D01*
X102934513Y-105666889D01*
X102849599Y-105386966D01*
X102711706Y-105128986D01*
X102526134Y-104902866D01*
X102300014Y-104717294D01*
X102282626Y-104708000D01*
X102300014Y-104698706D01*
X102526134Y-104513134D01*
X102711706Y-104287014D01*
X102849599Y-104029034D01*
X102934513Y-103749111D01*
X102963185Y-103458000D01*
X102934513Y-103166889D01*
X102849599Y-102886966D01*
X102711706Y-102628986D01*
X102526134Y-102402866D01*
X102300014Y-102217294D01*
X102282626Y-102208000D01*
X102300014Y-102198706D01*
X102526134Y-102013134D01*
X102711706Y-101787014D01*
X102849599Y-101529034D01*
X102934513Y-101249111D01*
X102963185Y-100958000D01*
X102934513Y-100666889D01*
X102849599Y-100386966D01*
X102711706Y-100128986D01*
X102526134Y-99902866D01*
X102300014Y-99717294D01*
X102282626Y-99708000D01*
X102300014Y-99698706D01*
X102526134Y-99513134D01*
X102711706Y-99287014D01*
X102849599Y-99029034D01*
X102934513Y-98749111D01*
X102963185Y-98458000D01*
X102934513Y-98166889D01*
X102849599Y-97886966D01*
X102711706Y-97628986D01*
X102526134Y-97402866D01*
X102300014Y-97217294D01*
X102042034Y-97079401D01*
X101762111Y-96994487D01*
X101543950Y-96973000D01*
X101148050Y-96973000D01*
X100929889Y-96994487D01*
X100649966Y-97079401D01*
X100391986Y-97217294D01*
X100165866Y-97402866D01*
X99980294Y-97628986D01*
X99842401Y-97886966D01*
X99757487Y-98166889D01*
X99728815Y-98458000D01*
X98929000Y-98458000D01*
X98929000Y-86403469D01*
X98933281Y-86360000D01*
X98929000Y-86316531D01*
X98929000Y-86316523D01*
X98916195Y-86186510D01*
X98865589Y-86019687D01*
X98783411Y-85865941D01*
X98740581Y-85813753D01*
X98700532Y-85764953D01*
X98700530Y-85764951D01*
X98672817Y-85731183D01*
X98639049Y-85703470D01*
X97684534Y-84748956D01*
X97656817Y-84715183D01*
X97522059Y-84604589D01*
X97368313Y-84522411D01*
X97201490Y-84471805D01*
X97071477Y-84459000D01*
X97071469Y-84459000D01*
X97028000Y-84454719D01*
X96984531Y-84459000D01*
X73957469Y-84459000D01*
X73914000Y-84454719D01*
X73870531Y-84459000D01*
X73870523Y-84459000D01*
X73755306Y-84470348D01*
X73740509Y-84471805D01*
X73689903Y-84487157D01*
X73573687Y-84522411D01*
X73419941Y-84604589D01*
X73419939Y-84604590D01*
X73419940Y-84604590D01*
X73318953Y-84687468D01*
X73318951Y-84687470D01*
X73285183Y-84715183D01*
X73257470Y-84748951D01*
X72302956Y-85703466D01*
X72269183Y-85731183D01*
X72158589Y-85865942D01*
X72076411Y-86019688D01*
X72041157Y-86135904D01*
X72025805Y-86186510D01*
X72025412Y-86190498D01*
X72013000Y-86316524D01*
X72013000Y-86316531D01*
X72008719Y-86360000D01*
X72013000Y-86403470D01*
X72013000Y-86435344D01*
X71951368Y-86476525D01*
X71744525Y-86683368D01*
X71582010Y-86926589D01*
X71470068Y-87196842D01*
X71413000Y-87483740D01*
X71413000Y-87776260D01*
X71470068Y-88063158D01*
X71582010Y-88333411D01*
X71744525Y-88576632D01*
X71951368Y-88783475D01*
X72013001Y-88824657D01*
X72013000Y-95264531D01*
X72008719Y-95308000D01*
X72013000Y-95351469D01*
X72013000Y-95351476D01*
X72025805Y-95481489D01*
X72076411Y-95648312D01*
X72158589Y-95802058D01*
X72269183Y-95936817D01*
X72302956Y-95964534D01*
X77898470Y-101560049D01*
X77926183Y-101593817D01*
X77959951Y-101621530D01*
X77959953Y-101621532D01*
X77970937Y-101630546D01*
X78031890Y-101680569D01*
X77976916Y-101783418D01*
X77932071Y-101931255D01*
X77916928Y-102085000D01*
X77916928Y-102385000D01*
X77932071Y-102538745D01*
X77976916Y-102686582D01*
X78049742Y-102822829D01*
X78088454Y-102870000D01*
X78049742Y-102917171D01*
X77976916Y-103053418D01*
X77932071Y-103201255D01*
X77916928Y-103355000D01*
X77916928Y-103655000D01*
X77932071Y-103808745D01*
X77976916Y-103956582D01*
X78049742Y-104092829D01*
X78088454Y-104140000D01*
X78049742Y-104187171D01*
X77976916Y-104323418D01*
X77932071Y-104471255D01*
X77916928Y-104625000D01*
X77916928Y-104925000D01*
X77932071Y-105078745D01*
X77976916Y-105226582D01*
X78049742Y-105362829D01*
X78088454Y-105410000D01*
X78049742Y-105457171D01*
X77976916Y-105593418D01*
X77932071Y-105741255D01*
X77916928Y-105895000D01*
X77916928Y-106195000D01*
X77932071Y-106348745D01*
X77976916Y-106496582D01*
X78049742Y-106632829D01*
X78088454Y-106680000D01*
X78049742Y-106727171D01*
X77976916Y-106863418D01*
X77932071Y-107011255D01*
X77916928Y-107165000D01*
X77916928Y-107465000D01*
X77932071Y-107618745D01*
X77976916Y-107766582D01*
X78049742Y-107902829D01*
X78088454Y-107950000D01*
X78049742Y-107997171D01*
X77976916Y-108133418D01*
X77932071Y-108281255D01*
X77916928Y-108435000D01*
X77916928Y-108735000D01*
X77932071Y-108888745D01*
X77976916Y-109036582D01*
X78049742Y-109172829D01*
X78088454Y-109220000D01*
X78049742Y-109267171D01*
X77976916Y-109403418D01*
X77932071Y-109551255D01*
X77916928Y-109705000D01*
X77916928Y-110005000D01*
X77932071Y-110158745D01*
X77976916Y-110306582D01*
X78049742Y-110442829D01*
X78088454Y-110490000D01*
X78049742Y-110537171D01*
X77976916Y-110673418D01*
X77932071Y-110821255D01*
X77916928Y-110975000D01*
X77916928Y-111275000D01*
X77932071Y-111428745D01*
X77976916Y-111576582D01*
X78049742Y-111712829D01*
X78147749Y-111832251D01*
X78267171Y-111930258D01*
X78403418Y-112003084D01*
X78551255Y-112047929D01*
X78705000Y-112063072D01*
X80455000Y-112063072D01*
X80608745Y-112047929D01*
X80756582Y-112003084D01*
X80892829Y-111930258D01*
X80947976Y-111885000D01*
X81369678Y-111885000D01*
X81407000Y-111888676D01*
X81444322Y-111885000D01*
X81444333Y-111885000D01*
X81555986Y-111874003D01*
X81699247Y-111830546D01*
X81831276Y-111759974D01*
X81947001Y-111665001D01*
X81970804Y-111635998D01*
X82589802Y-111017000D01*
X82651939Y-111017000D01*
X82851898Y-110977226D01*
X83040256Y-110899205D01*
X83209774Y-110785937D01*
X83353937Y-110641774D01*
X83467205Y-110472256D01*
X83545226Y-110283898D01*
X83585000Y-110083939D01*
X83585000Y-109880061D01*
X83545226Y-109680102D01*
X83467205Y-109491744D01*
X83353937Y-109322226D01*
X83251711Y-109220000D01*
X83353937Y-109117774D01*
X83467205Y-108948256D01*
X83545226Y-108759898D01*
X83585000Y-108559939D01*
X83585000Y-108356061D01*
X83545226Y-108156102D01*
X83467205Y-107967744D01*
X83353937Y-107798226D01*
X83247051Y-107691340D01*
X83349277Y-107589114D01*
X83462545Y-107419596D01*
X83540566Y-107231238D01*
X83580340Y-107031279D01*
X83580340Y-106827401D01*
X83540566Y-106627442D01*
X83462545Y-106439084D01*
X83369717Y-106300157D01*
X83467205Y-106154256D01*
X83545226Y-105965898D01*
X83585000Y-105765939D01*
X83585000Y-105562061D01*
X83545226Y-105362102D01*
X83467205Y-105173744D01*
X83353937Y-105004226D01*
X83209774Y-104860063D01*
X83040256Y-104746795D01*
X82996239Y-104728562D01*
X88649004Y-99075798D01*
X88678001Y-99052001D01*
X88772974Y-98936276D01*
X88843546Y-98804247D01*
X88887003Y-98660986D01*
X88898000Y-98549333D01*
X88898000Y-98549325D01*
X88901676Y-98512000D01*
X88898000Y-98474675D01*
X88898000Y-88908178D01*
X89084632Y-88783475D01*
X89291475Y-88576632D01*
X89408000Y-88402240D01*
X89524525Y-88576632D01*
X89731368Y-88783475D01*
X89974589Y-88945990D01*
X90244842Y-89057932D01*
X90531740Y-89115000D01*
X90824260Y-89115000D01*
X91111158Y-89057932D01*
X91381411Y-88945990D01*
X91624632Y-88783475D01*
X91831475Y-88576632D01*
X91948000Y-88402240D01*
X91950000Y-88405233D01*
X91950001Y-118303197D01*
X91690998Y-118562201D01*
X91437007Y-118816192D01*
X91436996Y-118816201D01*
X90384198Y-119869000D01*
X90322061Y-119869000D01*
X90122102Y-119908774D01*
X89933744Y-119986795D01*
X89764226Y-120100063D01*
X89620063Y-120244226D01*
X89506795Y-120413744D01*
X89428774Y-120602102D01*
X89389000Y-120802061D01*
X89389000Y-121005939D01*
X89428774Y-121205898D01*
X89506795Y-121394256D01*
X89620063Y-121563774D01*
X89764226Y-121707937D01*
X89933744Y-121821205D01*
X90122102Y-121899226D01*
X90322061Y-121939000D01*
X90525939Y-121939000D01*
X90725898Y-121899226D01*
X90914256Y-121821205D01*
X91083774Y-121707937D01*
X91227937Y-121563774D01*
X91341205Y-121394256D01*
X91419226Y-121205898D01*
X91459000Y-121005939D01*
X91459000Y-120943802D01*
X92511799Y-119891004D01*
X92511808Y-119890993D01*
X93221002Y-119181799D01*
X93250001Y-119158001D01*
X93344974Y-119042276D01*
X93415546Y-118910247D01*
X93459003Y-118766986D01*
X93470000Y-118655333D01*
X93470000Y-118655325D01*
X93473676Y-118618000D01*
X93470000Y-118580675D01*
X93470000Y-109892684D01*
X93589746Y-109929008D01*
X93763000Y-109946072D01*
X95213000Y-109946072D01*
X95386254Y-109929008D01*
X95552850Y-109878472D01*
X95706386Y-109796405D01*
X95840962Y-109685962D01*
X95951405Y-109551386D01*
X96033472Y-109397850D01*
X96084008Y-109231254D01*
X96101072Y-109058000D01*
X96101072Y-107858000D01*
X96084008Y-107684746D01*
X96033472Y-107518150D01*
X95951405Y-107364614D01*
X95840962Y-107230038D01*
X95706386Y-107119595D01*
X95604663Y-107065223D01*
X95668134Y-107013134D01*
X95853706Y-106787014D01*
X95991599Y-106529034D01*
X96076513Y-106249111D01*
X96105185Y-105958000D01*
X96076513Y-105666889D01*
X95991599Y-105386966D01*
X95853706Y-105128986D01*
X95668134Y-104902866D01*
X95442014Y-104717294D01*
X95424626Y-104708000D01*
X95442014Y-104698706D01*
X95668134Y-104513134D01*
X95853706Y-104287014D01*
X95991599Y-104029034D01*
X96076513Y-103749111D01*
X96105185Y-103458000D01*
X96076513Y-103166889D01*
X95991599Y-102886966D01*
X95853706Y-102628986D01*
X95668134Y-102402866D01*
X95442014Y-102217294D01*
X95424626Y-102208000D01*
X95442014Y-102198706D01*
X95668134Y-102013134D01*
X95853706Y-101787014D01*
X95991599Y-101529034D01*
X96076513Y-101249111D01*
X96105185Y-100958000D01*
X96076513Y-100666889D01*
X95991599Y-100386966D01*
X95853706Y-100128986D01*
X95668134Y-99902866D01*
X95442014Y-99717294D01*
X95424626Y-99708000D01*
X95442014Y-99698706D01*
X95668134Y-99513134D01*
X95853706Y-99287014D01*
X95991599Y-99029034D01*
X96076513Y-98749111D01*
X96105185Y-98458000D01*
X96076513Y-98166889D01*
X95991599Y-97886966D01*
X95853706Y-97628986D01*
X95668134Y-97402866D01*
X95442014Y-97217294D01*
X95184034Y-97079401D01*
X94904111Y-96994487D01*
X94685950Y-96973000D01*
X94290050Y-96973000D01*
X94071889Y-96994487D01*
X93791966Y-97079401D01*
X93533986Y-97217294D01*
X93470000Y-97269806D01*
X93470000Y-89093967D01*
X93651158Y-89057932D01*
X93921411Y-88945990D01*
X94164632Y-88783475D01*
X94296487Y-88651620D01*
X94318498Y-88724180D01*
X94377463Y-88834494D01*
X94456815Y-88931185D01*
X94553506Y-89010537D01*
X94663820Y-89069502D01*
X94783518Y-89105812D01*
X94908000Y-89118072D01*
X95472250Y-89115000D01*
X95631000Y-88956250D01*
X95631000Y-87757000D01*
X95611000Y-87757000D01*
X95611000Y-87503000D01*
X95631000Y-87503000D01*
X95631000Y-87483000D01*
X95885000Y-87483000D01*
X95885000Y-87503000D01*
X95905000Y-87503000D01*
X95905000Y-87757000D01*
X95885000Y-87757000D01*
X95885000Y-88956250D01*
X96043750Y-89115000D01*
X96608000Y-89118072D01*
X96732482Y-89105812D01*
X96852180Y-89069502D01*
X96962494Y-89010537D01*
X97059185Y-88931185D01*
X97138537Y-88834494D01*
X97159001Y-88796209D01*
X97159000Y-126887421D01*
X96153422Y-127893000D01*
X95463837Y-127893000D01*
X95468072Y-127850000D01*
X95465000Y-127285750D01*
X95306250Y-127127000D01*
X94107000Y-127127000D01*
X94107000Y-127147000D01*
X93853000Y-127147000D01*
X93853000Y-127127000D01*
X93833000Y-127127000D01*
X93833000Y-126873000D01*
X93853000Y-126873000D01*
X93853000Y-125673750D01*
X94107000Y-125673750D01*
X94107000Y-126873000D01*
X95306250Y-126873000D01*
X95465000Y-126714250D01*
X95468072Y-126150000D01*
X95455812Y-126025518D01*
X95419502Y-125905820D01*
X95360537Y-125795506D01*
X95281185Y-125698815D01*
X95184494Y-125619463D01*
X95074180Y-125560498D01*
X94954482Y-125524188D01*
X94830000Y-125511928D01*
X94265750Y-125515000D01*
X94107000Y-125673750D01*
X93853000Y-125673750D01*
X93694250Y-125515000D01*
X93130000Y-125511928D01*
X93005518Y-125524188D01*
X92885820Y-125560498D01*
X92775506Y-125619463D01*
X92678815Y-125698815D01*
X92599463Y-125795506D01*
X92540498Y-125905820D01*
X92518487Y-125978380D01*
X92386632Y-125846525D01*
X92143411Y-125684010D01*
X91873158Y-125572068D01*
X91586260Y-125515000D01*
X91293740Y-125515000D01*
X91006842Y-125572068D01*
X90736589Y-125684010D01*
X90493368Y-125846525D01*
X90286525Y-126053368D01*
X90170000Y-126227760D01*
X90053475Y-126053368D01*
X89846632Y-125846525D01*
X89785000Y-125805344D01*
X89785000Y-124503465D01*
X89789281Y-124459999D01*
X89785000Y-124416533D01*
X89785000Y-124416523D01*
X89772195Y-124286510D01*
X89721589Y-124119687D01*
X89639411Y-123965941D01*
X89528817Y-123831183D01*
X89495049Y-123803470D01*
X82286535Y-116594957D01*
X82275226Y-116538102D01*
X82197205Y-116349744D01*
X82083937Y-116180226D01*
X81939774Y-116036063D01*
X81770256Y-115922795D01*
X81581898Y-115844774D01*
X81381939Y-115805000D01*
X81178061Y-115805000D01*
X80978102Y-115844774D01*
X80789744Y-115922795D01*
X80741546Y-115955000D01*
X62185000Y-115955000D01*
X62185000Y-112225501D01*
X62251185Y-112171185D01*
X62330537Y-112074494D01*
X62389502Y-111964180D01*
X62425812Y-111844482D01*
X62438072Y-111720000D01*
X62438072Y-109220000D01*
X62425812Y-109095518D01*
X62399286Y-109008072D01*
X63700000Y-109008072D01*
X63824482Y-108995812D01*
X63944180Y-108959502D01*
X64054494Y-108900537D01*
X64151185Y-108821185D01*
X64230537Y-108724494D01*
X64289502Y-108614180D01*
X64325812Y-108494482D01*
X64338072Y-108370000D01*
X64338072Y-108084873D01*
X64899000Y-108645802D01*
X64899000Y-108897289D01*
X64855063Y-108941226D01*
X64741795Y-109110744D01*
X64663774Y-109299102D01*
X64624000Y-109499061D01*
X64624000Y-109702939D01*
X64663774Y-109902898D01*
X64741795Y-110091256D01*
X64855063Y-110260774D01*
X64999226Y-110404937D01*
X65168744Y-110518205D01*
X65357102Y-110596226D01*
X65557061Y-110636000D01*
X65760939Y-110636000D01*
X65960898Y-110596226D01*
X66149256Y-110518205D01*
X66318774Y-110404937D01*
X66462937Y-110260774D01*
X66576205Y-110091256D01*
X66654226Y-109902898D01*
X66694000Y-109702939D01*
X66694000Y-109499061D01*
X66654226Y-109299102D01*
X66576205Y-109110744D01*
X66462937Y-108941226D01*
X66419000Y-108897289D01*
X66419000Y-108368322D01*
X66422676Y-108330999D01*
X66419000Y-108293676D01*
X66419000Y-108293667D01*
X66408003Y-108182014D01*
X66364546Y-108038753D01*
X66293974Y-107906724D01*
X66199001Y-107790999D01*
X66170004Y-107767202D01*
X65831050Y-107428248D01*
X65937774Y-107356937D01*
X66081937Y-107212774D01*
X66195205Y-107043256D01*
X66273226Y-106854898D01*
X66313000Y-106654939D01*
X66313000Y-106451061D01*
X66273226Y-106251102D01*
X66195205Y-106062744D01*
X66081937Y-105893226D01*
X66026987Y-105838276D01*
X65983546Y-105695068D01*
X65912974Y-105563039D01*
X65818001Y-105447314D01*
X65789004Y-105423517D01*
X64756489Y-104391002D01*
X64732686Y-104361999D01*
X64616961Y-104267026D01*
X64484932Y-104196454D01*
X64341671Y-104152997D01*
X64338072Y-104152643D01*
X64338072Y-103370000D01*
X64325812Y-103245518D01*
X64289502Y-103125820D01*
X64230537Y-103015506D01*
X64151185Y-102918815D01*
X64091704Y-102870000D01*
X64151185Y-102821185D01*
X64230537Y-102724494D01*
X64289502Y-102614180D01*
X64325812Y-102494482D01*
X64338072Y-102370000D01*
X64338072Y-101370000D01*
X64325812Y-101245518D01*
X64289502Y-101125820D01*
X64230537Y-101015506D01*
X64151185Y-100918815D01*
X64091704Y-100870000D01*
X64151185Y-100821185D01*
X64230537Y-100724494D01*
X64289502Y-100614180D01*
X64325812Y-100494482D01*
X64338072Y-100370000D01*
X64338072Y-99370000D01*
X64325812Y-99245518D01*
X64289502Y-99125820D01*
X64230537Y-99015506D01*
X64151185Y-98918815D01*
X64091704Y-98870000D01*
X64151185Y-98821185D01*
X64230537Y-98724494D01*
X64289502Y-98614180D01*
X64325812Y-98494482D01*
X64326607Y-98486408D01*
X64776207Y-98936008D01*
X64800001Y-98965001D01*
X64807675Y-98971299D01*
X64790774Y-99012102D01*
X64751000Y-99212061D01*
X64751000Y-99415939D01*
X64790774Y-99615898D01*
X64868795Y-99804256D01*
X64982063Y-99973774D01*
X65126226Y-100117937D01*
X65295744Y-100231205D01*
X65484102Y-100309226D01*
X65684061Y-100349000D01*
X65746199Y-100349000D01*
X66873201Y-101476003D01*
X66896999Y-101505001D01*
X66925997Y-101528799D01*
X67012724Y-101599974D01*
X67144753Y-101670546D01*
X67194325Y-101685583D01*
X67154795Y-101744744D01*
X67076774Y-101933102D01*
X67037000Y-102133061D01*
X67037000Y-102336939D01*
X67076774Y-102536898D01*
X67154795Y-102725256D01*
X67268063Y-102894774D01*
X67412226Y-103038937D01*
X67581744Y-103152205D01*
X67770102Y-103230226D01*
X67970061Y-103270000D01*
X68173939Y-103270000D01*
X68373898Y-103230226D01*
X68562256Y-103152205D01*
X68668480Y-103081229D01*
X68632071Y-103201255D01*
X68616928Y-103355000D01*
X68616928Y-103655000D01*
X68632071Y-103808745D01*
X68676916Y-103956582D01*
X68749742Y-104092829D01*
X68788454Y-104140000D01*
X68749742Y-104187171D01*
X68676916Y-104323418D01*
X68632071Y-104471255D01*
X68616928Y-104625000D01*
X68616928Y-104925000D01*
X68632071Y-105078745D01*
X68676916Y-105226582D01*
X68749742Y-105362829D01*
X68788454Y-105410000D01*
X68749742Y-105457171D01*
X68676916Y-105593418D01*
X68632071Y-105741255D01*
X68616928Y-105895000D01*
X68616928Y-106195000D01*
X68632071Y-106348745D01*
X68676916Y-106496582D01*
X68749742Y-106632829D01*
X68788454Y-106680000D01*
X68749742Y-106727171D01*
X68676916Y-106863418D01*
X68632071Y-107011255D01*
X68616928Y-107165000D01*
X68616928Y-107465000D01*
X68632071Y-107618745D01*
X68676916Y-107766582D01*
X68749742Y-107902829D01*
X68788454Y-107950000D01*
X68749742Y-107997171D01*
X68676916Y-108133418D01*
X68632071Y-108281255D01*
X68616928Y-108435000D01*
X68616928Y-108735000D01*
X68632071Y-108888745D01*
X68676916Y-109036582D01*
X68749742Y-109172829D01*
X68788454Y-109220000D01*
X68749742Y-109267171D01*
X68676916Y-109403418D01*
X68632071Y-109551255D01*
X68616928Y-109705000D01*
X68616928Y-110005000D01*
X68632071Y-110158745D01*
X68676916Y-110306582D01*
X68749742Y-110442829D01*
X68788454Y-110490000D01*
X68749742Y-110537171D01*
X68676916Y-110673418D01*
X68632071Y-110821255D01*
X68616928Y-110975000D01*
X68616928Y-111275000D01*
X68632071Y-111428745D01*
X68676916Y-111576582D01*
X68749742Y-111712829D01*
X68847749Y-111832251D01*
X68967171Y-111930258D01*
X69103418Y-112003084D01*
X69251255Y-112047929D01*
X69405000Y-112063072D01*
X71155000Y-112063072D01*
X71308745Y-112047929D01*
X71456582Y-112003084D01*
X71592829Y-111930258D01*
X71712251Y-111832251D01*
X71810258Y-111712829D01*
X71883084Y-111576582D01*
X71927929Y-111428745D01*
X71943072Y-111275000D01*
X71943072Y-110975000D01*
X71927929Y-110821255D01*
X71883084Y-110673418D01*
X71810258Y-110537171D01*
X71771546Y-110490000D01*
X71810258Y-110442829D01*
X71883084Y-110306582D01*
X71927929Y-110158745D01*
X71943072Y-110005000D01*
X71943072Y-109705000D01*
X71927929Y-109551255D01*
X71883084Y-109403418D01*
X71810258Y-109267171D01*
X71771546Y-109220000D01*
X71810258Y-109172829D01*
X71883084Y-109036582D01*
X71927929Y-108888745D01*
X71943072Y-108735000D01*
X71943072Y-108435000D01*
X71927929Y-108281255D01*
X71883084Y-108133418D01*
X71810258Y-107997171D01*
X71771546Y-107950000D01*
X71810258Y-107902829D01*
X71883084Y-107766582D01*
X71927929Y-107618745D01*
X71943072Y-107465000D01*
X71943072Y-107165000D01*
X71927929Y-107011255D01*
X71883084Y-106863418D01*
X71810258Y-106727171D01*
X71771546Y-106680000D01*
X71810258Y-106632829D01*
X71883084Y-106496582D01*
X71927929Y-106348745D01*
X71943072Y-106195000D01*
X71943072Y-105895000D01*
X71927929Y-105741255D01*
X71883084Y-105593418D01*
X71810258Y-105457171D01*
X71771546Y-105410000D01*
X71810258Y-105362829D01*
X71883084Y-105226582D01*
X71927929Y-105078745D01*
X71943072Y-104925000D01*
X71943072Y-104625000D01*
X71927929Y-104471255D01*
X71883084Y-104323418D01*
X71810258Y-104187171D01*
X71771546Y-104140000D01*
X71810258Y-104092829D01*
X71883084Y-103956582D01*
X71927929Y-103808745D01*
X71943072Y-103655000D01*
X71943072Y-103355000D01*
X71927929Y-103201255D01*
X71883084Y-103053418D01*
X71810258Y-102917171D01*
X71771546Y-102870000D01*
X71810258Y-102822829D01*
X71883084Y-102686582D01*
X71927929Y-102538745D01*
X71943072Y-102385000D01*
X71943072Y-102085000D01*
X71927929Y-101931255D01*
X71883084Y-101783418D01*
X71810258Y-101647171D01*
X71771546Y-101600000D01*
X71810258Y-101552829D01*
X71883084Y-101416582D01*
X71927929Y-101268745D01*
X71943072Y-101115000D01*
X71943072Y-100815000D01*
X71927929Y-100661255D01*
X71883084Y-100513418D01*
X71810258Y-100377171D01*
X71771546Y-100330000D01*
X71810258Y-100282829D01*
X71883084Y-100146582D01*
X71927929Y-99998745D01*
X71943072Y-99845000D01*
X71943072Y-99545000D01*
X71927929Y-99391255D01*
X71883084Y-99243418D01*
X71810258Y-99107171D01*
X71771546Y-99060000D01*
X71810258Y-99012829D01*
X71883084Y-98876582D01*
X71927929Y-98728745D01*
X71943072Y-98575000D01*
X71943072Y-98275000D01*
X71927929Y-98121255D01*
X71883084Y-97973418D01*
X71811270Y-97839064D01*
X71835537Y-97809494D01*
X71894502Y-97699180D01*
X71930812Y-97579482D01*
X71943072Y-97455000D01*
X71940000Y-97440750D01*
X71781250Y-97282000D01*
X70407000Y-97282000D01*
X70407000Y-97302000D01*
X70153000Y-97302000D01*
X70153000Y-97282000D01*
X68778750Y-97282000D01*
X68620000Y-97440750D01*
X68616928Y-97455000D01*
X68629188Y-97579482D01*
X68655130Y-97665000D01*
X65654805Y-97665000D01*
X64379805Y-96390002D01*
X64356003Y-96360999D01*
X64240278Y-96266026D01*
X64108249Y-96195454D01*
X64073787Y-96185000D01*
X68616928Y-96185000D01*
X68629188Y-96309482D01*
X68665498Y-96429180D01*
X68714043Y-96520000D01*
X68665498Y-96610820D01*
X68629188Y-96730518D01*
X68616928Y-96855000D01*
X68620000Y-96869250D01*
X68778750Y-97028000D01*
X70153000Y-97028000D01*
X70153000Y-96012000D01*
X70407000Y-96012000D01*
X70407000Y-97028000D01*
X71781250Y-97028000D01*
X71940000Y-96869250D01*
X71943072Y-96855000D01*
X71930812Y-96730518D01*
X71894502Y-96610820D01*
X71845957Y-96520000D01*
X71894502Y-96429180D01*
X71930812Y-96309482D01*
X71943072Y-96185000D01*
X71940000Y-96170750D01*
X71781250Y-96012000D01*
X70407000Y-96012000D01*
X70153000Y-96012000D01*
X68778750Y-96012000D01*
X68620000Y-96170750D01*
X68616928Y-96185000D01*
X64073787Y-96185000D01*
X63964988Y-96151997D01*
X63853335Y-96141000D01*
X63853324Y-96141000D01*
X63816002Y-96137324D01*
X63778680Y-96141000D01*
X62436865Y-96141000D01*
X62435000Y-95555750D01*
X62276250Y-95397000D01*
X61427000Y-95397000D01*
X61427000Y-95417000D01*
X61173000Y-95417000D01*
X61173000Y-95397000D01*
X61153000Y-95397000D01*
X61153000Y-95143000D01*
X61173000Y-95143000D01*
X61173000Y-93543750D01*
X61427000Y-93543750D01*
X61427000Y-95143000D01*
X62276250Y-95143000D01*
X62435000Y-94984250D01*
X62435220Y-94915000D01*
X68616928Y-94915000D01*
X68629188Y-95039482D01*
X68665498Y-95159180D01*
X68714043Y-95250000D01*
X68665498Y-95340820D01*
X68629188Y-95460518D01*
X68616928Y-95585000D01*
X68620000Y-95599250D01*
X68778750Y-95758000D01*
X70153000Y-95758000D01*
X70153000Y-94742000D01*
X70407000Y-94742000D01*
X70407000Y-95758000D01*
X71781250Y-95758000D01*
X71940000Y-95599250D01*
X71943072Y-95585000D01*
X71930812Y-95460518D01*
X71894502Y-95340820D01*
X71845957Y-95250000D01*
X71894502Y-95159180D01*
X71930812Y-95039482D01*
X71943072Y-94915000D01*
X71940000Y-94900750D01*
X71781250Y-94742000D01*
X70407000Y-94742000D01*
X70153000Y-94742000D01*
X68778750Y-94742000D01*
X68620000Y-94900750D01*
X68616928Y-94915000D01*
X62435220Y-94915000D01*
X62437131Y-94315000D01*
X68616928Y-94315000D01*
X68620000Y-94329250D01*
X68778750Y-94488000D01*
X70153000Y-94488000D01*
X70153000Y-93838750D01*
X70407000Y-93838750D01*
X70407000Y-94488000D01*
X71781250Y-94488000D01*
X71940000Y-94329250D01*
X71943072Y-94315000D01*
X71930812Y-94190518D01*
X71894502Y-94070820D01*
X71835537Y-93960506D01*
X71756185Y-93863815D01*
X71659494Y-93784463D01*
X71549180Y-93725498D01*
X71429482Y-93689188D01*
X71305000Y-93676928D01*
X70565750Y-93680000D01*
X70407000Y-93838750D01*
X70153000Y-93838750D01*
X69994250Y-93680000D01*
X69255000Y-93676928D01*
X69130518Y-93689188D01*
X69010820Y-93725498D01*
X68900506Y-93784463D01*
X68803815Y-93863815D01*
X68724463Y-93960506D01*
X68665498Y-94070820D01*
X68629188Y-94190518D01*
X68616928Y-94315000D01*
X62437131Y-94315000D01*
X62438072Y-94020000D01*
X62425812Y-93895518D01*
X62389502Y-93775820D01*
X62330537Y-93665506D01*
X62251185Y-93568815D01*
X62154494Y-93489463D01*
X62044180Y-93430498D01*
X61924482Y-93394188D01*
X61800000Y-93381928D01*
X61585750Y-93385000D01*
X61427000Y-93543750D01*
X61173000Y-93543750D01*
X61014250Y-93385000D01*
X60800000Y-93381928D01*
X60758817Y-93385984D01*
X61944802Y-92200000D01*
X63860473Y-92200000D01*
X63869528Y-92229851D01*
X63951595Y-92383387D01*
X64062038Y-92517962D01*
X64196613Y-92628405D01*
X64350149Y-92710472D01*
X64516745Y-92761008D01*
X64689999Y-92778072D01*
X65390001Y-92778072D01*
X65563255Y-92761008D01*
X65729851Y-92710472D01*
X65883387Y-92628405D01*
X65964637Y-92561724D01*
X65988815Y-92591185D01*
X66085506Y-92670537D01*
X66195820Y-92729502D01*
X66315518Y-92765812D01*
X66440000Y-92778072D01*
X66754250Y-92775000D01*
X66913000Y-92616250D01*
X66913000Y-91567000D01*
X67167000Y-91567000D01*
X67167000Y-92616250D01*
X67325750Y-92775000D01*
X67640000Y-92778072D01*
X67764482Y-92765812D01*
X67884180Y-92729502D01*
X67994494Y-92670537D01*
X68091185Y-92591185D01*
X68170537Y-92494494D01*
X68229502Y-92384180D01*
X68265812Y-92264482D01*
X68278072Y-92140000D01*
X68275000Y-91725750D01*
X68116250Y-91567000D01*
X67167000Y-91567000D01*
X66913000Y-91567000D01*
X66893000Y-91567000D01*
X66893000Y-91313000D01*
X66913000Y-91313000D01*
X66913000Y-90263750D01*
X67167000Y-90263750D01*
X67167000Y-91313000D01*
X68116250Y-91313000D01*
X68275000Y-91154250D01*
X68278072Y-90740000D01*
X68265812Y-90615518D01*
X68229502Y-90495820D01*
X68170537Y-90385506D01*
X68091185Y-90288815D01*
X67994494Y-90209463D01*
X67884180Y-90150498D01*
X67764482Y-90114188D01*
X67640000Y-90101928D01*
X67325750Y-90105000D01*
X67167000Y-90263750D01*
X66913000Y-90263750D01*
X66754250Y-90105000D01*
X66440000Y-90101928D01*
X66315518Y-90114188D01*
X66195820Y-90150498D01*
X66085506Y-90209463D01*
X65988815Y-90288815D01*
X65964637Y-90318276D01*
X65883387Y-90251595D01*
X65729851Y-90169528D01*
X65563255Y-90118992D01*
X65390001Y-90101928D01*
X64689999Y-90101928D01*
X64516745Y-90118992D01*
X64350149Y-90169528D01*
X64196613Y-90251595D01*
X64062038Y-90362038D01*
X63951595Y-90496613D01*
X63869528Y-90650149D01*
X63860473Y-90680000D01*
X61667333Y-90680000D01*
X61630000Y-90676323D01*
X61592667Y-90680000D01*
X61481014Y-90690997D01*
X61337753Y-90734454D01*
X61205724Y-90805026D01*
X61089999Y-90899999D01*
X61066201Y-90928997D01*
X59390001Y-92605198D01*
X56640000Y-89855199D01*
X56640000Y-88908178D01*
X56826632Y-88783475D01*
X57033475Y-88576632D01*
X57150000Y-88402240D01*
X57266525Y-88576632D01*
X57473368Y-88783475D01*
X57716589Y-88945990D01*
X57986842Y-89057932D01*
X58273740Y-89115000D01*
X58566260Y-89115000D01*
X58853158Y-89057932D01*
X59123411Y-88945990D01*
X59366632Y-88783475D01*
X59573475Y-88576632D01*
X59690000Y-88402240D01*
X59806525Y-88576632D01*
X60013368Y-88783475D01*
X60256589Y-88945990D01*
X60526842Y-89057932D01*
X60813740Y-89115000D01*
X61106260Y-89115000D01*
X61393158Y-89057932D01*
X61663411Y-88945990D01*
X61906632Y-88783475D01*
X62113475Y-88576632D01*
X62275990Y-88333411D01*
X62387932Y-88063158D01*
X62445000Y-87776260D01*
X62445000Y-87483740D01*
X62387932Y-87196842D01*
X62275990Y-86926589D01*
X62113475Y-86683368D01*
X61906632Y-86476525D01*
X61663411Y-86314010D01*
X61393158Y-86202068D01*
X61106260Y-86145000D01*
X60813740Y-86145000D01*
X60593592Y-86188790D01*
X59491804Y-85087003D01*
X59468001Y-85057999D01*
X59352276Y-84963026D01*
X59220247Y-84892454D01*
X59076986Y-84848997D01*
X58965333Y-84838000D01*
X58965322Y-84838000D01*
X58928000Y-84834324D01*
X58890678Y-84838000D01*
X46519322Y-84838000D01*
X46482000Y-84834324D01*
X46444677Y-84838000D01*
X46444667Y-84838000D01*
X46333014Y-84848997D01*
X46189753Y-84892454D01*
X46057723Y-84963026D01*
X46008178Y-85003687D01*
X45941999Y-85057999D01*
X45918201Y-85086997D01*
X44954998Y-86050201D01*
X44926000Y-86073999D01*
X44902202Y-86102997D01*
X44902201Y-86102998D01*
X44831026Y-86189724D01*
X44760454Y-86321754D01*
X44716998Y-86465015D01*
X44702324Y-86614000D01*
X44706001Y-86651332D01*
X44706000Y-88862677D01*
X44702324Y-88900000D01*
X44706000Y-88937322D01*
X44706000Y-88937332D01*
X44716997Y-89048985D01*
X44737251Y-89115753D01*
X44760454Y-89192246D01*
X44831026Y-89324276D01*
X44869099Y-89370667D01*
X44925999Y-89440001D01*
X44955003Y-89463804D01*
X46540001Y-91048803D01*
X46540000Y-93359691D01*
X46530601Y-93354667D01*
X46506776Y-93347440D01*
X46482000Y-93345000D01*
X38354000Y-93345000D01*
X38329224Y-93347440D01*
X38305399Y-93354667D01*
X38283443Y-93366403D01*
X38264197Y-93382197D01*
X38248403Y-93401443D01*
X38236667Y-93423399D01*
X38229440Y-93447224D01*
X38227000Y-93472000D01*
X37291000Y-93472000D01*
X37291000Y-84157117D01*
X39921000Y-84157117D01*
X39921000Y-84498883D01*
X39987675Y-84834081D01*
X40118463Y-85149831D01*
X40308337Y-85433998D01*
X40550002Y-85675663D01*
X40834169Y-85865537D01*
X41149919Y-85996325D01*
X41485117Y-86063000D01*
X41826883Y-86063000D01*
X42162081Y-85996325D01*
X42477831Y-85865537D01*
X42761998Y-85675663D01*
X43003663Y-85433998D01*
X43193537Y-85149831D01*
X43324325Y-84834081D01*
X43391000Y-84498883D01*
X43391000Y-84157117D01*
X101389000Y-84157117D01*
X101389000Y-84498883D01*
X101455675Y-84834081D01*
X101586463Y-85149831D01*
X101776337Y-85433998D01*
X102018002Y-85675663D01*
X102302169Y-85865537D01*
X102617919Y-85996325D01*
X102953117Y-86063000D01*
X103294883Y-86063000D01*
X103630081Y-85996325D01*
X103945831Y-85865537D01*
X104229998Y-85675663D01*
X104471663Y-85433998D01*
X104661537Y-85149831D01*
X104792325Y-84834081D01*
X104859000Y-84498883D01*
X104859000Y-84157117D01*
X104792325Y-83821919D01*
X104661537Y-83506169D01*
X104471663Y-83222002D01*
X104229998Y-82980337D01*
X103945831Y-82790463D01*
X103630081Y-82659675D01*
X103294883Y-82593000D01*
X102953117Y-82593000D01*
X102617919Y-82659675D01*
X102302169Y-82790463D01*
X102018002Y-82980337D01*
X101776337Y-83222002D01*
X101586463Y-83506169D01*
X101455675Y-83821919D01*
X101389000Y-84157117D01*
X43391000Y-84157117D01*
X43324325Y-83821919D01*
X43193537Y-83506169D01*
X43003663Y-83222002D01*
X42761998Y-82980337D01*
X42477831Y-82790463D01*
X42162081Y-82659675D01*
X41826883Y-82593000D01*
X41485117Y-82593000D01*
X41149919Y-82659675D01*
X40834169Y-82790463D01*
X40550002Y-82980337D01*
X40308337Y-83222002D01*
X40118463Y-83506169D01*
X39987675Y-83821919D01*
X39921000Y-84157117D01*
X37291000Y-84157117D01*
X37291000Y-79963000D01*
X106981000Y-79963000D01*
X106981001Y-134413000D01*
G37*
%TD.AperFunction*%
D20*
X79707000Y-99568000D02*
X79727000Y-99568000D01*
X79727000Y-99822000D01*
X79707000Y-99822000D01*
X79707000Y-99842000D01*
X79453000Y-99842000D01*
X79453000Y-99822000D01*
X79433000Y-99822000D01*
X79433000Y-99568000D01*
X79453000Y-99568000D01*
X79453000Y-99548000D01*
X79707000Y-99548000D01*
X79707000Y-99568000D01*
%TA.AperFunction,Conductor*%
D21*
G36*
X79707000Y-99568000D02*
G01*
X79727000Y-99568000D01*
X79727000Y-99822000D01*
X79707000Y-99822000D01*
X79707000Y-99842000D01*
X79453000Y-99842000D01*
X79453000Y-99822000D01*
X79433000Y-99822000D01*
X79433000Y-99568000D01*
X79453000Y-99568000D01*
X79453000Y-99548000D01*
X79707000Y-99548000D01*
X79707000Y-99568000D01*
G37*
%TD.AperFunction*%
%TD*%
M02*
